<svg xmlns="http://www.w3.org/2000/svg" xmlns:xlink="http://www.w3.org/1999/xlink" id="Capa_2" data-name="Capa 2" viewBox="0 0 259.06 259.06">
    <defs>
        <style>
            .div8 .cls-1 {
                fill: #293539;
            }

            .div8 .cls-1,
            .div8 .cls-2 {
                fill-rule: evenodd;
            }

            .div8 .cls-3 {
                fill: #333;
            }

            .div8 .cls-4 {
                clip-path: url(#div8clippath-1);
            }

            .div8 .cls-5 {
                clip-path: url(#div8clippath);
            }

            .div8 .cls-6 {
                fill: none;
            }

            .div8 .cls-7 {
                opacity: .43;
            }

            .div8 .cls-2 {
                fill: #3c6;
            }

            .div8 .cls-8 {
                fill: #c1c1c1;
            }

            .div8 .cls-9 {
                fill: #161616;
            }

            .div8 .cls-10 {
                fill: #070707;
            }

            .div8 .cls-11 {
                fill: #41b4d9;
            }

            .div8 .cls-12 {
                fill: #ededed;
            }
        </style>
        <clipPath id="div8clippath">
            <rect class="cls-6" width="259.06" height="259.06" />
        </clipPath>
        <clipPath id="div8clippath-1">
            <rect class="cls-6" x="59.67" y="230.32" width="136.69" height="52.63" />
        </clipPath>
    </defs>
    <g id="Capa_1-2" data-name="Capa 1">
        <g class="cls-5">
            <g>
                <rect x="39.62" y="43.89" width="179.82" height="241.85" rx="4.72" ry="4.72" />
                <g>
                    <g>
                        <rect class="cls-10" x="49.69" y="72.29" width="159.2" height="117.34" rx="5.37" ry="5.37" />
                        <path class="cls-9" d="M203.52,189.88H55.06c-3.1,0-5.62-2.52-5.62-5.62V77.67c0-3.1,2.52-5.62,5.62-5.62H203.52c3.1,0,5.62,2.52,5.62,5.62v106.59c0,3.1-2.52,5.62-5.62,5.62ZM55.06,72.54c-2.83,0-5.12,2.3-5.12,5.12v106.59c0,2.83,2.3,5.12,5.12,5.12H203.52c2.83,0,5.12-2.3,5.12-5.12V77.67c0-2.83-2.3-5.12-5.12-5.12H55.06Z" />
                    </g>
                    <g>
                        <path class="cls-12" d="M170.64,93.75c0-.56,.05-1.42,.08-1.98h-.06c-.24,.5-.51,.97-.79,1.48l-1.58,2.39h5.31v1.41h-7.18v-1.26l3.71-5.68h2.29v9.26h-1.78v-5.63Z" />
                        <path class="cls-12" d="M174.58,94.71c0-3.14,1.31-4.76,3.33-4.76s3.33,1.64,3.33,4.76-1.31,4.84-3.33,4.84-3.33-1.71-3.33-4.84Zm4.84,0c0-2.59-.64-3.33-1.51-3.33s-1.51,.75-1.51,3.33,.64,3.41,1.51,3.41,1.51-.82,1.51-3.41Z" />
                        <path class="cls-12" d="M182.18,98.24l.9-1.17c.59,.55,1.31,.99,2.22,.99,1.01,0,1.71-.48,1.71-1.3,0-.91-.59-1.48-2.74-1.48v-1.32c1.83,0,2.42-.59,2.42-1.4,0-.73-.5-1.16-1.34-1.16-.72,0-1.3,.33-1.88,.85l-.98-1.13c.84-.71,1.78-1.17,2.94-1.17,1.89,0,3.18,.89,3.18,2.48,0,1.01-.61,1.7-1.65,2.1v.06c1.13,.29,1.97,1.07,1.97,2.29,0,1.7-1.57,2.68-3.45,2.68-1.55,0-2.61-.56-3.29-1.31Z" />
                        <path class="cls-12" d="M190.32,98.42l.85-1.25c.73,.55,1.43,.89,2.22,.89,.94,0,1.38-.42,1.38-1.16,0-1.78-4.07-1.59-4.07-4.29,0-1.62,1.18-2.67,3-2.67,1.26,0,2.09,.51,2.77,1.2l-.97,1.06c-.55-.49-1.02-.76-1.71-.76-.79,0-1.25,.37-1.25,1.09,0,1.62,4.07,1.35,4.07,4.25,0,1.63-1.15,2.78-3.22,2.78-1,0-2.25-.42-3.06-1.14Zm2.64-9.9h1.29v2.02h-1.29v-2.02Zm0,10.31h1.29v2.15h-1.29v-2.15Z" />
                    </g>
                    <g>
                        <g>
                            <path class="cls-8" d="M58.68,138.75h.96c1.18,0,1.81,.68,1.81,1.9s-.63,1.93-1.79,1.93h-.98v-3.83Zm.92,3.43c.89,0,1.34-.56,1.34-1.53s-.45-1.5-1.34-1.5h-.43v3.03h.43Z" />
                            <path class="cls-8" d="M62.01,141.16c0-.92,.62-1.49,1.27-1.49,.72,0,1.13,.52,1.13,1.33,0,.1,0,.2-.02,.27h-1.91c.03,.6,.4,.99,.94,.99,.27,0,.5-.09,.71-.23l.17,.31c-.25,.16-.55,.29-.94,.29-.76,0-1.36-.55-1.36-1.48Zm1.98-.23c0-.57-.26-.88-.7-.88-.4,0-.75,.32-.81,.88h1.51Z" />
                            <path class="cls-8" d="M64.79,142.25l.24-.32c.25,.2,.5,.34,.84,.34,.37,0,.56-.2,.56-.44,0-.29-.33-.42-.65-.54-.4-.15-.84-.34-.84-.82,0-.45,.36-.8,.98-.8,.35,0,.66,.14,.88,.32l-.23,.31c-.2-.14-.4-.25-.65-.25-.36,0-.52,.19-.52,.41,0,.27,.31,.37,.63,.49,.41,.15,.86,.32,.86,.86,0,.46-.37,.84-1.03,.84-.4,0-.79-.17-1.06-.39Z" />
                            <path class="cls-8" d="M67.33,141.16c0-.95,.64-1.49,1.36-1.49,.37,0,.63,.15,.83,.33l-.25,.32c-.17-.15-.34-.25-.56-.25-.51,0-.89,.44-.89,1.09s.35,1.08,.88,1.08c.26,0,.49-.13,.67-.28l.21,.32c-.25,.23-.58,.36-.92,.36-.75,0-1.33-.54-1.33-1.48Z" />
                            <path class="cls-8" d="M69.97,141.84c0-.62,.53-.93,1.74-1.06,0-.36-.12-.72-.58-.72-.33,0-.62,.16-.85,.3l-.19-.33c.26-.17,.66-.37,1.11-.37,.69,0,.98,.46,.98,1.17v1.74h-.4l-.04-.34h-.02c-.27,.22-.59,.41-.94,.41-.47,0-.83-.29-.83-.81Zm1.74,.04v-.79c-.95,.11-1.27,.35-1.27,.71,0,.32,.22,.45,.5,.45s.5-.13,.77-.38Z" />
                            <path class="cls-8" d="M73.08,139.74h.4l.04,.52h.02c.2-.36,.49-.59,.81-.59,.13,0,.21,.02,.3,.06l-.09,.42c-.1-.03-.16-.05-.27-.05-.24,0-.53,.17-.72,.65v1.82h-.48v-2.83Z" />
                            <path class="cls-8" d="M74.82,143.12c0-.24,.15-.47,.42-.64v-.02c-.14-.09-.25-.24-.25-.46,0-.24,.17-.42,.31-.53v-.02c-.19-.15-.37-.42-.37-.76,0-.62,.49-1.01,1.06-1.01,.16,0,.3,.03,.4,.07h.99v.37h-.58c.13,.13,.23,.34,.23,.58,0,.61-.46,.98-1.04,.98-.14,0-.29-.03-.42-.1-.1,.09-.18,.18-.18,.33,0,.18,.12,.31,.5,.31h.55c.66,0,.99,.21,.99,.68,0,.53-.56,.98-1.43,.98-.69,0-1.17-.27-1.17-.76Zm2.14-.15c0-.26-.2-.35-.57-.35h-.49c-.11,0-.24-.01-.37-.04-.2,.14-.29,.31-.29,.48,0,.3,.31,.5,.82,.5s.9-.28,.9-.58Zm-.36-2.29c0-.41-.27-.66-.6-.66s-.6,.25-.6,.66,.28,.67,.6,.67,.6-.26,.6-.67Z" />
                            <path class="cls-8" d="M77.7,141.84c0-.62,.53-.93,1.74-1.06,0-.36-.12-.72-.58-.72-.33,0-.62,.16-.85,.3l-.19-.33c.26-.17,.66-.37,1.11-.37,.69,0,.98,.46,.98,1.17v1.74h-.4l-.04-.34h-.02c-.27,.22-.59,.41-.94,.41-.47,0-.83-.29-.83-.81Zm1.74,.04v-.79c-.95,.11-1.27,.35-1.27,.71,0,.32,.22,.45,.5,.45s.5-.13,.77-.38Z" />
                            <path class="cls-8" d="M80.5,142.25l.24-.32c.25,.2,.5,.34,.84,.34,.37,0,.56-.2,.56-.44,0-.29-.33-.42-.65-.54-.4-.15-.84-.34-.84-.82,0-.45,.36-.8,.98-.8,.35,0,.66,.14,.88,.32l-.23,.31c-.2-.14-.4-.25-.65-.25-.36,0-.52,.19-.52,.41,0,.27,.31,.37,.63,.49,.41,.15,.86,.32,.86,.86,0,.46-.37,.84-1.03,.84-.4,0-.79-.17-1.06-.39Z" />
                        </g>
                        <g>
                            <path class="cls-12" d="M180.4,141.91h1.31v-3.87h-1.06v-.55c.55-.1,.94-.23,1.28-.43h.68v4.85h1.17v.71h-3.37v-.71Z" />
                            <path class="cls-12" d="M184.65,142.12c1.67-1.58,2.67-2.57,2.67-3.45,0-.61-.35-1.02-1.03-1.02-.47,0-.86,.29-1.18,.64l-.51-.48c.51-.53,1.03-.85,1.8-.85,1.09,0,1.78,.66,1.78,1.67s-.97,2.04-2.23,3.31c.31-.03,.68-.05,.97-.05h1.54v.73h-3.82v-.5Z" />
                            <path class="cls-12" d="M189.57,141.91h1.31v-3.87h-1.06v-.55c.55-.1,.94-.23,1.28-.43h.68v4.85h1.17v.71h-3.37v-.71Z" />
                            <path class="cls-12" d="M193.9,142.04l.41-.59c.41,.32,.85,.56,1.38,.56,.63,0,.94-.31,.94-.82,0-1.28-2.5-1.05-2.5-2.72,0-.91,.68-1.52,1.69-1.52,.73,0,1.19,.3,1.58,.69l-.47,.5c-.34-.31-.61-.48-1.08-.48-.53,0-.85,.29-.85,.77,0,1.16,2.5,.88,2.5,2.7,0,.95-.69,1.59-1.82,1.59-.63,0-1.33-.28-1.78-.68Zm1.56-5.94h.63v1.16h-.63v-1.16Zm0,6.3h.63v1.18h-.63v-1.18Z" />
                        </g>
                    </g>
                    <rect class="cls-9" x="58.76" y="108.09" width="138.84" height="1" />
                    <g>
                        <g>
                            <path class="cls-8" d="M58.41,158.5l.29-.33c.28,.29,.66,.47,1.06,.47,.5,0,.8-.25,.8-.62,0-.39-.28-.52-.64-.67l-.55-.24c-.36-.15-.77-.42-.77-.99s.51-1.02,1.2-1.02c.45,0,.86,.2,1.13,.47l-.26,.31c-.23-.22-.51-.36-.87-.36-.43,0-.71,.22-.71,.56,0,.37,.33,.51,.63,.63l.55,.24c.44,.19,.79,.45,.79,1.02,0,.6-.5,1.09-1.3,1.09-.54,0-1-.22-1.34-.57Z" />
                            <path class="cls-8" d="M61.71,157.96v-1.8h.48v1.73c0,.53,.16,.75,.53,.75,.29,0,.49-.14,.76-.48v-2.01h.48v2.83h-.4l-.04-.44h-.02c-.26,.31-.55,.51-.93,.51-.6,0-.87-.39-.87-1.11Z" />
                            <path class="cls-8" d="M64.6,158.67l.24-.32c.25,.2,.5,.34,.84,.34,.37,0,.56-.2,.56-.44,0-.29-.33-.42-.65-.54-.4-.15-.84-.34-.84-.82,0-.45,.36-.8,.98-.8,.35,0,.66,.14,.88,.32l-.23,.31c-.2-.14-.4-.25-.65-.25-.36,0-.52,.19-.52,.41,0,.27,.31,.37,.63,.49,.41,.15,.86,.32,.86,.86,0,.46-.37,.84-1.03,.84-.4,0-.79-.17-1.06-.39Z" />
                            <path class="cls-8" d="M67.14,157.58c0-.95,.64-1.49,1.36-1.49,.37,0,.63,.15,.83,.33l-.25,.32c-.17-.15-.34-.25-.56-.25-.51,0-.89,.44-.89,1.09s.35,1.08,.88,1.08c.26,0,.49-.13,.67-.28l.21,.32c-.25,.23-.58,.36-.92,.36-.75,0-1.33-.54-1.33-1.48Z" />
                            <path class="cls-8" d="M70.01,156.16h.4l.04,.52h.02c.2-.36,.49-.59,.81-.59,.13,0,.21,.02,.3,.06l-.09,.42c-.1-.03-.16-.05-.27-.05-.24,0-.53,.17-.72,.65v1.82h-.48v-2.83Z" />
                            <path class="cls-8" d="M71.94,155.27c0-.19,.15-.31,.33-.31s.33,.12,.33,.31-.15,.31-.33,.31-.33-.13-.33-.31Zm.09,.89h.48v2.83h-.48v-2.83Z" />
                            <path class="cls-8" d="M73.46,156.16h.4l.04,.33h.02c.26-.21,.57-.4,.9-.4,.73,0,1.12,.57,1.12,1.44,0,.97-.58,1.53-1.23,1.53-.26,0-.52-.12-.79-.33v.49s.01,.96,.01,.96h-.48v-4.03Zm1.98,1.38c0-.62-.21-1.04-.75-1.04-.24,0-.48,.13-.76,.39v1.49c.26,.22,.5,.29,.69,.29,.47,0,.81-.42,.81-1.12Z" />
                            <path class="cls-8" d="M76.48,157.58c0-.95,.64-1.49,1.36-1.49,.37,0,.63,.15,.83,.33l-.25,.32c-.17-.15-.34-.25-.56-.25-.51,0-.89,.44-.89,1.09s.35,1.08,.88,1.08c.26,0,.49-.13,.67-.28l.21,.32c-.25,.23-.58,.36-.92,.36-.75,0-1.33-.54-1.33-1.48Z" />
                            <path class="cls-8" d="M79.26,155.27c0-.19,.15-.31,.33-.31s.33,.12,.33,.31-.15,.31-.33,.31-.33-.13-.33-.31Zm.09,.89h.48v2.83h-.48v-2.83Z" />
                            <path class="cls-8" d="M80.57,157.58c0-.95,.62-1.49,1.31-1.49s1.31,.54,1.31,1.49-.62,1.48-1.31,1.48-1.31-.54-1.31-1.48Zm2.13,0c0-.65-.33-1.09-.82-1.09s-.82,.44-.82,1.09,.33,1.08,.82,1.08,.82-.43,.82-1.08Z" />
                            <path class="cls-8" d="M83.93,156.16h.4l.04,.41h.02c.27-.27,.56-.48,.95-.48,.6,0,.87,.39,.87,1.11v1.8h-.48v-1.73c0-.53-.16-.75-.53-.75-.29,0-.49,.15-.77,.44v2.05h-.48v-2.83Z" />
                            <path class="cls-8" d="M86.91,157.58c0-.92,.62-1.49,1.27-1.49,.72,0,1.13,.52,1.13,1.33,0,.1,0,.2-.02,.27h-1.91c.03,.6,.4,.99,.94,.99,.27,0,.5-.09,.71-.23l.17,.31c-.25,.16-.55,.29-.94,.29-.76,0-1.36-.55-1.36-1.48Zm1.98-.23c0-.57-.26-.88-.7-.88-.4,0-.75,.32-.81,.88h1.51Z" />
                            <path class="cls-8" d="M89.69,158.67l.24-.32c.25,.2,.5,.34,.84,.34,.37,0,.56-.2,.56-.44,0-.29-.33-.42-.65-.54-.4-.15-.84-.34-.84-.82,0-.45,.36-.8,.98-.8,.35,0,.66,.14,.88,.32l-.23,.31c-.2-.14-.4-.25-.65-.25-.36,0-.52,.19-.52,.41,0,.27,.31,.37,.63,.49,.41,.15,.86,.32,.86,.86,0,.46-.37,.84-1.03,.84-.4,0-.79-.17-1.06-.39Z" />
                        </g>
                        <g>
                            <path class="cls-12" d="M184.51,158.39l.43-.56c.35,.32,.77,.61,1.41,.61,.68,0,1.19-.44,1.19-1.17s-.46-1.13-1.15-1.13c-.38,0-.61,.11-.96,.32l-.45-.27,.18-2.71h2.99v.73h-2.21l-.14,1.5c.26-.13,.5-.2,.83-.2,.99,0,1.81,.54,1.81,1.74s-.96,1.9-1.99,1.9c-.94,0-1.52-.37-1.94-.77Z" />
                            <path class="cls-12" d="M189.33,158.54l.49-.53c.22,.25,.58,.43,.94,.43,.8,0,1.45-.6,1.45-2.37,0-1.37-.46-2.03-1.2-2.03-.52,0-.94,.43-.94,1.14s.35,1.09,.99,1.09c.36,0,.79-.2,1.16-.74l.04,.64c-.35,.46-.89,.74-1.35,.74-1,0-1.67-.57-1.67-1.72,0-1.09,.8-1.8,1.76-1.8,1.14,0,2.05,.87,2.05,2.69,0,2.2-1.07,3.08-2.24,3.08-.66,0-1.14-.27-1.47-.61Z" />
                            <path class="cls-12" d="M193.9,158.47l.41-.59c.41,.32,.85,.56,1.38,.56,.63,0,.94-.31,.94-.82,0-1.28-2.5-1.05-2.5-2.72,0-.91,.68-1.52,1.69-1.52,.73,0,1.19,.3,1.58,.69l-.47,.5c-.34-.31-.61-.48-1.08-.48-.53,0-.85,.29-.85,.77,0,1.16,2.5,.88,2.5,2.7,0,.95-.69,1.59-1.82,1.59-.63,0-1.33-.28-1.78-.68Zm1.56-5.94h.63v1.16h-.63v-1.16Zm0,6.3h.63v1.18h-.63v-1.18Z" />
                        </g>
                    </g>
                    <g>
                        <g>
                            <path class="cls-8" d="M58.41,174.93l.29-.33c.28,.29,.66,.47,1.06,.47,.5,0,.8-.25,.8-.62,0-.39-.28-.52-.64-.67l-.55-.24c-.36-.15-.77-.42-.77-.99s.51-1.02,1.2-1.02c.45,0,.86,.2,1.13,.47l-.26,.31c-.23-.22-.51-.36-.87-.36-.43,0-.71,.22-.71,.56,0,.37,.33,.51,.63,.63l.55,.24c.44,.19,.79,.45,.79,1.02,0,.6-.5,1.09-1.3,1.09-.54,0-1-.22-1.34-.57Z" />
                            <path class="cls-8" d="M61.54,174.01c0-.92,.62-1.49,1.27-1.49,.72,0,1.13,.52,1.13,1.33,0,.1,0,.2-.02,.27h-1.91c.03,.6,.4,.99,.94,.99,.27,0,.5-.09,.71-.23l.17,.31c-.25,.16-.55,.29-.94,.29-.76,0-1.36-.55-1.36-1.48Zm1.98-.23c0-.57-.26-.88-.7-.88-.4,0-.75,.32-.81,.88h1.51Z" />
                            <path class="cls-8" d="M64.63,172.59h.4l.04,.52h.02c.2-.36,.49-.59,.81-.59,.13,0,.21,.02,.3,.06l-.09,.42c-.1-.03-.16-.05-.27-.05-.24,0-.53,.17-.72,.65v1.82h-.48v-2.83Z" />
                            <path class="cls-8" d="M66.39,172.59h.49l.54,1.61c.08,.28,.18,.56,.26,.84h.02c.08-.27,.18-.56,.26-.84l.54-1.61h.47l-1,2.83h-.56l-1.02-2.83Z" />
                            <path class="cls-8" d="M69.43,171.7c0-.19,.15-.31,.33-.31s.33,.12,.33,.31-.15,.31-.33,.31-.33-.13-.33-.31Zm.09,.89h.48v2.83h-.48v-2.83Z" />
                            <path class="cls-8" d="M70.74,174.01c0-.95,.64-1.49,1.36-1.49,.37,0,.63,.15,.83,.33l-.25,.32c-.17-.15-.34-.25-.56-.25-.51,0-.89,.44-.89,1.09s.35,1.08,.88,1.08c.26,0,.49-.13,.67-.28l.21,.32c-.25,.23-.58,.36-.92,.36-.75,0-1.33-.54-1.33-1.48Z" />
                            <path class="cls-8" d="M73.52,171.7c0-.19,.15-.31,.33-.31s.33,.12,.33,.31-.15,.31-.33,.31-.33-.13-.33-.31Zm.09,.89h.48v2.83h-.48v-2.83Z" />
                            <path class="cls-8" d="M74.83,174.01c0-.95,.62-1.49,1.31-1.49s1.31,.54,1.31,1.49-.62,1.48-1.31,1.48-1.31-.54-1.31-1.48Zm2.13,0c0-.65-.33-1.09-.82-1.09s-.82,.44-.82,1.09,.33,1.08,.82,1.08,.82-.43,.82-1.08Z" />
                            <path class="cls-8" d="M77.87,175.1l.24-.32c.25,.2,.5,.34,.84,.34,.37,0,.56-.2,.56-.44,0-.29-.33-.42-.65-.54-.4-.15-.84-.34-.84-.82,0-.45,.36-.8,.98-.8,.35,0,.66,.14,.88,.32l-.23,.31c-.2-.14-.4-.25-.65-.25-.36,0-.52,.19-.52,.41,0,.27,.31,.37,.63,.49,.41,.15,.86,.32,.86,.86,0,.46-.37,.84-1.03,.84-.4,0-.79-.17-1.06-.39Z" />
                        </g>
                        <g>
                            <path class="cls-12" d="M187.03,171.88c0-.31,.03-.8,.05-1.11h-.04c-.15,.28-.31,.54-.47,.82l-1.2,1.73h3.27v.68h-4.17v-.58l2.38-3.5h1.03v5.56h-.84v-3.6Z" />
                            <path class="cls-12" d="M189.57,174.77h1.31v-3.87h-1.06v-.55c.55-.1,.94-.23,1.28-.43h.68v4.85h1.17v.71h-3.37v-.71Z" />
                            <path class="cls-12" d="M193.9,174.9l.41-.59c.41,.32,.85,.56,1.38,.56,.63,0,.94-.31,.94-.82,0-1.28-2.5-1.05-2.5-2.72,0-.91,.68-1.52,1.69-1.52,.73,0,1.19,.3,1.58,.69l-.47,.5c-.34-.31-.61-.48-1.08-.48-.53,0-.85,.29-.85,.77,0,1.16,2.5,.88,2.5,2.7,0,.95-.69,1.59-1.82,1.59-.63,0-1.33-.28-1.78-.68Zm1.56-5.94h.63v1.16h-.63v-1.16Zm0,6.3h.63v1.18h-.63v-1.18Z" />
                        </g>
                    </g>
                    <g>
                        <g>
                            <path class="cls-8" d="M58.46,124.23c0-1.23,.73-1.99,1.7-1.99,.46,0,.83,.23,1.05,.47l-.27,.32c-.2-.21-.45-.36-.78-.36-.72,0-1.2,.59-1.2,1.55s.46,1.56,1.18,1.56c.37,0,.64-.16,.89-.43l.27,.31c-.3,.35-.68,.55-1.17,.55-.95,0-1.67-.74-1.67-1.98Z" />
                            <path class="cls-8" d="M61.75,124.73c0-.95,.62-1.49,1.31-1.49s1.31,.54,1.31,1.49-.62,1.48-1.31,1.48-1.31-.54-1.31-1.48Zm2.13,0c0-.65-.33-1.09-.82-1.09s-.82,.44-.82,1.09,.33,1.08,.82,1.08,.82-.43,.82-1.08Z" />
                            <path class="cls-8" d="M65.12,123.31h.4l.04,.41h.02c.25-.27,.54-.48,.88-.48,.43,0,.67,.21,.78,.54,.29-.32,.59-.54,.93-.54,.58,0,.86,.39,.86,1.11v1.8h-.48v-1.73c0-.53-.17-.75-.53-.75-.22,0-.45,.14-.71,.44v2.05h-.48v-1.73c0-.53-.17-.75-.53-.75-.21,0-.45,.14-.71,.44v2.05h-.48v-2.83Z" />
                            <path class="cls-8" d="M69.94,123.31h.4l.04,.33h.02c.26-.21,.57-.4,.9-.4,.73,0,1.12,.57,1.12,1.44,0,.97-.58,1.53-1.23,1.53-.26,0-.52-.12-.79-.33v.49s.01,.96,.01,.96h-.48v-4.03Zm1.98,1.38c0-.62-.21-1.04-.75-1.04-.24,0-.48,.13-.76,.39v1.49c.26,.22,.5,.29,.69,.29,.47,0,.81-.42,.81-1.12Z" />
                            <path class="cls-8" d="M73.17,123.31h.4l.04,.52h.02c.2-.36,.49-.59,.81-.59,.13,0,.21,.02,.3,.06l-.09,.42c-.1-.03-.16-.05-.27-.05-.24,0-.53,.17-.72,.65v1.82h-.48v-2.83Z" />
                            <path class="cls-8" d="M74.88,125.41c0-.62,.53-.93,1.74-1.06,0-.36-.12-.72-.58-.72-.33,0-.62,.16-.85,.3l-.19-.33c.26-.17,.66-.37,1.11-.37,.69,0,.98,.46,.98,1.17v1.74h-.4l-.04-.34h-.02c-.27,.22-.59,.41-.94,.41-.47,0-.83-.29-.83-.81Zm1.74,.04v-.79c-.95,.11-1.27,.35-1.27,.71,0,.32,.22,.45,.5,.45s.5-.13,.77-.38Z" />
                            <path class="cls-8" d="M77.67,125.82l.24-.32c.25,.2,.5,.34,.84,.34,.37,0,.56-.2,.56-.44,0-.29-.33-.42-.65-.54-.4-.15-.84-.34-.84-.82,0-.45,.36-.8,.98-.8,.35,0,.66,.14,.88,.32l-.23,.31c-.2-.14-.4-.25-.65-.25-.36,0-.52,.19-.52,.41,0,.27,.31,.37,.63,.49,.41,.15,.86,.32,.86,.86,0,.46-.37,.84-1.03,.84-.4,0-.79-.17-1.06-.39Z" />
                            <path class="cls-8" d="M81.39,124.73c0-.92,.58-1.49,1.23-1.49,.33,0,.55,.12,.79,.33l-.02-.49v-1.09h.48v4.15h-.4l-.04-.33h-.02c-.22,.22-.52,.4-.86,.4-.71,0-1.17-.54-1.17-1.48Zm2,.69v-1.48c-.24-.22-.46-.29-.69-.29-.45,0-.81,.44-.81,1.08,0,.68,.28,1.08,.78,1.08,.26,0,.49-.13,.73-.39Z" />
                            <path class="cls-8" d="M84.61,124.73c0-.92,.62-1.49,1.27-1.49,.72,0,1.13,.52,1.13,1.33,0,.1,0,.2-.02,.27h-1.91c.03,.6,.4,.99,.94,.99,.27,0,.5-.09,.71-.23l.17,.31c-.25,.16-.55,.29-.94,.29-.76,0-1.36-.55-1.36-1.48Zm1.98-.23c0-.57-.26-.88-.7-.88-.4,0-.75,.32-.81,.88h1.51Z" />
                            <path class="cls-8" d="M89.32,125.85h-.02l-.04,.29h-.38v-4.15h.48v1.14l-.02,.51c.26-.22,.57-.39,.89-.39,.73,0,1.13,.57,1.13,1.44,0,.97-.58,1.53-1.23,1.53-.26,0-.56-.14-.81-.36Zm1.54-1.16c0-.62-.21-1.04-.75-1.04-.24,0-.49,.13-.76,.39v1.49c.25,.22,.5,.29,.69,.29,.47,0,.81-.42,.81-1.12Z" />
                            <path class="cls-8" d="M91.88,124.73c0-.92,.62-1.49,1.27-1.49,.72,0,1.13,.52,1.13,1.33,0,.1,0,.2-.02,.27h-1.91c.03,.6,.4,.99,.94,.99,.27,0,.5-.09,.71-.23l.17,.31c-.25,.16-.55,.29-.94,.29-.76,0-1.36-.55-1.36-1.48Zm1.98-.23c0-.57-.26-.88-.7-.88-.4,0-.75,.32-.81,.88h1.51Z" />
                            <path class="cls-8" d="M94.73,125.41c0-.62,.53-.93,1.74-1.06,0-.36-.12-.72-.58-.72-.33,0-.62,.16-.85,.3l-.19-.33c.26-.17,.66-.37,1.11-.37,.69,0,.98,.46,.98,1.17v1.74h-.4l-.04-.34h-.02c-.27,.22-.59,.41-.94,.41-.47,0-.83-.29-.83-.81Zm1.74,.04v-.79c-.95,.11-1.27,.35-1.27,.71,0,.32,.22,.45,.5,.45s.5-.13,.77-.38Z" />
                            <path class="cls-8" d="M97.84,125.27v-1.57h-.42v-.36l.44-.03,.06-.79h.4v.79h.77v.39h-.77v1.58c0,.35,.11,.55,.44,.55,.1,0,.23-.04,.32-.08l.09,.36c-.16,.05-.35,.1-.53,.1-.6,0-.81-.38-.81-.95Z" />
                            <path class="cls-8" d="M99.35,125.82l.24-.32c.25,.2,.5,.34,.84,.34,.37,0,.56-.2,.56-.44,0-.29-.33-.42-.65-.54-.4-.15-.84-.34-.84-.82,0-.45,.36-.8,.98-.8,.35,0,.66,.14,.88,.32l-.23,.31c-.2-.14-.4-.25-.65-.25-.36,0-.52,.19-.52,.41,0,.27,.31,.37,.63,.49,.41,.15,.86,.32,.86,.86,0,.46-.37,.84-1.03,.84-.4,0-.79-.17-1.06-.39Z" />
                        </g>
                        <g>
                            <path class="cls-12" d="M180.4,125.48h1.31v-3.87h-1.06v-.55c.55-.1,.94-.23,1.28-.43h.68v4.85h1.17v.71h-3.37v-.71Z" />
                            <path class="cls-12" d="M184.67,124.77c0-.71,.52-1.18,1.07-1.46v-.04c-.44-.3-.8-.71-.8-1.29,0-.88,.72-1.45,1.69-1.45,1.02,0,1.67,.61,1.67,1.49,0,.57-.42,1.05-.79,1.31v.03c.53,.29,1,.69,1,1.44,0,.85-.76,1.5-1.91,1.5s-1.93-.64-1.93-1.53Zm2.99,0c0-.66-.67-.9-1.48-1.22-.41,.27-.72,.66-.72,1.13,0,.58,.5,.99,1.15,.99,.62,0,1.04-.35,1.04-.9Zm-.12-2.7c0-.52-.34-.92-.93-.92-.49,0-.86,.32-.86,.83,0,.61,.58,.87,1.25,1.13,.35-.32,.54-.66,.54-1.04Z" />
                            <path class="cls-12" d="M189.23,125.69c1.67-1.58,2.67-2.57,2.67-3.45,0-.61-.35-1.02-1.03-1.02-.47,0-.86,.29-1.18,.64l-.51-.48c.51-.53,1.03-.85,1.8-.85,1.09,0,1.78,.66,1.78,1.67s-.97,2.04-2.23,3.31c.31-.03,.68-.05,.97-.05h1.54v.73h-3.82v-.5Z" />
                            <path class="cls-12" d="M193.9,125.62l.41-.59c.41,.32,.85,.56,1.38,.56,.63,0,.94-.31,.94-.82,0-1.28-2.5-1.05-2.5-2.72,0-.91,.68-1.52,1.69-1.52,.73,0,1.19,.3,1.58,.69l-.47,.5c-.34-.31-.61-.48-1.08-.48-.53,0-.85,.29-.85,.77,0,1.16,2.5,.88,2.5,2.7,0,.95-.69,1.59-1.82,1.59-.63,0-1.33-.28-1.78-.68Zm1.56-5.94h.63v1.16h-.63v-1.16Zm0,6.3h.63v1.18h-.63v-1.18Z" />
                        </g>
                    </g>
                    <g>
                        <rect class="cls-10" x="49.69" y="196.65" width="159.2" height="117.34" rx="5.37" ry="5.37" />
                        <path class="cls-9" d="M203.52,314.23H55.06c-3.1,0-5.62-2.52-5.62-5.62v-106.59c0-3.1,2.52-5.62,5.62-5.62H203.52c3.1,0,5.62,2.52,5.62,5.62v106.59c0,3.1-2.52,5.62-5.62,5.62ZM55.06,196.9c-2.83,0-5.12,2.3-5.12,5.12v106.59c0,2.82,2.3,5.12,5.12,5.12H203.52c2.83,0,5.12-2.3,5.12-5.12v-106.59c0-2.83-2.3-5.12-5.12-5.12H55.06Z" />
                    </g>
                    <g>
                        <path class="cls-12" d="M61.56,211.11h1.4c.91,0,1.56,.33,1.56,1.25s-.65,1.32-1.56,1.32h-.83v1.88h-.57v-4.46Zm1.31,2.11c.69,0,1.08-.28,1.08-.86s-.38-.79-1.08-.79h-.75v1.65h.75Zm-.03,.3l.44-.29,1.36,2.33h-.64l-1.16-2.04Z" />
                        <path class="cls-12" d="M65.06,213.92c0-1.07,.72-1.74,1.48-1.74,.84,0,1.32,.6,1.32,1.55,0,.12-.01,.24-.03,.32h-2.22c.04,.7,.47,1.15,1.1,1.15,.32,0,.58-.1,.82-.26l.2,.37c-.29,.19-.64,.34-1.09,.34-.88,0-1.58-.64-1.58-1.73Zm2.31-.27c0-.66-.3-1.02-.81-1.02-.46,0-.88,.37-.95,1.02h1.76Z" />
                        <path class="cls-12" d="M68.67,212.27h.46l.05,.38h.02c.3-.25,.67-.46,1.05-.46,.85,0,1.31,.66,1.31,1.68,0,1.12-.68,1.78-1.43,1.78-.3,0-.61-.14-.92-.38v.58s.01,1.12,.01,1.12h-.56v-4.69Zm2.31,1.61c0-.73-.25-1.22-.87-1.22-.28,0-.56,.15-.88,.45v1.73c.3,.25,.59,.34,.8,.34,.55,0,.95-.49,.95-1.31Z" />
                        <path class="cls-12" d="M72.44,212.27h.46l.05,.6h.02c.23-.42,.57-.68,.94-.68,.15,0,.25,.02,.35,.07l-.1,.49c-.11-.04-.19-.05-.32-.05-.28,0-.61,.2-.83,.76v2.12h-.56v-3.3Z" />
                        <path class="cls-12" d="M74.48,213.92c0-1.1,.72-1.74,1.53-1.74s1.53,.63,1.53,1.74-.72,1.73-1.53,1.73-1.53-.63-1.53-1.73Zm2.48,0c0-.76-.38-1.27-.95-1.27s-.95,.51-.95,1.27,.38,1.26,.95,1.26,.95-.51,.95-1.26Z" />
                        <path class="cls-12" d="M78.18,213.92c0-1.07,.68-1.74,1.43-1.74,.38,0,.64,.14,.92,.38l-.02-.57v-1.27h.56v4.84h-.46l-.05-.39h-.02c-.26,.26-.61,.47-1,.47-.82,0-1.36-.63-1.36-1.73Zm2.33,.81v-1.73c-.28-.25-.54-.34-.81-.34-.53,0-.95,.51-.95,1.26,0,.79,.33,1.26,.91,1.26,.31,0,.57-.15,.85-.45Z" />
                        <path class="cls-12" d="M82.14,214.36v-2.09h.56v2.02c0,.61,.19,.88,.62,.88,.34,0,.57-.17,.88-.56v-2.34h.56v3.3h-.46l-.05-.52h-.02c-.31,.36-.64,.6-1.09,.6-.7,0-1.01-.45-1.01-1.29Z" />
                        <path class="cls-12" d="M85.63,213.92c0-1.1,.74-1.74,1.59-1.74,.43,0,.73,.18,.97,.39l-.29,.37c-.19-.17-.4-.29-.65-.29-.6,0-1.04,.51-1.04,1.27s.41,1.26,1.02,1.26c.3,0,.57-.15,.77-.33l.24,.37c-.3,.26-.67,.42-1.07,.42-.88,0-1.55-.63-1.55-1.73Z" />
                        <path class="cls-12" d="M88.58,213.92c0-1.1,.74-1.74,1.59-1.74,.43,0,.73,.18,.97,.39l-.29,.37c-.19-.17-.4-.29-.65-.29-.6,0-1.04,.51-1.04,1.27s.41,1.26,1.02,1.26c.3,0,.57-.15,.77-.33l.24,.37c-.3,.26-.67,.42-1.07,.42-.88,0-1.55-.63-1.55-1.73Z" />
                        <path class="cls-12" d="M91.82,211.23c0-.22,.17-.36,.39-.36s.39,.14,.39,.36-.17,.36-.39,.36-.39-.15-.39-.36Zm.1,1.04h.56v3.3h-.56v-3.3Z" />
                        <path class="cls-12" d="M93.35,213.92c0-1.1,.72-1.74,1.53-1.74s1.53,.63,1.53,1.74-.72,1.73-1.53,1.73-1.53-.63-1.53-1.73Zm2.48,0c0-.76-.38-1.27-.95-1.27s-.95,.51-.95,1.27,.38,1.26,.95,1.26,.95-.51,.95-1.26Z" />
                        <path class="cls-12" d="M97.28,212.27h.46l.05,.48h.02c.31-.31,.65-.56,1.11-.56,.7,0,1.01,.45,1.01,1.29v2.09h-.56v-2.02c0-.62-.19-.88-.62-.88-.34,0-.57,.17-.9,.51v2.39h-.56v-3.3Z" />
                        <path class="cls-12" d="M100.75,213.92c0-1.07,.72-1.74,1.48-1.74,.84,0,1.32,.6,1.32,1.55,0,.12-.01,.24-.03,.32h-2.22c.04,.7,.47,1.15,1.1,1.15,.32,0,.58-.1,.82-.26l.2,.37c-.29,.19-.64,.34-1.09,.34-.88,0-1.58-.64-1.58-1.73Zm2.31-.27c0-.66-.3-1.02-.81-1.02-.46,0-.88,.37-.95,1.02h1.76Z" />
                        <path class="cls-12" d="M104,215.19l.28-.37c.29,.23,.58,.39,.97,.39,.43,0,.65-.23,.65-.51,0-.34-.39-.49-.75-.63-.46-.17-.98-.4-.98-.95,0-.53,.42-.94,1.14-.94,.41,0,.77,.17,1.03,.37l-.27,.36c-.23-.17-.46-.29-.75-.29-.42,0-.61,.22-.61,.47,0,.31,.36,.43,.73,.57,.48,.18,1.01,.37,1.01,1,0,.54-.43,.98-1.2,.98-.47,0-.92-.2-1.23-.46Z" />
                    </g>
                    <g>
                        <path class="cls-8" d="M60.95,219.31h2.21v.41h-1.72v1.2h1.45v.41h-1.45v1.39h1.78v.41h-2.26v-3.83Z" />
                        <path class="cls-8" d="M63.97,220.31h.4l.04,.41h.02c.27-.27,.56-.48,.95-.48,.6,0,.87,.39,.87,1.11v1.8h-.48v-1.73c0-.53-.16-.75-.53-.75-.29,0-.49,.15-.77,.44v2.05h-.48v-2.83Z" />
                        <path class="cls-8" d="M68.32,222.57v-3.58h.48v3.62c0,.15,.06,.21,.13,.21,.03,0,.05,0,.1-.01l.06,.37c-.07,.02-.15,.04-.28,.04-.36,0-.51-.23-.51-.64Z" />
                        <path class="cls-8" d="M69.6,221.73c0-.95,.62-1.49,1.31-1.49s1.31,.54,1.31,1.49-.62,1.48-1.31,1.48-1.31-.54-1.31-1.48Zm2.13,0c0-.65-.33-1.09-.82-1.09s-.82,.44-.82,1.09,.33,1.08,.82,1.08,.82-.43,.82-1.08Z" />
                        <path class="cls-8" d="M72.64,222.82l.24-.32c.25,.2,.5,.34,.84,.34,.37,0,.56-.2,.56-.44,0-.29-.33-.42-.65-.54-.4-.15-.84-.34-.84-.82,0-.45,.36-.8,.98-.8,.35,0,.66,.14,.88,.32l-.23,.31c-.2-.14-.4-.25-.65-.25-.36,0-.52,.19-.52,.41,0,.27,.31,.37,.63,.49,.41,.15,.86,.32,.86,.86,0,.46-.37,.84-1.03,.84-.4,0-.79-.17-1.06-.39Z" />
                        <path class="cls-8" d="M76.51,222.1v-1.8h.48v1.73c0,.53,.16,.75,.53,.75,.29,0,.49-.14,.76-.48v-2.01h.48v2.83h-.4l-.04-.44h-.02c-.26,.31-.55,.51-.93,.51-.6,0-.87-.39-.87-1.11Z" />
                        <path class="cls-8" d="M79.72,222.57v-3.58h.48v3.62c0,.15,.06,.21,.13,.21,.03,0,.05,0,.1-.01l.06,.37c-.07,.02-.15,.04-.28,.04-.36,0-.51-.23-.51-.64Z" />
                        <path class="cls-8" d="M81.29,222.26v-1.57h-.42v-.36l.44-.03,.06-.79h.4v.79h.77v.39h-.77v1.58c0,.35,.11,.55,.44,.55,.1,0,.23-.04,.32-.08l.09,.36c-.16,.05-.35,.1-.53,.1-.6,0-.81-.38-.81-.95Z" />
                        <path class="cls-8" d="M83.08,219.41c0-.19,.15-.31,.33-.31s.33,.12,.33,.31-.15,.31-.33,.31-.33-.13-.33-.31Zm.09,.89h.48v2.83h-.48v-2.83Z" />
                        <path class="cls-8" d="M84.6,220.31h.4l.04,.41h.02c.25-.27,.54-.48,.88-.48,.43,0,.67,.21,.78,.54,.29-.32,.59-.54,.93-.54,.58,0,.86,.39,.86,1.11v1.8h-.48v-1.73c0-.53-.17-.75-.53-.75-.22,0-.45,.14-.71,.44v2.05h-.48v-1.73c0-.53-.17-.75-.53-.75-.21,0-.45,.14-.71,.44v2.05h-.48v-2.83Z" />
                        <path class="cls-8" d="M89.22,221.73c0-.95,.62-1.49,1.31-1.49s1.31,.54,1.31,1.49-.62,1.48-1.31,1.48-1.31-.54-1.31-1.48Zm2.13,0c0-.65-.33-1.09-.82-1.09s-.82,.44-.82,1.09,.33,1.08,.82,1.08,.82-.43,.82-1.08Z" />
                        <path class="cls-8" d="M92.26,222.82l.24-.32c.25,.2,.5,.34,.84,.34,.37,0,.56-.2,.56-.44,0-.29-.33-.42-.65-.54-.4-.15-.84-.34-.84-.82,0-.45,.36-.8,.98-.8,.35,0,.66,.14,.88,.32l-.23,.31c-.2-.14-.4-.25-.65-.25-.36,0-.52,.19-.52,.41,0,.27,.31,.37,.63,.49,.41,.15,.86,.32,.86,.86,0,.46-.37,.84-1.03,.84-.4,0-.79-.17-1.06-.39Z" />
                        <path class="cls-8" d="M95.85,222.68l.24-.31c.22,.23,.51,.44,.95,.44s.77-.26,.77-.68c0-.44-.3-.74-1.19-.74v-.37c.79,0,1.05-.3,1.05-.69,0-.36-.25-.59-.64-.59-.31,0-.57,.16-.79,.38l-.26-.3c.29-.27,.63-.46,1.07-.46,.65,0,1.11,.34,1.11,.94,0,.45-.27,.73-.68,.88v.02c.45,.11,.81,.43,.81,.94,0,.66-.55,1.06-1.23,1.06-.6,0-.97-.25-1.22-.52Z" />
                        <path class="cls-8" d="M98.85,221.27c0-1.25,.45-1.92,1.19-1.92s1.19,.67,1.19,1.92-.45,1.94-1.19,1.94-1.19-.7-1.19-1.94Zm1.92,0c0-1.09-.29-1.53-.73-1.53s-.73,.44-.73,1.53,.29,1.56,.73,1.56,.73-.47,.73-1.56Z" />
                        <path class="cls-8" d="M102.93,221.73c0-.92,.58-1.49,1.23-1.49,.33,0,.55,.12,.79,.33l-.02-.49v-1.09h.48v4.15h-.4l-.04-.33h-.02c-.22,.22-.52,.4-.86,.4-.71,0-1.17-.54-1.17-1.48Zm2,.69v-1.48c-.24-.22-.46-.29-.69-.29-.45,0-.81,.44-.81,1.08,0,.68,.28,1.08,.78,1.08,.26,0,.49-.13,.73-.39Z" />
                        <path class="cls-8" d="M106.27,219.41c0-.19,.15-.31,.33-.31s.33,.12,.33,.31-.15,.31-.33,.31-.33-.13-.33-.31Zm.09,.89h.48v2.83h-.48v-2.83Z" />
                        <path class="cls-8" d="M107.62,222.4c0-.62,.53-.93,1.74-1.06,0-.36-.12-.72-.58-.72-.33,0-.62,.16-.85,.3l-.19-.33c.26-.17,.66-.37,1.11-.37,.69,0,.98,.46,.98,1.17v1.74h-.4l-.04-.34h-.02c-.27,.22-.59,.41-.94,.41-.47,0-.83-.29-.83-.81Zm1.74,.04v-.79c-.95,.11-1.27,.35-1.27,.71,0,.32,.22,.45,.5,.45s.5-.13,.77-.38Z" />
                        <path class="cls-8" d="M110.41,222.82l.24-.32c.25,.2,.5,.34,.84,.34,.37,0,.56-.2,.56-.44,0-.29-.33-.42-.65-.54-.4-.15-.84-.34-.84-.82,0-.45,.36-.8,.98-.8,.35,0,.66,.14,.88,.32l-.23,.31c-.2-.14-.4-.25-.65-.25-.36,0-.52,.19-.52,.41,0,.27,.31,.37,.63,.49,.41,.15,.86,.32,.86,.86,0,.46-.37,.84-1.03,.84-.4,0-.79-.17-1.06-.39Z" />
                    </g>
                    <g>
                        <path class="cls-12" d="M165.33,219.39c0-.48,.04-1.23,.07-1.71h-.05c-.21,.43-.45,.84-.68,1.28l-1.37,2.07h4.6v1.22h-6.22v-1.09l3.22-4.92h1.98v8.02h-1.55v-4.88Z" />
                        <path class="cls-12" d="M168.53,223.3l.76-1.01c.5,.45,1.1,.84,1.9,.84,.91,0,1.54-.52,1.54-1.44s-.59-1.41-1.46-1.41c-.51,0-.8,.12-1.3,.44l-.77-.48,.24-3.99h4.55v1.34h-3.12l-.16,1.79c.34-.15,.64-.23,1.04-.23,1.44,0,2.63,.78,2.63,2.5s-1.41,2.78-2.98,2.78c-1.36,0-2.25-.51-2.88-1.12Z" />
                        <path class="cls-12" d="M175.84,223.38c0-.6,.45-1.05,1.04-1.05s1.04,.45,1.04,1.05-.45,1.04-1.04,1.04-1.04-.45-1.04-1.04Z" />
                        <path class="cls-12" d="M179.24,223.35c2.25-2.08,3.72-3.48,3.72-4.68,0-.82-.47-1.32-1.31-1.32-.63,0-1.14,.4-1.58,.86l-.91-.87c.78-.81,1.55-1.25,2.71-1.25,1.61,0,2.68,.99,2.68,2.49,0,1.4-1.35,2.86-2.92,4.42,.44-.04,1-.08,1.4-.08h1.92v1.34h-5.71v-.92Z" />
                        <path class="cls-12" d="M186.49,222.98h1.85v-5.05h-1.55v-.99c.85-.15,1.43-.36,1.97-.68h1.23v6.73h1.61v1.29h-5.12v-1.29Z" />
                        <path class="cls-12" d="M192.85,220.23c0-2.72,1.13-4.13,2.88-4.13s2.88,1.42,2.88,4.13-1.13,4.2-2.88,4.2-2.88-1.48-2.88-4.2Zm4.2,0c0-2.24-.56-2.89-1.31-2.89s-1.31,.65-1.31,2.89,.56,2.96,1.31,2.96,1.31-.71,1.31-2.96Z" />
                    </g>
                    <g class="cls-4">
                        <g>
                            <polygon class="cls-1" points="57.48 243.83 93.33 253.14 121.75 246.16 146.48 253.14 172.91 245.13 187.39 240.1 198.05 237.52 198.05 282.95 57.48 282.95 57.48 243.83" />
                            <polygon class="cls-11" points="146.48 253.66 146.34 253.62 121.74 246.67 93.33 253.66 57.35 244.31 57.6 243.34 93.34 252.63 121.76 245.64 121.89 245.67 146.47 252.62 197.9 237.04 198.19 238 146.48 253.66" />
                        </g>
                    </g>
                    <g class="cls-7">
                        <rect class="cls-3" x="59.67" y="257.53" width="136.69" height="1" />
                    </g>
                    <g class="cls-7">
                        <rect class="cls-3" x="59.67" y="245.07" width="136.69" height="1" />
                    </g>
                    <g class="cls-7">
                        <rect class="cls-3" x="59.67" y="232.62" width="136.69" height="1" />
                    </g>
                    <g>
                        <g>
                            <path class="cls-12" d="M58.16,86.22h.57v4.46h-.57v-4.46Z" />
                            <path class="cls-12" d="M59.89,87.38h.46l.05,.48h.02c.31-.31,.65-.56,1.11-.56,.7,0,1.01,.45,1.01,1.29v2.09h-.56v-2.02c0-.62-.19-.88-.62-.88-.34,0-.57,.17-.9,.51v2.39h-.56v-3.3Z" />
                            <path class="cls-12" d="M63.36,91.31c0-.28,.18-.55,.48-.75v-.03c-.17-.11-.29-.28-.29-.54,0-.27,.19-.49,.36-.61v-.03c-.22-.17-.43-.49-.43-.89,0-.72,.57-1.18,1.24-1.18,.18,0,.35,.04,.47,.08h1.15v.43h-.68c.16,.15,.27,.4,.27,.68,0,.71-.53,1.14-1.21,1.14-.16,0-.34-.04-.49-.11-.12,.1-.21,.21-.21,.39,0,.21,.14,.36,.58,.36h.64c.77,0,1.15,.24,1.15,.79,0,.61-.65,1.14-1.67,1.14-.81,0-1.37-.32-1.37-.89Zm2.49-.17c0-.31-.23-.41-.67-.41h-.57c-.13,0-.28-.01-.43-.05-.24,.17-.34,.36-.34,.55,0,.35,.36,.58,.96,.58,.63,0,1.04-.33,1.04-.67Zm-.42-2.67c0-.48-.31-.77-.7-.77s-.7,.29-.7,.77,.32,.78,.7,.78,.7-.3,.7-.78Z" />
                            <path class="cls-12" d="M67.03,87.38h.46l.05,.6h.02c.23-.42,.57-.68,.94-.68,.15,0,.25,.02,.35,.07l-.1,.49c-.11-.04-.19-.05-.32-.05-.28,0-.61,.2-.83,.76v2.12h-.56v-3.3Z" />
                            <path class="cls-12" d="M69.08,89.04c0-1.07,.72-1.74,1.48-1.74,.84,0,1.32,.6,1.32,1.55,0,.12-.01,.24-.03,.32h-2.22c.04,.7,.47,1.15,1.1,1.15,.32,0,.58-.1,.82-.26l.2,.37c-.29,.19-.64,.34-1.09,.34-.88,0-1.58-.64-1.58-1.73Zm2.31-.27c0-.66-.3-1.02-.81-1.02-.46,0-.88,.37-.95,1.02h1.76Z" />
                            <path class="cls-12" d="M72.32,90.3l.28-.37c.29,.23,.58,.39,.97,.39,.43,0,.65-.23,.65-.51,0-.34-.39-.49-.75-.63-.46-.17-.98-.4-.98-.95,0-.53,.42-.94,1.14-.94,.41,0,.77,.17,1.03,.37l-.27,.36c-.23-.17-.46-.29-.75-.29-.42,0-.61,.22-.61,.47,0,.31,.36,.43,.73,.57,.48,.18,1.01,.37,1.01,1,0,.54-.43,.98-1.2,.98-.47,0-.92-.2-1.23-.46Z" />
                            <path class="cls-12" d="M75.29,89.04c0-1.1,.72-1.74,1.53-1.74s1.53,.63,1.53,1.74-.72,1.73-1.53,1.73-1.53-.63-1.53-1.73Zm2.48,0c0-.76-.38-1.27-.95-1.27s-.95,.51-.95,1.27,.38,1.26,.95,1.26,.95-.51,.95-1.26Z" />
                            <path class="cls-12" d="M78.84,90.3l.28-.37c.29,.23,.58,.39,.97,.39,.43,0,.65-.23,.65-.51,0-.34-.39-.49-.75-.63-.46-.17-.98-.4-.98-.95,0-.53,.42-.94,1.14-.94,.41,0,.77,.17,1.03,.37l-.27,.36c-.23-.17-.46-.29-.75-.29-.42,0-.61,.22-.61,.47,0,.31,.36,.43,.73,.57,.48,.18,1.01,.37,1.01,1,0,.54-.43,.98-1.2,.98-.47,0-.92-.2-1.23-.46Z" />
                        </g>
                        <g>
                            <path class="cls-8" d="M58.16,94.43h2.21v.41h-1.72v1.2h1.45v.41h-1.45v1.39h1.78v.41h-2.26v-3.83Z" />
                            <path class="cls-8" d="M61.18,95.42h.4l.04,.41h.02c.27-.27,.56-.48,.95-.48,.6,0,.87,.39,.87,1.11v1.8h-.48v-1.73c0-.53-.16-.75-.53-.75-.29,0-.49,.15-.77,.44v2.05h-.48v-2.83Z" />
                            <path class="cls-8" d="M65.53,97.68v-3.58h.48v3.62c0,.15,.06,.21,.13,.21,.03,0,.05,0,.1-.01l.06,.37c-.07,.02-.15,.04-.28,.04-.36,0-.51-.23-.51-.64Z" />
                            <path class="cls-8" d="M66.81,96.84c0-.95,.62-1.49,1.31-1.49s1.31,.54,1.31,1.49-.62,1.48-1.31,1.48-1.31-.54-1.31-1.48Zm2.13,0c0-.65-.33-1.09-.82-1.09s-.82,.44-.82,1.09,.33,1.08,.82,1.08,.82-.43,.82-1.08Z" />
                            <path class="cls-8" d="M69.85,97.93l.24-.32c.25,.2,.5,.34,.84,.34,.37,0,.56-.2,.56-.44,0-.29-.33-.42-.65-.54-.4-.15-.84-.34-.84-.82,0-.45,.36-.8,.98-.8,.35,0,.66,.14,.88,.32l-.23,.31c-.2-.14-.4-.25-.65-.25-.36,0-.52,.19-.52,.41,0,.27,.31,.37,.63,.49,.41,.15,.86,.32,.86,.86,0,.46-.37,.84-1.03,.84-.4,0-.79-.17-1.06-.39Z" />
                            <path class="cls-8" d="M73.73,97.21v-1.8h.48v1.73c0,.53,.16,.75,.53,.75,.29,0,.49-.14,.76-.48v-2.01h.48v2.83h-.4l-.04-.44h-.02c-.26,.31-.55,.51-.93,.51-.6,0-.87-.39-.87-1.11Z" />
                            <path class="cls-8" d="M76.93,97.68v-3.58h.48v3.62c0,.15,.06,.21,.13,.21,.03,0,.05,0,.1-.01l.06,.37c-.07,.02-.15,.04-.28,.04-.36,0-.51-.23-.51-.64Z" />
                            <path class="cls-8" d="M78.5,97.38v-1.57h-.42v-.36l.44-.03,.06-.79h.4v.79h.77v.39h-.77v1.58c0,.35,.11,.55,.44,.55,.1,0,.23-.04,.32-.08l.09,.36c-.16,.05-.35,.1-.53,.1-.6,0-.81-.38-.81-.95Z" />
                            <path class="cls-8" d="M80.3,94.53c0-.19,.15-.31,.33-.31s.33,.12,.33,.31-.15,.31-.33,.31-.33-.13-.33-.31Zm.09,.89h.48v2.83h-.48v-2.83Z" />
                            <path class="cls-8" d="M81.82,95.42h.4l.04,.41h.02c.25-.27,.54-.48,.88-.48,.43,0,.67,.21,.78,.54,.29-.32,.59-.54,.93-.54,.58,0,.86,.39,.86,1.11v1.8h-.48v-1.73c0-.53-.17-.75-.53-.75-.22,0-.45,.14-.71,.44v2.05h-.48v-1.73c0-.53-.17-.75-.53-.75-.21,0-.45,.14-.71,.44v2.05h-.48v-2.83Z" />
                            <path class="cls-8" d="M86.43,96.84c0-.95,.62-1.49,1.31-1.49s1.31,.54,1.31,1.49-.62,1.48-1.31,1.48-1.31-.54-1.31-1.48Zm2.13,0c0-.65-.33-1.09-.82-1.09s-.82,.44-.82,1.09,.33,1.08,.82,1.08,.82-.43,.82-1.08Z" />
                            <path class="cls-8" d="M89.47,97.93l.24-.32c.25,.2,.5,.34,.84,.34,.37,0,.56-.2,.56-.44,0-.29-.33-.42-.65-.54-.4-.15-.84-.34-.84-.82,0-.45,.36-.8,.98-.8,.35,0,.66,.14,.88,.32l-.23,.31c-.2-.14-.4-.25-.65-.25-.36,0-.52,.19-.52,.41,0,.27,.31,.37,.63,.49,.41,.15,.86,.32,.86,.86,0,.46-.37,.84-1.03,.84-.4,0-.79-.17-1.06-.39Z" />
                            <path class="cls-8" d="M93.06,97.8l.24-.31c.22,.23,.51,.44,.95,.44s.77-.26,.77-.68c0-.44-.3-.74-1.19-.74v-.37c.79,0,1.05-.3,1.05-.69,0-.36-.25-.59-.64-.59-.31,0-.57,.16-.79,.38l-.26-.3c.29-.27,.63-.46,1.07-.46,.65,0,1.11,.34,1.11,.94,0,.45-.27,.73-.68,.88v.02c.45,.11,.81,.43,.81,.94,0,.66-.55,1.06-1.23,1.06-.6,0-.97-.25-1.22-.52Z" />
                            <path class="cls-8" d="M96.06,96.38c0-1.25,.45-1.92,1.19-1.92s1.19,.67,1.19,1.92-.45,1.94-1.19,1.94-1.19-.7-1.19-1.94Zm1.92,0c0-1.09-.29-1.53-.73-1.53s-.73,.44-.73,1.53,.29,1.56,.73,1.56,.73-.47,.73-1.56Z" />
                            <path class="cls-8" d="M100.14,96.84c0-.92,.58-1.49,1.23-1.49,.33,0,.55,.12,.79,.33l-.02-.49v-1.09h.48v4.15h-.4l-.04-.33h-.02c-.22,.22-.52,.4-.86,.4-.71,0-1.17-.54-1.17-1.48Zm2,.69v-1.48c-.24-.22-.46-.29-.69-.29-.45,0-.81,.44-.81,1.08,0,.68,.28,1.08,.78,1.08,.26,0,.49-.13,.73-.39Z" />
                            <path class="cls-8" d="M103.48,94.53c0-.19,.15-.31,.33-.31s.33,.12,.33,.31-.15,.31-.33,.31-.33-.13-.33-.31Zm.09,.89h.48v2.83h-.48v-2.83Z" />
                            <path class="cls-8" d="M104.83,97.52c0-.62,.53-.93,1.74-1.06,0-.36-.12-.72-.58-.72-.33,0-.62,.16-.85,.3l-.19-.33c.26-.17,.66-.37,1.11-.37,.69,0,.98,.46,.98,1.17v1.74h-.4l-.04-.34h-.02c-.27,.22-.59,.41-.94,.41-.47,0-.83-.29-.83-.81Zm1.74,.04v-.79c-.95,.11-1.27,.35-1.27,.71,0,.32,.22,.45,.5,.45s.5-.13,.77-.38Z" />
                            <path class="cls-8" d="M107.62,97.93l.24-.32c.25,.2,.5,.34,.84,.34,.37,0,.56-.2,.56-.44,0-.29-.33-.42-.65-.54-.4-.15-.84-.34-.84-.82,0-.45,.36-.8,.98-.8,.35,0,.66,.14,.88,.32l-.23,.31c-.2-.14-.4-.25-.65-.25-.36,0-.52,.19-.52,.41,0,.27,.31,.37,.63,.49,.41,.15,.86,.32,.86,.86,0,.46-.37,.84-1.03,.84-.4,0-.79-.17-1.06-.39Z" />
                        </g>
                    </g>
                </g>
                <g>
                    <path class="cls-12" d="M51.56,55.83h2.94v.55h-2.29v1.6h1.93v.55h-1.93v1.85h2.37v.55h-3.02v-5.1Z" />
                    <path class="cls-12" d="M55.17,60.49l.32-.42c.33,.26,.66,.45,1.11,.45,.5,0,.74-.26,.74-.59,0-.39-.45-.56-.86-.72-.53-.19-1.13-.45-1.13-1.09,0-.6,.48-1.07,1.3-1.07,.47,0,.88,.19,1.17,.42l-.31,.41c-.26-.19-.53-.34-.86-.34-.48,0-.69,.25-.69,.54,0,.36,.41,.5,.84,.65,.54,.21,1.15,.43,1.15,1.15,0,.61-.49,1.12-1.38,1.12-.54,0-1.05-.23-1.41-.52Z" />
                    <path class="cls-12" d="M58.8,59.76v-2.09h-.56v-.48l.59-.04,.08-1.06h.53v1.06h1.02v.52h-1.02v2.1c0,.46,.15,.73,.58,.73,.13,0,.31-.05,.43-.1l.12,.48c-.21,.07-.46,.14-.7,.14-.8,0-1.08-.51-1.08-1.26Z" />
                    <path class="cls-12" d="M60.92,59.95c0-.82,.71-1.23,2.32-1.41,0-.49-.16-.95-.78-.95-.44,0-.83,.21-1.13,.4l-.25-.44c.35-.23,.88-.49,1.48-.49,.92,0,1.31,.61,1.31,1.55v2.32h-.53l-.05-.45h-.02c-.36,.3-.78,.54-1.25,.54-.63,0-1.11-.39-1.11-1.07Zm2.32,.06v-1.05c-1.27,.15-1.69,.46-1.69,.94,0,.43,.29,.6,.66,.6s.67-.18,1.03-.5Z" />
                    <path class="cls-12" d="M64.8,59.04c0-1.22,.77-1.99,1.63-1.99,.44,0,.73,.17,1.06,.44l-.03-.65v-1.45h.64v5.53h-.53l-.05-.45h-.02c-.29,.29-.7,.54-1.15,.54-.94,0-1.55-.72-1.55-1.98Zm2.66,.92v-1.98c-.32-.29-.61-.39-.92-.39-.6,0-1.08,.58-1.08,1.44,0,.91,.38,1.44,1.04,1.44,.35,0,.65-.17,.97-.52Z" />
                    <path class="cls-12" d="M69.25,55.96c0-.25,.19-.41,.44-.41s.44,.16,.44,.41-.19,.41-.44,.41-.44-.17-.44-.41Zm.12,1.19h.64v3.78h-.64v-3.78Z" />
                    <path class="cls-12" d="M70.86,60.49l.32-.42c.33,.26,.66,.45,1.11,.45,.5,0,.74-.26,.74-.59,0-.39-.45-.56-.86-.72-.53-.19-1.13-.45-1.13-1.09,0-.6,.48-1.07,1.3-1.07,.47,0,.88,.19,1.17,.42l-.31,.41c-.26-.19-.53-.34-.86-.34-.48,0-.69,.25-.69,.54,0,.36,.41,.5,.84,.65,.54,.21,1.15,.43,1.15,1.15,0,.61-.49,1.12-1.38,1.12-.54,0-1.05-.23-1.41-.52Z" />
                    <path class="cls-12" d="M74.49,59.76v-2.09h-.56v-.48l.59-.04,.08-1.06h.53v1.06h1.02v.52h-1.02v2.1c0,.46,.15,.73,.58,.73,.13,0,.31-.05,.43-.1l.12,.48c-.21,.07-.46,.14-.7,.14-.8,0-1.08-.51-1.08-1.26Z" />
                    <path class="cls-12" d="M76.88,55.96c0-.25,.19-.41,.44-.41s.44,.16,.44,.41-.19,.41-.44,.41-.44-.17-.44-.41Zm.12,1.19h.64v3.78h-.64v-3.78Z" />
                    <path class="cls-12" d="M78.63,59.04c0-1.26,.85-1.99,1.82-1.99,.5,0,.84,.2,1.1,.44l-.33,.42c-.22-.2-.45-.33-.75-.33-.68,0-1.19,.59-1.19,1.45s.47,1.44,1.17,1.44c.34,0,.65-.17,.89-.38l.28,.43c-.34,.3-.77,.48-1.22,.48-1,0-1.77-.73-1.77-1.98Z" />
                    <path class="cls-12" d="M82.14,59.95c0-.82,.71-1.23,2.32-1.41,0-.49-.16-.95-.78-.95-.44,0-.83,.21-1.13,.4l-.25-.44c.35-.23,.88-.49,1.48-.49,.92,0,1.31,.61,1.31,1.55v2.32h-.53l-.05-.45h-.02c-.36,.3-.78,.54-1.25,.54-.63,0-1.11-.39-1.11-1.07Zm2.32,.06v-1.05c-1.27,.15-1.69,.46-1.69,.94,0,.43,.29,.6,.66,.6s.67-.18,1.03-.5Z" />
                    <path class="cls-12" d="M85.87,60.49l.32-.42c.33,.26,.66,.45,1.11,.45,.5,0,.74-.26,.74-.59,0-.39-.45-.56-.86-.72-.53-.19-1.13-.45-1.13-1.09,0-.6,.48-1.07,1.3-1.07,.47,0,.88,.19,1.17,.42l-.31,.41c-.26-.19-.53-.34-.86-.34-.48,0-.69,.25-.69,.54,0,.36,.41,.5,.84,.65,.54,.21,1.15,.43,1.15,1.15,0,.61-.49,1.12-1.38,1.12-.54,0-1.05-.23-1.41-.52Z" />
                </g>
            </g>
            <path class="cls-2" d="M156.64,92.17h-.43v.87h1.94l-2.85,2.85-1.32-1.32c-.23-.23-.59-.23-.82,0l-2.35,2.35-.31,.31,.61,.61,.31-.31,2.15-2.15,1.32,1.32c.23,.23,.59,.23,.82,0l3.06-3.06v1.94h.87v-2.85c0-.32-.26-.58-.58-.58h-2.41Z" />
        </g>
    </g>
</svg>