<?xml version="1.0" encoding="UTF-8"?>
<svg id="uuid-0fc07948-5286-4f88-9319-081643bbeb30" data-name="Capa 2" xmlns="http://www.w3.org/2000/svg" xmlns:xlink="http://www.w3.org/1999/xlink" viewBox="0 0 267 267">
  <defs>
    <style>
      .uuid-8c6e6202-e012-47fe-a40e-9c0905b42ba9 {
        fill: #fff;
      }

      .uuid-eb8f167d-b4d6-4a12-97e5-545f47ebce5e {
        fill: #0c0c0c;
      }

      .uuid-6deb93fa-a215-4406-ab3e-47e72aadabfb {
        clip-path: url(#uuid-df02e50a-03c6-48e4-a471-22e236344b11);
      }

      .uuid-2ddf9008-8b6c-4d66-a0b2-3f7051755a6b {
        fill: #d43333;
      }

      .uuid-3b30db01-162c-4acb-bc4a-99ac41b411ea {
        fill: none;
      }

      .uuid-0df448c6-ea84-42a7-a5bb-8b28ad4f59b9 {
        fill: #050505;
      }

      .uuid-bfd1055e-45aa-495f-a9bd-06f76f6819cd {
        fill: #ededed;
      }
    </style>
    <clipPath id="uuid-df02e50a-03c6-48e4-a471-22e236344b11">
      <rect class="uuid-3b30db01-162c-4acb-bc4a-99ac41b411ea" width="267" height="267"/>
    </clipPath>
  </defs>
  <g id="uuid-7d262dbe-2610-400b-b1a0-90d5f474f257" data-name="logos">
    <g class="uuid-6deb93fa-a215-4406-ab3e-47e72aadabfb">
      <g>
        <path class="uuid-eb8f167d-b4d6-4a12-97e5-545f47ebce5e" d="m290.28,84.77H114.97c-19.04,0-34.47,15.43-34.47,34.47v151.08h209.78V84.77Z"/>
        <path class="uuid-2ddf9008-8b6c-4d66-a0b2-3f7051755a6b" d="m77.07,270.31h-13.35v-141.17c0-31.94,25.7-57.82,57.41-57.82h170.37v13.45H121.13c-24.33,0-44.06,19.87-44.06,44.38v141.17Z"/>
        <path class="uuid-0df448c6-ea84-42a7-a5bb-8b28ad4f59b9" d="m72.02,270.31v-137.9c0-29.6,23.94-53.69,53.37-53.69h166.55v10.85H125.39c-23.48,0-42.59,19.22-42.59,42.84v137.9h-10.78Z"/>
        <rect x="110.05" y="157.07" width="60.34" height="60.78" rx="7.44" ry="7.44"/>
        <rect x="193.99" y="157.07" width="60.34" height="60.78" rx="7.44" ry="7.44"/>
        <path class="uuid-bfd1055e-45aa-495f-a9bd-06f76f6819cd" d="m144.02,193.24h9.71v3.11h-9.85l3.83,3.81-2.2,2.21-3.68-3.72v3.82h-3.08v-3.88l-3.75,3.8-2.2-2.24,3.78-3.77h-9.74v-3.11h9.51c-3.31-3.32-6.6-6.64-9.89-9.94l2.25-2.25c3.3,3.33,6.63,6.69,9.95,10.05.02-.01.05-.03.07-.04v-18.61h3.09v18.6l9.93-10.01,2.2,2.2c-3.29,3.31-6.59,6.63-9.94,9.99h0Z"/>
        <path d="m292.96,134.33h-52.72c-8.88,0-16.08-7.2-16.08-16.08h0c0-8.88,7.2-16.08,16.08-16.08h52.72c1.52,0,2.75,1.23,2.75,2.75v26.66c0,1.52-1.23,2.75-2.75,2.75Z"/>
        <g>
          <path class="uuid-8c6e6202-e012-47fe-a40e-9c0905b42ba9" d="m125.63,232.34c2.22-2.19,3.55-3.56,3.55-4.77,0-.84-.46-1.41-1.37-1.41-.62,0-1.14.4-1.57.89l-.67-.66c.67-.73,1.37-1.18,2.39-1.18,1.45,0,2.37.92,2.37,2.31s-1.3,2.83-2.97,4.58c.41-.04.9-.07,1.29-.07h2.05v1.02h-5.08v-.7Z"/>
          <path class="uuid-8c6e6202-e012-47fe-a40e-9c0905b42ba9" d="m132.11,230.85v-3.72h1.19v3.56c0,1.03.31,1.45,1.01,1.45.56,0,.94-.27,1.44-.9v-4.11h1.19v5.9h-.98l-.09-.9h-.04c-.53.63-1.11,1.04-1.92,1.04-1.25,0-1.81-.83-1.81-2.33Z"/>
          <path class="uuid-8c6e6202-e012-47fe-a40e-9c0905b42ba9" d="m138.82,227.14h.98l.1.65h.04c.52-.44,1.16-.8,1.83-.8,1.5,0,2.33,1.18,2.33,3,0,2.01-1.21,3.18-2.54,3.18-.53,0-1.06-.24-1.58-.67l.03,1v1.93h-1.19v-8.31Zm4.04,2.87c0-1.24-.41-2.02-1.42-2.02-.46,0-.92.25-1.43.73v2.92c.48.4.94.55,1.31.55.88,0,1.54-.79,1.54-2.18Z"/>
          <path class="uuid-8c6e6202-e012-47fe-a40e-9c0905b42ba9" d="m145.57,227.14h.98l.1,1.06h.04c.42-.76,1.03-1.21,1.68-1.21.28,0,.47.04.65.12l-.21,1.04c-.21-.06-.35-.1-.59-.1-.48,0-1.07.34-1.44,1.29v3.69h-1.19v-5.9Z"/>
          <path class="uuid-8c6e6202-e012-47fe-a40e-9c0905b42ba9" d="m149.27,231.48c0-1.27,1.08-1.92,3.54-2.19-.01-.7-.26-1.33-1.14-1.33-.63,0-1.22.29-1.71.61l-.45-.8c.6-.38,1.43-.77,2.37-.77,1.46,0,2.12.93,2.12,2.49v3.55h-.98l-.09-.68h-.04c-.55.46-1.18.82-1.89.82-1.01,0-1.74-.66-1.74-1.7Zm3.54.05v-1.48c-1.79.22-2.39.67-2.39,1.34,0,.6.41.85.94.85s.94-.26,1.45-.71Z"/>
        </g>
        <g>
          <path class="uuid-8c6e6202-e012-47fe-a40e-9c0905b42ba9" d="m110.78,120.45l.8-.9c.37.43.95.73,1.53.73,1.3,0,2.36-1.02,2.36-4.02,0-2.33-.75-3.44-1.96-3.44-.85,0-1.53.73-1.53,1.93s.57,1.84,1.62,1.84c.58,0,1.29-.34,1.89-1.26l.06,1.08c-.57.77-1.45,1.25-2.2,1.25-1.63,0-2.72-.97-2.72-2.92,0-1.85,1.31-3.06,2.88-3.06,1.85,0,3.34,1.47,3.34,4.57,0,3.73-1.74,5.22-3.65,5.22-1.07,0-1.86-.46-2.4-1.03Z"/>
          <path class="uuid-8c6e6202-e012-47fe-a40e-9c0905b42ba9" d="m118.48,115.24c0-.61.44-1.05.99-1.05s.99.44.99,1.05-.44,1.04-.99,1.04-.99-.44-.99-1.04Zm0,5.2c0-.61.44-1.05.99-1.05s.99.44.99,1.05-.44,1.04-.99,1.04-.99-.44-.99-1.04Z"/>
          <path class="uuid-8c6e6202-e012-47fe-a40e-9c0905b42ba9" d="m121.79,120.15l.71-.94c.57.58,1.3,1.07,2.32,1.07,1.09,0,1.85-.6,1.85-1.58,0-1.05-.7-1.74-2.89-1.74v-1.09c1.92,0,2.56-.71,2.56-1.63,0-.85-.58-1.38-1.51-1.38-.76,0-1.39.37-1.95.92l-.77-.91c.77-.69,1.65-1.18,2.78-1.18,1.72,0,2.93.89,2.93,2.45,0,1.09-.66,1.81-1.68,2.21v.06c1.13.28,2.01,1.1,2.01,2.37,0,1.7-1.44,2.71-3.22,2.71-1.52,0-2.5-.61-3.15-1.33Z"/>
          <path class="uuid-8c6e6202-e012-47fe-a40e-9c0905b42ba9" d="m129.53,116.55c0-3.18,1.19-4.86,3.11-4.86s3.11,1.69,3.11,4.86-1.19,4.93-3.11,4.93-3.11-1.76-3.11-4.93Zm4.82,0c0-2.72-.7-3.7-1.71-3.7s-1.71.98-1.71,3.7.7,3.77,1.71,3.77,1.71-1.06,1.71-3.77Z"/>
        </g>
      </g>
    </g>
  </g>
</svg>