<?xml version="1.0" encoding="UTF-8"?>
<svg id="Capa_2" data-name="Capa 2" xmlns="http://www.w3.org/2000/svg" viewBox="0 0 218.14 103.23">
  <defs>
    <style>
      .cls-1 {
        fill: #fff;
      }

      .cls-2 {
        opacity: .8;
      }

      .cls-3 {
        fill: none;
        stroke: #161616;
        stroke-miterlimit: 10;
      }
    </style>
  </defs>
  <g id="logos">
    <g>
      <g>
        <g>
          <rect class="cls-3" x="1.07" y=".5" width="47.05" height="18.71" rx="9.35" ry="9.35"/>
          <g class="cls-2">
            <g>
              <path class="cls-1" d="M16.44,12.46c-.14,.65-.27,1.26-.41,1.89h-1.51c.33-1.75,.66-3.46,.98-5.17,.1-.54,.18-1.08,.32-1.6,.04-.15,.24-.38,.37-.38,1.09-.01,2.19-.06,3.27,.05,1.56,.17,2.15,1.07,1.84,2.61-.31,1.52-1.54,2.56-3.1,2.6-.56,.01-1.13,0-1.77,0Zm.17-1.1c.52,0,.97,.04,1.41,0,1.11-.12,1.8-.97,1.74-2.1-.03-.5-.29-.83-.77-.88-.57-.05-1.16-.01-1.76-.01-.2,.98-.41,1.95-.63,3Z"/>
              <path class="cls-1" d="M28.2,7.23c1.23,0,2.41-.09,3.56,.02,1.61,.16,2.21,1.12,1.83,2.7-.36,1.51-1.56,2.48-3.11,2.51-.56,.01-1.13,0-1.72,0-.14,.64-.27,1.24-.41,1.88h-1.51c.46-2.39,.91-4.77,1.36-7.12Zm.73,4.15c.51,0,.92,.02,1.32,0,1.17-.08,1.92-.97,1.84-2.14-.04-.5-.31-.82-.79-.86-.56-.05-1.12-.01-1.73-.01-.21,.98-.41,1.96-.63,3.01Z"/>
              <path class="cls-1" d="M25.09,12.45c.21-1.14,.4-2.22,.6-3.29,.1-.54-.16-.78-.65-.8-.49-.02-.97,0-1.5,0-.27,1.4-.54,2.77-.82,4.16h-1.51c.47-2.39,.94-4.77,1.42-7.16h1.51c-.12,.62-.23,1.22-.36,1.91,.64,0,1.24-.02,1.84,0,1.44,.06,1.9,.67,1.62,2.09-.18,.92-.36,1.84-.51,2.76-.05,.32-.17,.44-.49,.4-.37-.05-.73-.05-1.15-.08Z"/>
            </g>
          </g>
        </g>
        <g>
          <rect class="cls-3" x="54.62" y=".5" width="47.05" height="18.71" rx="9.35" ry="9.35"/>
          <g class="cls-2">
            <path class="cls-1" d="M75.87,5.24c0,.07,0,.14,0,.22,0,.15,.06,.21,.21,.17,.14-.03,.29-.07,.43-.1,.19-.04,.29,.06,.25,.25-.03,.15-.07,.3-.11,.46-.03,.11,.04,.19,.15,.19,.16,0,.31-.01,.47-.02,.2,0,.28,.12,.2,.3-.06,.14-.13,.28-.19,.43-.04,.1,0,.19,.12,.21,.15,.03,.3,.05,.45,.07,.2,.03,.26,.17,.14,.34-.09,.12-.17,.24-.26,.36-.08,.11-.05,.2,.07,.25,.13,.05,.27,.1,.4,.15,.21,.08,.24,.22,.08,.37-.11,.1-.21,.2-.32,.3-.1,.09-.09,.19,.03,.26,.13,.08,.26,.16,.39,.24,.15,.1,.15,.24,0,.34-.13,.09-.27,.16-.4,.25-.1,.06-.11,.17-.03,.25,.11,.11,.22,.21,.33,.31,.14,.14,.12,.28-.07,.35-.13,.05-.27,.1-.4,.15-.15,.06-.18,.14-.08,.28,.08,.12,.17,.23,.25,.35,.1,.15,.05,.28-.13,.32-.15,.03-.3,.05-.45,.07-.15,.03-.19,.11-.13,.24,.06,.14,.13,.28,.19,.42,.07,.16,0,.28-.18,.28-.15,0-.31,0-.46-.01-.15,0-.21,.06-.18,.21,.03,.14,.07,.28,.1,.42,.05,.21-.06,.31-.27,.26-.14-.03-.28-.07-.42-.1-.14-.03-.21,.03-.2,.17,0,.16,.01,.31,.01,.47,0,.17-.12,.25-.27,.18-.15-.06-.29-.13-.44-.2-.11-.05-.2,0-.22,.12-.03,.15-.05,.31-.08,.46-.04,.19-.17,.24-.33,.13-.13-.09-.25-.18-.37-.27-.11-.07-.2-.05-.25,.08-.06,.15-.11,.29-.17,.44-.06,.16-.21,.19-.33,.07-.11-.12-.22-.24-.33-.35-.08-.08-.18-.07-.24,.02-.09,.14-.17,.28-.26,.41-.1,.15-.24,.15-.34,0-.08-.13-.17-.27-.25-.4-.06-.1-.16-.11-.25-.03-.11,.11-.21,.22-.31,.33-.14,.14-.28,.12-.35-.07-.06-.14-.11-.29-.16-.43-.05-.12-.14-.15-.25-.07-.12,.09-.25,.18-.37,.27-.15,.11-.29,.05-.32-.14-.03-.15-.05-.31-.08-.46-.02-.11-.11-.16-.21-.12-.15,.06-.29,.14-.44,.2-.17,.07-.29,0-.29-.19,0-.16,.01-.31,.02-.47,0-.12-.08-.19-.19-.16-.15,.03-.3,.07-.45,.1-.2,.04-.3-.06-.26-.26,.03-.14,.07-.29,.1-.43,.03-.13-.03-.2-.17-.2-.16,0-.31,.01-.47,.01-.18,0-.26-.12-.19-.28,.06-.14,.13-.29,.19-.43,.05-.12,0-.21-.12-.23-.15-.03-.31-.05-.46-.08-.18-.04-.23-.17-.13-.32,.09-.13,.18-.25,.27-.38,.07-.1,.04-.2-.07-.24-.15-.06-.29-.11-.44-.17-.17-.07-.2-.21-.07-.34,.11-.11,.22-.21,.33-.31,.11-.1,.1-.19-.03-.27-.13-.08-.25-.16-.38-.24-.16-.1-.16-.25,0-.35,.13-.08,.26-.16,.39-.24,.11-.07,.12-.17,.03-.26-.1-.1-.21-.2-.32-.3-.17-.16-.14-.29,.08-.38,.13-.05,.27-.1,.4-.15,.11-.04,.14-.14,.07-.24-.09-.13-.18-.25-.27-.38-.11-.16-.05-.29,.14-.32,.15-.03,.3-.05,.45-.07,.13-.02,.17-.11,.12-.23-.06-.14-.13-.28-.19-.42-.08-.17,0-.3,.19-.29,.15,0,.31,.01,.46,.02,.14,0,.2-.07,.17-.21-.04-.15-.07-.3-.11-.46-.03-.16,.07-.27,.23-.23,.16,.03,.31,.07,.47,.11,.13,.03,.2-.03,.2-.17,0-.15-.02-.31-.02-.46,0-.19,.12-.27,.29-.19,.14,.06,.27,.12,.41,.18,.14,.06,.22,.02,.24-.13,.02-.15,.05-.29,.07-.44,.03-.19,.17-.25,.33-.13,.12,.09,.25,.18,.37,.27,.1,.07,.2,.04,.24-.07,.06-.15,.11-.29,.16-.44,.07-.17,.21-.2,.34-.07,.11,.11,.21,.22,.31,.33,.1,.11,.19,.1,.27-.03,.08-.13,.15-.25,.24-.38,.1-.16,.25-.16,.35,0,.08,.13,.16,.26,.24,.39,.07,.12,.16,.13,.26,.03,.11-.11,.21-.23,.32-.34,.13-.13,.27-.1,.34,.07,.06,.15,.11,.29,.17,.44,.04,.11,.14,.14,.24,.08,.13-.09,.25-.18,.38-.27,.15-.1,.28-.05,.32,.13,.03,.15,.05,.3,.07,.45,.02,.14,.11,.18,.24,.13,.14-.06,.28-.13,.42-.19,.17-.07,.29,0,.29,.19,0,.08,0,.16,0,.24h-.01Zm-6.74,1.62h.17c1.48,0,2.96,0,4.44,0,.5,0,.94,.17,1.3,.52,.36,.34,.53,.76,.4,1.25-.08,.32-.31,.55-.56,.75-.09,.08-.19,.15-.29,.22,0,.01,0,.02,.01,.03,.42,.28,.61,.69,.69,1.17,0,.04,.03,.08,.06,.11,.16,.15,.36,.18,.57,.13,.2-.04,.34-.16,.39-.36,.03-.13,.03-.27,.03-.4,0-.1,.04-.14,.14-.13,.13,0,.25,0,.38,0,0-.25,0-.49,0-.72,0-.03-.05-.07-.09-.09-.22-.1-.45-.2-.67-.3-.24-.11-.3-.27-.2-.51,.12-.27,.24-.54,.36-.81,.03-.07,.03-.13-.01-.2-.68-1.09-1.64-1.78-2.9-2.05-.05-.01-.12,0-.15,.04-.18,.16-.35,.33-.52,.49-.19,.18-.36,.18-.54,0-.15-.16-.3-.32-.46-.48-.03-.03-.1-.06-.15-.05-.46,.09-.89,.26-1.3,.49-.4,.23-.76,.52-1.09,.89Zm2.31,3.41v.81c.34,0,.66,0,.99,0,.1,0,.14,.03,.14,.14,0,.36,0,.71,0,1.07q0,.17-.18,.17c-1.12,0-2.25,0-3.37,0h-.16c.13,.15,.23,.26,.32,.38,.05,.06,.1,.07,.18,.05,.18-.04,.36-.08,.55-.12,.31-.07,.44,.03,.51,.33,.04,.22,.09,.43,.13,.65,.01,.07,.05,.11,.12,.14,1.17,.49,2.34,.49,3.51,.02,.07-.03,.11-.07,.12-.14,.05-.24,.1-.48,.15-.72,.05-.22,.21-.32,.43-.27,.21,.04,.41,.09,.62,.13,.05,0,.11,.01,.14-.01,.13-.13,.25-.27,.39-.44h-.18c-.55,0-1.1,0-1.65,0-.1,0-.21-.03-.3-.09-.21-.15-.36-.35-.42-.6-.08-.31-.14-.63-.22-.94-.1-.37-.36-.55-.74-.55-.13,0-.25,0-.38,0h-.7Zm-2.63-2.07c.05,.12,.09,.21,.13,.31,.1,.24,.04,.4-.2,.51-.21,.1-.43,.19-.64,.28-.04,.02-.09,.06-.09,.1-.06,.52,0,1.04,.12,1.55,.02,.07,.05,.08,.12,.08,.31,0,.62,0,.93,0,.08,0,.16,0,.24,0v-2.83h-.62Zm2.62,.84c.54,0,1.06,0,1.59,0,.08,0,.17-.04,.25-.08,.25-.13,.28-.42,.05-.58-.12-.08-.29-.14-.43-.15-.45-.02-.91,0-1.36,0-.03,0-.06,0-.1,.01v.81Zm.98-4.19c-.2,0-.36,.17-.35,.37,0,.2,.17,.35,.36,.35,.2,0,.36-.17,.35-.37,0-.19-.17-.35-.36-.35Zm-3.03,8.72c0,.2,.16,.37,.36,.36,.19,0,.35-.17,.35-.36,0-.2-.16-.36-.36-.36-.2,0-.35,.16-.35,.36Zm6.98-5.07c0,.2,.16,.36,.35,.36,.2,0,.36-.16,.36-.36,0-.19-.16-.36-.36-.36-.2,0-.36,.16-.36,.36Zm-1.63,5.09c0,.2,.15,.35,.35,.36,.2,0,.37-.16,.37-.36,0-.2-.17-.36-.37-.36-.2,0-.35,.16-.35,.36Zm-6.98-5.11c0,.2,.16,.36,.35,.36,.2,0,.37-.16,.37-.36,0-.2-.16-.36-.37-.36-.2,0-.35,.16-.35,.36Z"/>
            <path class="cls-1" d="M79.22,8.26h1.12s0,.09,0,.14c0,.6,0,1.2,0,1.79,0,.1,0,.2,.02,.3,.04,.47,.46,.56,.77,.43,.32-.13,.44-.41,.46-.72,.03-.45,.02-.9,.02-1.35,0-.19,0-.39,0-.59h1.1v3.46h-1.1v-.45h-.03c-.05,.04-.1,.09-.15,.15-.4,.38-.87,.49-1.39,.34-.5-.14-.71-.53-.79-1.01-.02-.15-.03-.3-.03-.46,0-.64,0-1.27,0-1.91v-.13Z"/>
            <path class="cls-1" d="M86.5,9.17c-.33-.08-.65-.18-.98-.23-.22-.03-.46-.01-.68,.01-.08,0-.18,.07-.23,.14-.11,.14-.04,.33,.15,.38,.21,.05,.43,.07,.64,.12,.28,.06,.56,.12,.82,.21,.28,.1,.45,.32,.49,.62,.02,.2,.03,.41-.01,.6-.09,.4-.39,.6-.76,.7-.51,.14-1.03,.12-1.55,.04-.22-.03-.44-.09-.66-.14-.03,0-.08-.05-.08-.07,0-.25,0-.51,0-.78,.1,.04,.18,.07,.26,.1,.45,.17,.91,.25,1.38,.19,.08-.01,.17-.04,.24-.07,.11-.05,.17-.15,.16-.28,0-.13-.08-.22-.21-.24-.22-.05-.44-.07-.66-.12-.19-.04-.38-.07-.56-.13-.48-.16-.7-.5-.67-1.01,.03-.57,.35-.9,.98-.99,.63-.1,1.25-.01,1.87,.13,.03,0,.07,.06,.07,.09,0,.25,0,.5,0,.74Z"/>
            <path class="cls-1" d="M89.83,10.93v.8c-.05,0-.1,0-.15,0-.39-.01-.79,0-1.18-.04-.51-.06-.76-.34-.8-.85-.02-.27-.02-.54-.02-.81,0-.32,0-.64,0-.98h-.54v-.79h.54v-.99h1.12v.98h1.14v.79h-1.13s0,.07,0,.1c0,.47,0,.93,0,1.4,0,.29,.09,.38,.38,.39,.22,0,.43,0,.66,0Z"/>
          </g>
        </g>
        <g>
          <g class="cls-2">
            <path class="cls-1" d="M125.71,12.54c.5-.29,.99-.57,1.48-.85,.14,.18,.26,.35,.41,.51,.56,.59,1.25,.72,2.01,.49,.31-.09,.54-.29,.61-.62,.06-.29,.01-.56-.21-.77-.16-.14-.34-.26-.53-.36-.36-.18-.75-.32-1.11-.5-.32-.16-.65-.32-.95-.52-.8-.52-1.17-1.28-1.15-2.23,.02-1.12,.71-2,1.82-2.28,.73-.18,1.46-.16,2.16,.13,.58,.24,.98,.67,1.28,1.2,0,0,0,.02,0,.03-.47,.3-.94,.6-1.41,.91-.05-.07-.09-.14-.13-.21-.17-.25-.39-.46-.7-.53-.22-.05-.44-.06-.66,0-.69,.2-.68,1-.34,1.32,.13,.12,.29,.23,.45,.31,.34,.17,.68,.31,1.03,.46,.49,.22,.97,.46,1.39,.8,.59,.48,.88,1.1,.92,1.85,.02,.5-.05,.97-.3,1.41-.3,.54-.76,.89-1.34,1.08-1.19,.39-2.36,.32-3.46-.29-.55-.31-.96-.77-1.26-1.35Z"/>
            <path class="cls-1" d="M119.25,12.73c.49-.3,.99-.6,1.48-.9,.06,.1,.11,.19,.16,.27,.12,.19,.24,.37,.43,.49,.37,.24,.77,.23,1.16,.05,.24-.12,.33-.36,.37-.61,.02-.16,.03-.32,.03-.48,0-2,0-4,0-5.99v-.15h1.83s0,.07,0,.11c0,2.02,0,4.04,0,6.06,0,.42-.04,.83-.17,1.22-.24,.71-.71,1.2-1.43,1.43-.84,.27-1.67,.25-2.49-.1-.63-.27-1.06-.75-1.36-1.35,0-.01-.01-.03-.02-.05Z"/>
          </g>
          <rect class="cls-3" x="107.78" y=".5" width="35.75" height="18.71" rx="9.35" ry="9.35"/>
        </g>
        <g>
          <g class="cls-2">
            <path class="cls-1" d="M175.77,10.86c.52,.53,.94,1.14,1.59,1.53,.32,.19,.66,.28,1.03,.22,.38-.06,.55-.23,.58-.61,.03-.44,.05-.88,.05-1.32,0-.56,0-1.12-.04-1.68-.03-.49-.2-.63-.7-.68-.07,0-.13-.07-.2-.1,.07-.04,.14-.12,.21-.12,.99,0,1.99,0,2.98,.05,1.13,.06,2.01,.78,2.22,1.74,.3,1.41-.45,2.58-1.87,2.86-.34,.07-.7,.1-1.05,.11-1.28,.01-2.57,0-3.85,0-.18,0-.3-.04-.42-.2-.43-.56-.87-1.11-1.32-1.65-.08-.1-.22-.14-.34-.2-.04,.02-.08,.05-.11,.07,.04,.45,.06,.9,.14,1.34,.05,.31,.35,.36,.61,.4,.08,.01,.15,.07,.22,.11-.08,.04-.16,.11-.24,.11-.78,0-1.57,0-2.35,0-.08,0-.15-.07-.23-.1,.07-.04,.13-.12,.2-.12,.48-.05,.67-.19,.69-.66,.03-1.03,.02-2.05,0-3.08,0-.37-.24-.52-.67-.57-.07,0-.14-.08-.21-.11,.07-.04,.14-.11,.22-.11,.93,0,1.86,0,2.79,.05,.27,.01,.55,.13,.79,.26,.81,.46,.85,1.56,.06,2.08-.23,.15-.5,.24-.78,.37Zm4.17-.59c0,.32,0,.63,0,.95,0,.3,0,.6,.05,.89,.02,.11,.14,.26,.24,.3,.76,.28,1.76-.18,2.05-.94,.19-.51,.21-1.04,.11-1.58-.15-.8-.55-1.23-1.35-1.36-.27-.05-.54-.02-.81-.04-.23-.02-.31,.05-.3,.29,.02,.5,0,1,0,1.5Zm-4.92-1.79s-.09,0-.13,0c-.27-.04-.35,.07-.34,.34,.02,.34,0,.68,0,1.02q0,.67,.68,.61c.45-.04,.78-.29,.86-.68,.15-.69-.17-1.36-1.08-1.29Z"/>
            <path class="cls-1" d="M191.39,10.79c0,.46-.03,.81,0,1.16,.05,.48,.2,.61,.7,.65,.17,.01,.26,.04,.18,.24h-2.8v-.2s.03-.03,.05-.03c.69-.07,.84-.21,.85-.91,.01-.86,0-1.72,0-2.58,0-.57-.17-.74-.73-.79-.18-.02-.21-.08-.15-.26,.33,0,.67,0,1.01,0,.67,.01,1.34,.01,2,.06,.25,.02,.52,.12,.74,.25,.84,.47,.89,1.57,.09,2.11-.22,.15-.49,.23-.77,.37,.65,.62,1.11,1.46,2.09,1.71,.47,.12,.78-.08,.87-.55,.02-.1,.03-.21,.03-.31,0-.83,0-1.65,0-2.48,0-.65-.13-.79-.77-.9-.06-.01-.11-.11-.17-.17l.05-.06h4.17c.03,.4,.06,.81,.08,1.21,0,.04-.05,.08-.07,.12-.05-.03-.09-.06-.14-.09-.02-.01-.02-.05-.03-.07-.07-.54-.43-.73-.92-.75-.39-.01-.79,0-1.2,0v1.6c.83,.15,1.15-.06,1.22-.8,.07,0,.14,0,.22-.01v2.08c-.14,.03-.23,.05-.24-.14-.04-.51-.13-.59-.64-.65-.18-.02-.36-.02-.6-.03,.03,.51,.04,.98,.09,1.44,.03,.25,.21,.41,.47,.42,.41,0,.83,.01,1.24-.02,.32-.02,.53-.21,.61-.53,.02-.07,.03-.14,.06-.2,.03-.05,.09-.08,.14-.12,.02,.05,.07,.1,.07,.15-.02,.38-.04,.77-.07,1.18h-.28c-1.79,0-3.57,0-5.36,0-.19,0-.31-.05-.42-.2-.43-.56-.87-1.11-1.31-1.65-.07-.09-.21-.13-.35-.22Zm-.03-2.29v1.27c0,.74,.02,.75,.76,.64,.5-.08,.78-.41,.78-.93,0-.54-.26-.91-.76-.98-.25-.04-.5,0-.79,0Z"/>
            <path class="cls-1" d="M164.7,10.91c.23-.69,.47-1.37,.7-2.06,.13-.4,.27-.8,.37-1.2,.11-.46-.03-.65-.49-.73-.06-.01-.13,0-.18-.02-.06-.02-.11-.07-.17-.11,.05-.04,.1-.11,.16-.12,.14-.02,.28,0,.42,0,.6,0,1.2,0,1.79,0,.08,0,.16,.07,.24,.11-.07,.04-.14,.11-.22,.11-.49,.03-.84,.25-1.01,.71-.32,.9-.63,1.8-.94,2.71-.29,.85-.56,1.7-.85,2.54-.03,.08-.1,.14-.15,.22-.05-.07-.12-.14-.15-.22-.44-1.32-.87-2.65-1.3-3.97-.03-.08-.06-.16-.11-.3-.06,.16-.1,.25-.13,.35-.43,1.29-.85,2.58-1.28,3.87-.02,.06-.03,.12-.06,.17-.03,.04-.08,.08-.13,.1-.02,0-.08-.06-.09-.1-.09-.25-.17-.5-.25-.75-.44-1.36-.88-2.72-1.32-4.08-.06-.18-.13-.36-.21-.54-.18-.44-.51-.68-.99-.71-.06,0-.12-.08-.18-.12,.07-.04,.13-.1,.2-.11,.91,0,1.83,0,2.74,0,.06,0,.13,.07,.19,.11-.06,.04-.12,.1-.19,.12-.09,.03-.19,.02-.28,.05-.35,.08-.45,.21-.42,.55,0,.15,.04,.3,.08,.44,.3,.93,.61,1.87,.92,2.8,.02,.06,.05,.13,.1,.24,.06-.15,.1-.25,.14-.36,.41-1.23,.82-2.46,1.24-3.69,.03-.1,.13-.17,.2-.26,.07,.09,.17,.16,.21,.26,.41,1.24,.82,2.48,1.23,3.72,.03,.09,.06,.18,.09,.26,.03,0,.05,0,.08,0Z"/>
            <path class="cls-1" d="M183.87,6.89c-.06-.17-.03-.25,.15-.25,1.05,0,2.09-.02,3.14,.03,.39,.02,.8,.15,1.14,.35,1.08,.63,1.06,2.14,0,2.79-.4,.24-.84,.34-1.31,.36-.32,.01-.65,0-1,0,0,.46,0,.91,0,1.35,0,.08,.02,.16,.03,.24,.06,.55,.26,.75,.81,.82,.14,.02,.35-.02,.25,.28-.52,0-1.06,0-1.59,0s-1.07,0-1.61,0c-.07-.16-.06-.26,.14-.27,.64-.02,.89-.27,.93-.96,.03-.6,.04-1.21,.03-1.82,0-.68,0-1.35-.05-2.03-.05-.66-.27-.84-.94-.88-.03,0-.07,0-.12-.01Zm2.1,2.77c.33,0,.62,0,.91,0,.57-.02,.96-.35,1.09-.92,.14-.62-.11-1.24-.59-1.48-.09-.04-.18-.09-.27-.09-.32-.02-.65-.03-.97-.03-.05,0-.15,.1-.15,.15,0,.78,0,1.56,0,2.37Z"/>
            <path class="cls-1" d="M169.84,7.91c.52,0,1.22,.26,1.8,.82,1.01,.97,1.02,2.47,.02,3.45-1.26,1.25-3.49,1.09-4.51-.33-.67-.94-.59-2.18,.21-3.02,.6-.62,1.33-.92,2.47-.92Zm-2.09,2.54c-.01,.45,.08,.87,.29,1.27,.31,.57,.79,.87,1.45,.89,.68,.02,1.23-.24,1.55-.84,.47-.87,.46-1.77,0-2.64-.6-1.11-2.34-1.12-2.95-.01-.23,.42-.34,.86-.33,1.33Z"/>
            <path class="cls-1" d="M200.64,12.59c-.25,.07-.11,.5-.49,.44v-1.92c.2-.08,.25,.02,.29,.2,.21,.89,.99,1.43,1.81,1.26,.3-.06,.52-.21,.6-.52,.08-.29-.05-.52-.26-.7-.18-.15-.39-.27-.6-.38-.32-.17-.65-.3-.97-.47-.47-.25-.82-.61-.88-1.17-.08-.74,.53-1.37,1.35-1.41,.23,0,.46,0,.68,.06,.22,.05,.42,.17,.62,.26,.16-.07,.09-.45,.43-.32v1.62c-.07,0-.15,.02-.24,.02-.07-.21-.12-.4-.21-.58-.26-.54-.85-.8-1.39-.62-.23,.08-.41,.21-.46,.46-.05,.25,.06,.46,.27,.59,.4,.23,.82,.44,1.23,.66,.23,.12,.48,.24,.68,.4,.75,.58,.73,1.61-.03,2.19-.61,.47-1.5,.49-2.21,.06-.08-.05-.16-.1-.23-.15Z"/>
            <path class="cls-1" d="M205.04,12.57c-.11,.16-.21,.32-.32,.47-.01,.02-.08,0-.14,0v-1.92c.22-.1,.25,.04,.29,.2,.18,.75,.68,1.2,1.45,1.27,.16,.02,.34,0,.49-.05,.51-.17,.66-.73,.27-1.11-.16-.16-.37-.29-.58-.4-.35-.19-.71-.34-1.06-.52-.47-.25-.83-.61-.88-1.17-.07-.74,.52-1.35,1.33-1.4,.47-.03,.91,.07,1.28,.34,.21-.05,.12-.48,.47-.32v1.62c-.08,0-.16,.01-.24,.02-.07-.2-.12-.39-.2-.56-.26-.55-.85-.82-1.4-.64-.23,.08-.41,.21-.46,.47-.04,.25,.06,.46,.27,.58,.43,.25,.88,.47,1.32,.7,.21,.11,.42,.22,.61,.37,.73,.59,.71,1.58-.03,2.15-.61,.48-1.51,.51-2.23,.07-.08-.05-.16-.1-.25-.16Z"/>
          </g>
          <rect class="cls-3" x="149.32" y=".5" width="68.32" height="18.71" rx="9.35" ry="9.35"/>
        </g>
      </g>
      <g>
        <g>
          <rect class="cls-3" x=".5" y="28.34" width="68.32" height="18.71" rx="9.35" ry="9.35"/>
          <g class="cls-2">
            <path class="cls-1" d="M53.82,40.49h-.85v-5.66h.85v5.66Z"/>
            <path class="cls-1" d="M19.87,38.01c.59-.34,1.12-.64,1.63-.95,.07-.04,.1-.19,.1-.28,0-.61,.01-1.23,0-1.84,0-.18,.06-.28,.21-.37,.59-.33,1.18-.67,1.76-1.01,.14-.08,.26-.09,.4,0,.58,.35,1.17,.68,1.76,1.01,.15,.09,.23,.18,.22,.37,0,.68,0,1.35,0,2.03,0,.18-.07,.28-.23,.37-.53,.3-1.06,.61-1.6,.91-.16,.09-.22,.19-.21,.37,0,.59,0,1.19,0,1.78,0,.21-.06,.33-.25,.44-1.24,.7-2.48,1.42-3.71,2.13-.18,.11-.32,.11-.5,0-1.24-.72-2.49-1.44-3.73-2.15-.18-.1-.23-.22-.23-.41,0-2.2,0-4.39,0-6.59,0-.2,.07-.31,.24-.41,.58-.32,1.16-.66,1.74-1,.14-.08,.25-.09,.4,0,.58,.35,1.17,.68,1.76,1.01,.18,.1,.23,.22,.23,.42,0,1.26,0,2.53,0,3.79,0,.11,0,.21,0,.39Zm-.3,4.64c0-.61,0-1.17,0-1.74,0-.17-.06-.26-.21-.34-.52-.29-1.03-.59-1.56-.87-.2-.11-.28-.23-.28-.47,.01-1.18-.04-2.36,.02-3.54,.03-.61-.15-.97-.7-1.2-.35-.14-.66-.37-1.02-.57-.01,.11-.02,.17-.02,.23,0,2.05,0,4.1,0,6.15,0,.18,.09,.26,.22,.33,1.09,.62,2.17,1.25,3.26,1.87,.08,.04,.16,.08,.28,.14Zm4.06-4.08c-.1,.04-.15,.06-.2,.08-1.14,.65-2.28,1.29-3.41,1.95-.08,.05-.15,.18-.15,.28-.02,.36,0,.71,0,1.07,0,.22,0,.44,0,.67,.07-.01,.09,0,.1-.02,1.17-.67,2.35-1.34,3.52-2.02,.07-.04,.13-.14,.13-.21,.01-.58,0-1.17,0-1.8Zm-.17-.3c-.53-.31-1.02-.58-1.5-.87-.17-.1-.29-.09-.45,0-1.09,.63-2.18,1.26-3.28,1.89-.07,.04-.13,.09-.23,.15,.1,.07,.17,.12,.25,.16,.39,.22,.79,.43,1.17,.66,.19,.12,.35,.12,.55,0,1.07-.62,2.14-1.23,3.21-1.84,.08-.04,.15-.09,.27-.17Zm-3.91-4.36c-.54,.31-1.01,.59-1.5,.85-.17,.09-.22,.2-.22,.39,0,1.23,0,2.47,0,3.7,0,.09,0,.17,.02,.3,.11-.06,.19-.09,.27-.14,.4-.23,.8-.47,1.21-.69,.18-.1,.24-.21,.23-.41,0-1.22,0-2.45,0-3.67,0-.09,0-.18-.01-.33Zm4.08,4.1c0-.66,0-1.25,0-1.83,0-.06-.03-.14-.07-.16-.53-.32-1.07-.62-1.66-.97,0,.51,.03,.96,0,1.4-.04,.43,.11,.69,.5,.87,.41,.19,.79,.44,1.24,.7Zm.29,0c.58-.34,1.11-.63,1.62-.94,.07-.04,.11-.18,.11-.28,.01-.4,0-.8,0-1.21,0-.16,0-.32,0-.54-.6,.35-1.13,.65-1.65,.96-.04,.03-.08,.1-.08,.16,0,.59,0,1.18,0,1.85Zm1.57-3.22c-.35-.2-.68-.35-.95-.57-.53-.43-1.02-.43-1.55,0-.27,.22-.6,.36-.95,.56,.58,.33,1.11,.64,1.64,.94,.04,.03,.13,.03,.17,0,.53-.3,1.06-.6,1.64-.94Zm-6.09-1.15c-.41-.24-.81-.42-1.14-.67-.41-.31-.76-.3-1.17,0-.34,.25-.73,.43-1.14,.67,.58,.33,1.1,.64,1.64,.94,.05,.03,.13,.03,.17,0,.53-.3,1.06-.6,1.64-.94Z"/>
            <path class="cls-1" d="M36.8,40.47h-.82c0-.14-.02-.27-.03-.46-.42,.43-.88,.64-1.46,.56-.55-.09-1-.35-1.31-.81-.57-.85-.42-2.03,.35-2.69,.71-.6,1.65-.57,2.41,.12,.01-.16,.03-.3,.04-.46h.82v3.73Zm-2-3.08c-.65,0-1.12,.52-1.12,1.23,0,.68,.49,1.21,1.12,1.22,.65,0,1.16-.54,1.16-1.24,0-.69-.5-1.21-1.15-1.21Z"/>
            <path class="cls-1" d="M44.01,40.47h-.8c-.01-.14-.03-.27-.04-.46-.4,.42-.86,.63-1.41,.56-.53-.07-.97-.31-1.3-.74-.61-.81-.51-2.01,.22-2.7,.7-.66,1.62-.66,2.48,.04,.02-.15,.04-.29,.06-.44h.79v3.74Zm-.83-1.87c0-.7-.5-1.21-1.15-1.2-.65,0-1.13,.53-1.12,1.23,.01,.7,.51,1.23,1.15,1.21,.64-.01,1.13-.55,1.12-1.24Z"/>
            <path class="cls-1" d="M49.39,38.92c.06,.46,.28,.75,.65,.9,.48,.18,.95,.16,1.63-.48,.17,.13,.35,.27,.53,.41-.51,.73-1.42,1.01-2.33,.73-.82-.25-1.3-.92-1.32-1.82-.02-1.37,1.19-2.33,2.46-1.96,.84,.25,1.41,1.12,1.34,2.01-.02,.21-.14,.2-.28,.2-.77,0-1.54,0-2.31,0-.11,0-.22,0-.37,0Zm.05-.64h2.08c.03-.54-.43-.98-1.02-.99-.62,0-1.08,.42-1.05,.99Z"/>
            <path class="cls-1" d="M32.58,39.68v.78h-2.61c0-.1-.02-.2-.02-.3,0-1.66,0-3.33,0-4.99,0-.27,.06-.37,.35-.36,.65,.03,.54-.07,.54,.54,0,1.33,0,2.65,0,3.98v.35h1.74Z"/>
            <path class="cls-1" d="M48.5,36.72c-.12,.32-.22,.59-.33,.86-.34,.89-.69,1.77-1.02,2.66-.07,.18-.16,.26-.36,.25-.27-.02-.61,.08-.8-.05-.19-.13-.24-.47-.33-.73-.35-.89-.69-1.79-1.03-2.69-.03-.08-.06-.17-.11-.3,.27,0,.51-.01,.75,0,.07,0,.14,.12,.18,.2,.31,.78,.61,1.57,.91,2.35,.04,.09,.08,.18,.14,.34,.06-.14,.1-.22,.14-.31,.29-.76,.59-1.52,.87-2.28,.09-.24,.2-.37,.47-.33,.15,.02,.31,0,.52,0Z"/>
            <path class="cls-1" d="M39.92,37.57h-1.51v2.9h-.84v-3.75c.34,0,.67,0,1.01,0,.38,0,.75,0,1.13,0,.15,0,.22,.04,.22,.2,0,.21,0,.42,0,.66Z"/>
          </g>
        </g>
        <g>
          <g class="cls-2">
            <path class="cls-1" d="M87.14,39.38s-.05-.02-.08-.03c-.54-.15-1.03-.39-1.47-.73-.22-.18-.41-.38-.5-.66-.09-.25-.06-.49,.07-.72,.13-.24,.32-.41,.53-.57,.41-.29,.86-.48,1.34-.62,.02,0,.05-.01,.07-.02,0,0,.01,0,.03-.02,0-.02,0-.05,0-.07-.04-.24-.1-.49-.13-.73-.05-.42-.03-.85,.1-1.26,.07-.21,.17-.41,.36-.54,.13-.1,.28-.15,.45-.16,.3-.02,.57,.05,.84,.17,.35,.16,.67,.36,.96,.61,.11,.09,.21,.18,.31,.28,.02,.02,.04,.03,.06,.05,.05-.05,.09-.09,.14-.13,.32-.3,.68-.56,1.08-.76,.24-.12,.49-.2,.75-.21,.37-.01,.65,.13,.84,.46,.13,.22,.19,.46,.22,.71,.05,.5,0,1-.11,1.49,0,.02-.01,.05-.01,.07,0,0,0,.02,0,.03,.03,.01,.07,.03,.1,.04,.33,.1,.65,.22,.95,.39,.26,.14,.5,.31,.7,.53,.07,.08,.14,.17,.19,.26,.2,.34,.16,.68-.06,1-.12,.17-.27,.32-.44,.45-.34,.25-.71,.44-1.11,.58-.11,.04-.22,.07-.34,.11,0,.03,0,.06,.01,.09,.1,.4,.15,.81,.13,1.23-.01,.33-.07,.64-.23,.94-.07,.13-.17,.25-.29,.34-.21,.17-.46,.2-.72,.16-.33-.05-.63-.19-.91-.36-.3-.18-.57-.4-.82-.64-.02-.02-.04-.03-.07-.06-.03,.03-.06,.05-.09,.08-.32,.31-.68,.57-1.08,.77-.3,.15-.62,.22-.96,.22-.33,0-.57-.16-.74-.44-.13-.21-.19-.44-.21-.69-.06-.51,0-1,.12-1.5,0-.03,.02-.07,.02-.1,0,0,0-.02,0-.03Zm2.77-.07s0,0,0,0c.31,0,.62-.02,.94-.03,.07,0,.11-.03,.15-.08,.3-.47,.58-.94,.83-1.44,.03-.06,.04-.12,0-.18-.14-.25-.28-.51-.43-.76-.13-.22-.27-.44-.4-.66-.03-.05-.07-.08-.14-.08-.1,0-.21-.02-.31-.02-.43,0-.87,.01-1.3,.02-.1,0-.17,.04-.22,.13-.29,.44-.55,.9-.79,1.37-.03,.06-.03,.12,0,.18,.25,.49,.53,.97,.83,1.43,.05,.08,.11,.11,.19,.11,.03,0,.05,0,.08,0,.19,0,.38,0,.57,0Zm-4.46-1.63c0,.09,.03,.17,.07,.24,.09,.16,.22,.29,.36,.41,.39,.31,.83,.5,1.31,.64,.08,.02,.09,.02,.11-.07,.12-.38,.26-.76,.43-1.12,.02-.05,.02-.09,0-.13-.17-.37-.32-.75-.44-1.13-.03-.08-.03-.08-.11-.06-.12,.04-.24,.08-.36,.12-.29,.11-.57,.24-.82,.41-.16,.11-.32,.23-.43,.4-.07,.09-.11,.19-.11,.31Zm4.31-3.01s-.05-.05-.07-.07c-.28-.28-.59-.51-.94-.69-.22-.12-.45-.21-.7-.23-.24-.02-.4,.07-.5,.26-.12,.23-.15,.48-.17,.73-.02,.39,.03,.77,.13,1.15,0,.03,.02,.06,.03,.09,.03,0,.05,0,.08,0,.4-.09,.8-.16,1.2-.2,.07,0,.12-.03,.16-.09,.22-.3,.45-.59,.71-.86,.02-.02,.04-.05,.07-.08Zm-2.37,5.93c0,.05,0,.1,0,.15,0,.22,.04,.43,.13,.64,.04,.08,.09,.16,.16,.22,.12,.1,.26,.12,.41,.1,.16-.02,.32-.06,.48-.13,.43-.18,.8-.46,1.14-.78,.06-.06,.06-.07,0-.13-.27-.29-.52-.59-.75-.91-.04-.05-.09-.07-.15-.08-.26-.03-.51-.07-.77-.11-.14-.02-.28-.05-.42-.08-.06-.01-.07,0-.09,.05,0,.01,0,.03-.01,.04-.09,.33-.13,.67-.13,1.01Zm2.95-5.96s.04,.05,.05,.07c.06,.07,.12,.13,.18,.21,.19,.24,.38,.48,.57,.72,.03,.04,.07,.07,.12,.08,.4,.03,.79,.09,1.18,.18,.08,.02,.09,.01,.11-.06,0,0,0-.01,0-.02,.13-.47,.16-.94,.1-1.43-.02-.18-.06-.35-.16-.5-.09-.15-.22-.22-.4-.22-.17,0-.33,.03-.48,.1-.36,.15-.69,.36-.99,.62-.1,.08-.19,.18-.29,.27Zm.04,6.11s0,.03,.01,.03c.02,.02,.03,.04,.05,.05,.28,.26,.59,.49,.93,.67,.2,.11,.4,.19,.63,.22,.21,.02,.38-.04,.49-.22,.03-.04,.05-.09,.07-.14,.08-.19,.11-.38,.13-.58,.02-.41-.02-.81-.12-1.21,0-.03-.02-.06-.03-.09-.03,0-.05,0-.07,0-.38,.08-.76,.14-1.15,.19-.06,0-.11,.03-.14,.09-.22,.31-.45,.6-.7,.88-.03,.04-.07,.08-.1,.12Zm2.47-1.8s.06-.01,.08-.02c.09-.03,.18-.06,.27-.09,.37-.14,.72-.3,1.03-.55,.15-.12,.28-.25,.35-.43,.05-.11,.05-.22,0-.33-.06-.14-.15-.25-.26-.35-.32-.27-.68-.46-1.07-.61-.11-.04-.22-.07-.34-.11-.06-.02-.07-.01-.09,.05,0,.01,0,.02-.01,.03-.11,.37-.25,.73-.41,1.08-.02,.05-.03,.1,0,.15,.16,.35,.3,.72,.42,1.09,0,.03,.02,.06,.04,.09Zm-4.85-1.76c.19-.33,.38-.65,.57-.97,0-.01,0-.03,.02-.06-.32,.04-.62,.08-.91,.16,.01,.14,.25,.77,.32,.87Zm.56,2.05s0-.02,.01-.02c-.1-.17-.19-.34-.29-.5-.1-.17-.18-.34-.29-.51-.07,.1-.31,.76-.31,.88,.29,.07,.59,.12,.88,.16Zm1.49,1.19c.11-.07,.54-.61,.57-.7-.35,0-.7,0-1.05,0-.02,0-.05,0-.07,0,0,0,0,0,0,0,0,0,0,0,0,.02,.17,.23,.36,.46,.56,.67Zm.57-4.78c-.07-.14-.5-.63-.58-.67,0,0-.02,.01-.03,.02-.17,.2-.34,.4-.51,.61,0,0,0,.03-.01,.05h1.13Zm1.52,2.6s-.02,0-.03,0c-.18,.32-.37,.64-.55,.96,.12,.02,.78-.1,.87-.16-.08-.27-.18-.54-.29-.81Zm-.03-1.09c.08-.12,.3-.73,.29-.83-.28-.06-.56-.12-.87-.16,.2,.34,.39,.65,.58,.98Z"/>
            <path class="cls-1" d="M99.25,38.24c.57,.86,1.13,1.71,1.71,2.58-.04,0-.06,.01-.09,.01-.25,0-.5,0-.75,0-.06,0-.1-.03-.13-.08-.2-.32-.4-.63-.6-.95-.24-.38-.48-.76-.73-1.14-.07-.1-.14-.21-.2-.31-.03-.05-.08-.07-.14-.07-.36,0-.72,0-1.08,0-.11,0-.11,0-.11,.12,0,.76,0,1.51,0,2.27,0,.03,0,.06,0,.09,0,.06-.01,.07-.07,.07-.22,0-.44,0-.65,0-.05,0-.06-.01-.07-.07,0-.03,0-.05,0-.08,0-2.03,0-4.06,0-6.1,0-.16,0-.15,.15-.15,.81,0,1.63,0,2.44,0,.31,0,.62,.06,.91,.19,.45,.2,.77,.53,.94,.99,.08,.22,.12,.44,.12,.67,0,.26-.02,.51-.1,.76-.2,.57-.6,.94-1.18,1.11-.1,.03-.2,.04-.29,.06-.02,0-.04,.01-.08,.02Zm-2.12-1.87c0,.38,0,.75,0,1.13,0,.09,0,.1,.1,.1,0,0,.02,0,.03,0,.52,0,1.04,0,1.55,0,.11,0,.23-.01,.34-.04,.37-.08,.65-.29,.82-.64,.1-.21,.13-.43,.12-.66-.02-.37-.18-.67-.49-.89-.23-.16-.48-.23-.76-.23-.53,0-1.07,0-1.6,0-.01,0-.03,0-.04,0-.06,0-.07,.01-.07,.07,0,.03,0,.05,0,.08,0,.36,0,.72,0,1.08Z"/>
            <path class="cls-1" d="M105.55,39.8c.11,.15,.22,.3,.34,.46-.03,.03-.05,.06-.08,.08-.4,.35-.86,.56-1.38,.61-.53,.05-1.04-.01-1.52-.27-.43-.23-.75-.57-.96-1-.16-.34-.24-.7-.25-1.08,0-.41,.05-.8,.23-1.18,.33-.7,.86-1.14,1.62-1.29,.48-.09,.95-.04,1.39,.16,.33,.15,.59,.38,.8,.68,.24,.35,.38,.74,.43,1.16,.02,.17,.03,.34,.03,.51,0,.12,0,.12-.12,.12-.42,0-.84,0-1.26,0-.75,0-1.49,0-2.24,0-.17,0-.14,.02-.13,.14,.08,.51,.3,.93,.75,1.22,.25,.16,.53,.24,.84,.25,.46,.01,.88-.11,1.26-.37,.07-.04,.12-.1,.19-.15,.02-.02,.04-.03,.07-.06Zm-1.59-1.56c.48,0,.96,0,1.44,0,.09,0,.1-.02,.09-.1-.02-.17-.05-.34-.12-.51-.16-.39-.42-.68-.82-.83-.24-.1-.49-.12-.75-.1-.32,.03-.6,.15-.83,.36-.3,.28-.46,.63-.52,1.04-.02,.12-.04,.14,.13,.14,.46,0,.92,0,1.38,0Z"/>
            <path class="cls-1" d="M109.99,38.49s0-.05,0-.08c0-.24,0-.49,0-.73,0-.23-.07-.43-.22-.6-.11-.13-.26-.22-.42-.28-.24-.09-.49-.1-.74-.08-.45,.04-.83,.24-1.14,.56-.02,.02-.03,.03-.05,.05,0,0-.01,0-.02,0,0,0-.02-.02-.03-.03-.09-.13-.18-.26-.26-.39-.04-.06-.04-.06,0-.11,.21-.2,.44-.38,.7-.5,.25-.11,.52-.18,.79-.21,.34-.03,.68-.02,1.02,.08,.2,.06,.39,.14,.56,.27,.26,.2,.4,.46,.48,.77,.04,.17,.05,.35,.05,.53,0,.98,0,1.97,0,2.95,0,.01,0,.03,0,.04,0,.07-.01,.08-.08,.08-.19,0-.38,0-.57,0-.06,0-.07-.01-.08-.08,0-.11,0-.21,0-.32,0-.03,0-.06,0-.11-.04,.03-.06,.05-.08,.07-.2,.2-.43,.35-.69,.44-.19,.07-.39,.11-.59,.12-.27,.01-.54,0-.8-.11-.43-.16-.75-.44-.91-.88-.05-.14-.08-.29-.09-.45,0-.19,0-.38,.05-.56,.13-.42,.39-.71,.78-.9,.33-.16,.69-.2,1.05-.16,.21,.02,.42,.07,.62,.15,.22,.09,.4,.22,.57,.38,.02,.02,.05,.04,.07,.06,0,0,.01,0,.02,0Zm0,.94c0-.12,0-.24,0-.35,0-.07-.02-.12-.06-.17-.13-.14-.28-.25-.45-.33-.22-.1-.45-.15-.69-.16-.24-.01-.47,.03-.69,.14-.58,.29-.69,1.01-.36,1.46,.18,.24,.42,.37,.71,.41,.31,.05,.61,.02,.89-.09,.23-.09,.44-.22,.6-.41,.04-.04,.05-.09,.05-.14,0-.12,0-.24,0-.35Z"/>
            <path class="cls-1" d="M115.4,36.91c-.15,.14-.3,.28-.46,.43-.03-.03-.05-.05-.07-.08-.22-.27-.49-.45-.83-.5-.55-.09-1.04,.03-1.44,.45-.22,.23-.35,.52-.42,.84-.09,.44-.07,.87,.1,1.29,.22,.55,.62,.88,1.2,.97,.28,.04,.56,.02,.83-.09,.22-.09,.4-.25,.55-.43,.02-.02,.03-.04,.06-.06,.05,.04,.09,.07,.13,.11,.09,.09,.19,.17,.28,.26,.07,.06,.07,.07,0,.14-.31,.38-.71,.62-1.19,.69-.71,.11-1.37-.03-1.94-.5-.31-.26-.53-.59-.66-.97-.1-.29-.15-.58-.15-.88,0-.29,.03-.58,.11-.85,.19-.61,.56-1.08,1.13-1.38,.25-.13,.51-.2,.78-.23,.33-.03,.65-.02,.96,.08,.39,.11,.7,.34,.96,.65,.01,.01,.02,.03,.03,.04,0,0,0,.01,0,.03Z"/>
            <path class="cls-1" d="M118.25,40.16s.02,.03,.03,.05c.05,.13,.11,.26,.16,.39,.02,.07,.02,.07-.03,.11-.17,.13-.36,.21-.58,.24-.19,.02-.38,.01-.57-.04-.33-.08-.53-.29-.62-.62-.04-.16-.06-.32-.06-.48,0-.94,0-1.88,0-2.83,0-.16,0-.15-.16-.15-.17,0-.34,0-.51,0-.09,0-.1,0-.1-.1,0-.15,0-.29,0-.44,0-.08,0-.09,.09-.09,.17,0,.35,0,.52,0,.02,0,.05,0,.07,0,.07,0,.08-.01,.08-.09,0-.02,0-.05,0-.07,0-.32,0-.64,0-.95,0-.02,0-.04,0-.06,0-.09,0-.1,.09-.1,.03,0,.05,0,.08,0,.14,0,.29,0,.43,0,.11,0,.11,0,.11,.11,0,.34,0,.67,0,1.01,0,.16,0,.16,.15,.16,.22,0,.44,0,.65,0,.02,0,.04,0,.06,0,.06,0,.07,.01,.07,.08,0,.07,0,.14,0,.2,0,.09,0,.17,0,.26,0,.09,0,.09-.1,.09-.23,0-.46,0-.69,0-.03,0-.05,0-.08,0-.06,0-.07,.01-.07,.07,0,.02,0,.04,0,.05,0,.91,0,1.82,0,2.73,0,.08,0,.15,.02,.23,.06,.3,.27,.44,.57,.39,.11-.02,.2-.06,.29-.11,.02-.01,.04-.02,.07-.04Z"/>
            <path class="cls-1" d="M90.03,38.57c-.45,.01-.89-.36-.89-.87,0-.52,.39-.9,.89-.9,.54,0,.89,.45,.89,.9,0,.47-.41,.9-.89,.88Z"/>
          </g>
          <rect class="cls-3" x="73.24" y="28.34" width="57.01" height="18.71" rx="9.35" ry="9.35"/>
        </g>
        <g>
          <rect class="cls-3" x="136.12" y="28.34" width="57.01" height="18.71" rx="9.35" ry="9.35"/>
          <g>
            <g class="cls-2">
              <path class="cls-1" d="M161.46,37.86c0-1.12-.32-1.69-.95-1.72-.25-.01-.51,.03-.74,.12-.19,.07-.32,.14-.39,.21v2.66c.41,.26,.77,.37,1.08,.36,.67-.04,1-.59,1-1.63h0Zm.78,.05c0,.57-.13,1.04-.4,1.41-.3,.42-.71,.64-1.24,.65-.4,.01-.81-.11-1.23-.37v2.42l-.68-.24v-5.37c.11-.14,.26-.26,.43-.36,.41-.24,.9-.36,1.48-.36h0c.53,0,.94,.22,1.23,.66,.27,.41,.4,.93,.4,1.56h0Zm4.17,1.59c0,.76-.08,1.29-.23,1.58-.15,.29-.44,.53-.87,.7-.35,.14-.73,.21-1.13,.22l-.11-.43c.41-.06,.7-.11,.87-.17,.33-.11,.56-.28,.68-.51,.1-.19,.15-.55,.15-1.07v-.18c-.47,.21-.96,.32-1.47,.32-.34,0-.63-.11-.89-.32-.29-.23-.43-.52-.43-.88v-2.84l.68-.23v2.86c0,.31,.1,.54,.3,.71,.2,.17,.45,.24,.77,.24,.31,0,.65-.13,1-.36v-3.34h.68v3.71Zm2.66,.44c-.07,0-.15,0-.22,0-.39,0-.69-.09-.9-.28-.21-.18-.32-.44-.32-.76v-2.69h-.47v-.43h.47v-1.14l.68-.24v1.38h.77v.43h-.77v2.67c0,.26,.07,.44,.21,.54,.12,.09,.31,.14,.56,.15v.36Zm4.13-.06h-.68v-2.63c0-.27-.06-.5-.19-.69-.14-.22-.34-.33-.6-.33-.31,0-.7,.17-1.17,.5v3.16h-.68v-6.3l.68-.22v2.87c.44-.32,.91-.48,1.43-.48,.36,0,.65,.12,.88,.36,.22,.24,.34,.55,.34,.91v2.85Zm3.63-2.12c0-.43-.08-.78-.24-1.06-.19-.34-.49-.52-.9-.54-.75,.04-1.12,.58-1.12,1.61,0,.47,.08,.86,.23,1.18,.2,.4,.5,.6,.9,.59,.75,0,1.13-.6,1.13-1.78h0Zm.75,0c0,.61-.16,1.12-.47,1.52-.34,.45-.82,.68-1.42,.68s-1.07-.23-1.4-.68c-.31-.41-.46-.91-.46-1.52,0-.57,.17-1.06,.5-1.45,.35-.42,.81-.63,1.37-.63s1.03,.21,1.38,.63c.33,.39,.5,.88,.5,1.45h0Zm3.91,2.12h-.68v-2.78c0-.31-.09-.54-.28-.72-.18-.17-.43-.25-.73-.25-.32,0-.63,.11-.93,.32v3.43h-.68v-3.51c.39-.29,.75-.47,1.08-.56,.31-.08,.59-.12,.82-.12,.16,0,.31,.02,.46,.05,.27,.06,.49,.18,.65,.35,.19,.19,.28,.41,.28,.67v3.13Z"/>
            </g>
            <g class="cls-2">
              <path class="cls-1" d="M151.96,33.39c-.35,0-.69,.03-.98,.08-.87,.15-1.03,.47-1.03,1.07v.78h2.05v.26h-2.82c-.6,0-1.12,.36-1.28,1.04-.19,.78-.2,1.27,0,2.09,.15,.61,.49,1.04,1.09,1.04h.71v-.94c0-.68,.59-1.28,1.28-1.28h2.05c.57,0,1.03-.47,1.03-1.04v-1.96c0-.56-.47-.97-1.03-1.07-.35-.06-.72-.09-1.07-.08h0Zm-1.11,.63c.21,0,.39,.18,.39,.39s-.17,.39-.39,.39-.39-.17-.39-.39,.17-.39,.39-.39h0Z"/>
              <path class="cls-1" d="M154.31,35.59v.91c0,.71-.6,1.3-1.28,1.3h-2.05c-.56,0-1.03,.48-1.03,1.04v1.96c0,.56,.48,.88,1.03,1.04,.65,.19,1.27,.23,2.05,0,.52-.15,1.03-.45,1.03-1.04v-.78h-2.05v-.26h3.08c.6,0,.82-.42,1.03-1.04,.21-.64,.21-1.26,0-2.09-.15-.59-.43-1.04-1.03-1.04h-.77Zm-1.15,4.95c.21,0,.39,.17,.39,.39s-.17,.39-.39,.39-.39-.18-.39-.39,.17-.39,.39-.39Z"/>
            </g>
          </g>
        </g>
      </g>
      <g>
        <g>
          <rect class="cls-3" x="1.07" y="56.18" width="28.81" height="18.71" rx="9.35" ry="9.35"/>
          <g class="cls-2">
            <path class="cls-1" d="M14.02,61.74c.29,0,.58,0,.86,0,.03,0,.06,0,.09,0,.1,0,.12,.02,.15,.11,.17,.47,.34,.95,.5,1.42,.75,2.13,1.51,4.25,2.26,6.38,.01,.04,.03,.08,.04,.12,.02,.07-.01,.1-.08,.11-.02,0-.04,0-.06,0-.5,0-1,0-1.5,0-.01,0-.03,0-.04,0-.07,0-.12-.03-.14-.1-.04-.1-.07-.21-.11-.31-.16-.46-.32-.92-.47-1.37,0-.02-.02-.04-.02-.07-.01-.05-.04-.07-.1-.07-.02,0-.04,0-.06,0-.87,0-1.73,0-2.6,0q-.13,0-.17,.13c-.17,.53-.35,1.07-.52,1.6,0,.03-.02,.06-.03,.09-.02,.06-.07,.1-.14,.1-.02,0-.05,0-.07,0-.43,0-.87,0-1.3,0-.01,0-.03,0-.04,0-.13,0-.16-.05-.12-.17,.07-.22,.15-.44,.23-.67,.74-2.13,1.48-4.27,2.22-6.4,.09-.25,.14-.51,.15-.78,0-.11,.02-.13,.14-.13,.31,0,.63,0,.94,0h0Zm.96,4.63s0-.01,0-.02c0,0,0-.01,0-.02,0-.01,0-.03-.01-.04-.33-1.02-.66-2.04-.95-3.07,0,0,0,0,0,0,0,0,0,0-.01,0,0,.03-.01,.05-.02,.08-.06,.23-.11,.46-.18,.69-.24,.77-.48,1.54-.72,2.31,0,.02,0,.05-.01,.07,.12,.02,1.84,.02,1.91,0Z"/>
            <path class="cls-1" d="M20.51,66.83c0,.95,0,1.9,0,2.85,0,.04,0,.08,0,.12,0,.07-.04,.1-.11,.11-.02,0-.04,0-.06,0-.46,0-.92,0-1.37,0-.16,0-.19-.03-.19-.18,0-1.94,0-3.88,0-5.82,0,0,0,0,0,0,0-.14,.02-.16,.16-.16,.47,0,.94,0,1.41,0,.02,0,.04,0,.06,0,.06,0,.09,.03,.1,.09,0,.04,0,.08,0,.11,0,.96,0,1.92,0,2.88Z"/>
            <path class="cls-1" d="M19.64,63.1c-.1,0-.21-.01-.32-.05-.36-.12-.61-.44-.63-.83,0-.09,0-.18,0-.27,.06-.4,.37-.71,.77-.78,.14-.02,.28-.02,.42,0,.41,.08,.7,.42,.72,.83,0,.14,0,.29-.04,.43-.13,.41-.49,.68-.93,.66Z"/>
          </g>
        </g>
        <g>
          <rect class="cls-3" x="34.66" y="56.18" width="28.81" height="18.71" rx="9.35" ry="9.35"/>
          <g class="cls-2">
            <path class="cls-1" d="M44.98,67.02s0,.08,0,.12c0,.8,0,1.6,0,2.4,0,.16-.02,.17-.17,.17-.47,0-.93,0-1.4,0,0,0-.02,0-.03,0-.12,0-.14-.02-.14-.14,0-.02,0-.04,0-.06,0-2.7,0-5.4,0-8.09,0-.19,0-.19,.19-.19,.6-.01,1.2-.03,1.8-.04,.27,0,.53,0,.8,0,.53,0,1.05,.08,1.54,.28,.72,.28,1.26,.76,1.55,1.48,.18,.44,.24,.91,.2,1.38-.02,.31-.07,.6-.18,.89-.24,.62-.67,1.07-1.25,1.38-.34,.18-.72,.29-1.1,.35-.51,.08-1.03,.09-1.55,.06-.07,0-.14,0-.2,0-.01,0-.02,0-.05,.01Zm.01-1.53s.06,0,.09,0c.22,0,.44,.01,.65,.01,.27,0,.54-.04,.81-.11,.27-.07,.51-.19,.7-.38,.14-.14,.23-.3,.28-.49,.05-.22,.07-.44,.04-.67-.07-.44-.3-.76-.72-.94-.27-.11-.56-.17-.85-.17-.29,0-.57,0-.86,0-.03,0-.06,0-.09,0-.04,0-.06,.02-.06,.06,0,.02,0,.04,0,.06,0,.84,0,1.67,0,2.51,0,.03,0,.07,0,.1Z"/>
            <path class="cls-1" d="M54.55,64.25c0,.21,0,.41,0,.62,0,.12-.06,.15-.17,.12-.01,0-.03-.01-.04-.02-.33-.17-.68-.26-1.04-.31-.22-.03-.43-.04-.65-.05-.16,0-.32,.02-.48,.07-.18,.06-.28,.19-.28,.37,0,.09,.04,.17,.1,.24,.08,.09,.17,.15,.27,.2,.23,.11,.47,.22,.71,.31,.38,.15,.75,.32,1.09,.54,.43,.27,.72,.65,.8,1.15,.14,.91-.27,1.69-1.08,2.08-.35,.17-.72,.25-1.1,.28-.33,.03-.66,.03-.98,0-.44-.04-.88-.11-1.29-.29-.03-.01-.06-.03-.09-.04-.07-.03-.11-.09-.1-.17,0-.18,0-.37,0-.55,0-.25,0-.5,0-.75,0-.02,0-.04,0-.06,0-.1,.03-.12,.12-.07,.21,.12,.43,.22,.66,.29,.42,.13,.85,.21,1.29,.21,.16,0,.32-.01,.47-.05,.06-.01,.11-.03,.16-.06,.25-.12,.3-.4,.11-.6-.08-.08-.17-.15-.27-.19-.23-.1-.45-.2-.69-.29-.37-.14-.72-.31-1.04-.54-.39-.27-.67-.63-.77-1.11-.16-.78,.15-1.61,.95-2.06,.32-.18,.67-.28,1.03-.32,.57-.06,1.14-.03,1.71,.08,.16,.03,.31,.08,.46,.13,.12,.04,.14,.08,.14,.21,0,.21,0,.42,0,.63Z"/>
          </g>
        </g>
        <g>
          <g class="cls-2">
            <path class="cls-1" d="M112.45,65.87s.05,.08,.07,.13c.17,.45,.27,.91,.23,1.4,0,.06,0,.12,0,.18,.14,.07,.26,.13,.38,.2,.05,.03,.11,.07,.15,.11,.15,.14,.17,.33,.04,.49-.1,.14-.23,.25-.37,.34-.07,.05-.14,.09-.22,.14,0,.07-.01,.14-.02,.2-.33,.12-.61,0-.79-.36,.01-.03,.02-.06,.03-.09,.05-.13,.07-.25,.02-.39-.03-.07-.04-.15-.05-.23-.03-.19,.05-.35,.22-.41,.03,0,.05-.02,.07-.03,.05-.12,.04-.24,.02-.36-.06-.33-.16-.66-.3-.96-.23-.48-.46-.96-.69-1.44-.05-.1-.09-.2-.13-.31-.11-.31-.21-.63-.31-.94-.02-.06-.03-.12,0-.18,.09-.21,.04-.38-.13-.53-.01,0-.02-.02-.03-.03,0,0,0-.01-.02-.03,.02-.05,.05-.11,.07-.16,.11-.25,.12-.5,.03-.76-.08-.24-.28-.38-.52-.39-.24,0-.45,.13-.55,.36-.04,.1-.06,.2-.06,.31,0,.07,0,.14,0,.22-.09,0-.16,0-.24,0-.07,0-.14,0-.22,0-.01-.11-.02-.2-.04-.3-.02-.08-.03-.17-.07-.24-.03-.07-.08-.13-.14-.18-.16-.13-.36-.1-.48,.06-.07,.09-.11,.2-.12,.31-.03,.22,0,.43,.1,.63,.02,.04,.05,.08,.07,.12-.08,.09-.17,.17-.23,.26-.06,.1-.07,.21-.03,.33,.03,.11,.11,.19,.21,.27-.02,.08-.03,.16-.05,.25-.14,.65-.36,1.27-.63,1.87-.1,.22-.2,.45-.29,.68-.18,.42-.29,.86-.33,1.32,0,.07,0,.14,.03,.2,.04,.08,.08,.15,.1,.23,.04,.15,.14,.23,.27,.3,.36,.2,.62,.5,.84,.84,.05,.07,.08,.17,.1,.25,.04,.2-.05,.34-.24,.41-.03,.01-.07,.02-.11,.04,.04,.14,.11,.26,.22,.34,.36,.26,.76,.45,1.21,.49,.24,.02,.48,0,.7-.11,.18-.08,.36-.16,.53-.25,.24-.13,.48-.26,.72-.39,.05-.03,.11-.06,.19-.09,0,.05,0,.09,0,.12-.04,.13-.09,.27-.13,.4-.02,.07-.05,.13-.06,.2-.03,.17-.02,.34,.08,.49,.02,.03,.03,.07,.05,.12-.11,.03-.21,.01-.3,0-.34-.04-.68-.1-1.02-.14-.23-.02-.46-.04-.69-.03-.41,.02-.81,.05-1.22,.08-.14,0-.28,.01-.44,.02,.01-.05,.01-.08,.03-.11,.03-.07,.06-.13,.08-.19,.04-.12,.04-.23,0-.35-.07-.22-.19-.41-.35-.57-.15-.15-.29-.3-.41-.48-.08-.13-.15-.27-.23-.4-.06-.11-.11-.23-.18-.34-.05-.08-.1-.15-.17-.21-.11-.1-.24-.14-.39-.1-.07,.02-.13,.04-.21,.06-.14-.17-.24-.34-.22-.57,.03-.3,.06-.6,.12-.9,.07-.34,.2-.66,.37-.96,.2-.38,.45-.73,.7-1.07,.13-.18,.27-.36,.41-.54,.28-.38,.44-.81,.46-1.29,0-.25,.02-.49,.02-.74,0-.35,0-.7-.01-1.05,0-.69,.4-1.3,1.03-1.55,.15-.06,.31-.09,.47-.11,.33-.04,.66-.03,.99,.01,.5,.06,.86,.32,1.03,.81,.23,.66,.32,1.33,.29,2.03-.03,.61,.16,1.15,.55,1.61,.05,.06,.1,.11,.16,.17,.47,.52,.85,1.1,1.13,1.74,.28,.65,.36,1.32,.24,2.02-.01,.06-.03,.12-.05,.18-.1,.03-.19,.03-.28,0,0-.05,0-.1,0-.15,0-.23-.1-.41-.28-.53-.1-.07-.21-.12-.31-.17-.04-.02-.07-.04-.11-.06-.04-.08-.01-.16,0-.23,.03-.41-.04-.8-.22-1.16-.02-.05-.05-.1-.09-.14,0-.01-.04,0-.06,0,0-.04-.01-.09-.02-.13,0,0-.01,0-.02,0,0,0,.01-.01,.02-.02,0,0,0,.01,0,.02,0,.04,0,.09,.01,.13Zm-5.69,1.76s0-.06,.01-.09c.02-.16,.03-.32,.05-.48,.05-.38,.15-.74,.33-1.08,.08-.15,.15-.3,.23-.45,.02-.04,.06-.08,.02-.15-.2,.18-.33,.4-.44,.63-.2,.41-.29,.85-.27,1.3,0,.2,0,.2,.07,.31Z"/>
            <path class="cls-1" d="M88.49,68.54c-.01-.12-.02-.23,0-.34,.06,0,.11-.01,.17-.01,.06,0,.11,0,.17-.01,.16-.03,.21-.09,.22-.26,0-.34,0-.69,0-1.03,0-.54,0-1.08,0-1.62,0-.07,0-.14,0-.22-.19-.04-.37,0-.56-.03-.04-.11-.02-.22-.02-.34,.04-.02,.09-.05,.13-.06,.3-.11,.61-.2,.91-.32,.19-.07,.38-.06,.59-.05,.03,.16,0,.33,.03,.5,.07-.03,.13-.05,.18-.08,.27-.13,.55-.25,.84-.33,.24-.07,.48-.11,.73-.07,.47,.07,.83,.46,.86,.93,0,.09,0,.18,0,.27,0,.77,0,1.54,0,2.32,0,.04,0,.08,0,.13,.01,.15,.1,.23,.24,.24,.08,0,.17,0,.25,0,.03,0,.07,0,.11,.01,.03,.12,.02,.23,0,.35-.04,0-.07,.02-.1,.02-.63,0-1.26,0-1.9,0-.03,0-.05,0-.09-.01-.03-.12-.02-.24,0-.35,.07-.05,.15-.02,.23-.03,.17-.01,.24-.08,.24-.25,0-.44,0-.87,0-1.31,0-.27,0-.55,0-.82,0-.39-.25-.69-.63-.77-.07-.01-.14-.02-.21-.01-.23,.04-.45,.09-.68,.14-.03,0-.05,.02-.08,.04v.19c0,.81,0,1.63,0,2.44,0,.04,0,.08,0,.13,0,.13,.09,.2,.21,.22,.04,0,.08,0,.13,0,.04,0,.08,0,.13,0,.06,.11,.02,.23,.02,.36-.04,0-.08,.03-.12,.03-.62,0-1.25,0-1.87,0-.03,0-.07,0-.12-.02Z"/>
            <path class="cls-1" d="M96.83,67.77c0-.9,0-1.78,0-2.65,0-.02-.01-.04-.02-.07-.18-.04-.36,0-.54-.03-.03-.12-.02-.22,0-.33,.05-.02,.1-.05,.15-.06,.27-.1,.54-.2,.81-.3,.14-.06,.28-.09,.43-.08,.07,0,.14,0,.22,0,0,.05,.02,.1,.02,.15,0,.22,0,.44,0,.65,0,.92,0,1.84,0,2.76,0,.06,0,.11,0,.17,.01,.11,.07,.18,.19,.19,.05,0,.1,0,.15,0,.06,0,.12,0,.18,0,.05,.06,.03,.13,.04,.19,0,.06,0,.12,0,.19-.18,.04-.35,.02-.53,.02-.18,0-.35,0-.53,0h-.53c-.05-.14,0-.29-.04-.44-.04,.01-.08,.02-.11,.04-.23,.13-.47,.25-.72,.34-.28,.1-.57,.16-.87,.1-.41-.07-.7-.3-.84-.7-.06-.18-.08-.37-.08-.56,0-.69,0-1.39,0-2.08,0-.08,0-.15,0-.23-.1-.06-.2-.03-.3-.04-.09,0-.18,.01-.28-.03-.01-.11-.02-.21,0-.32,.08-.03,.16-.06,.24-.09,.23-.08,.47-.15,.69-.25,.22-.09,.45-.1,.69-.08,.01,.04,.03,.08,.03,.12,0,.06,0,.13,0,.19,0,.81,0,1.63,0,2.44,0,.14,0,.28,.05,.42,.08,.27,.29,.49,.65,.49,.29,0,.57-.05,.86-.15Z"/>
            <path class="cls-1" d="M81.11,68.55c-.02-.14-.02-.25,0-.37,.04,0,.08-.02,.12-.02,.1,0,.2,0,.29,0,.17-.01,.25-.1,.26-.27,0-.04,0-.07,0-.11,0-1.41,0-2.82,0-4.23,0-.06,0-.11,0-.17,0-.08-.05-.13-.12-.15-.07-.02-.14-.02-.21-.03-.11,0-.22,0-.34-.02-.02-.14,0-.27,0-.41,.05-.01,.09-.03,.13-.03,.76,0,1.52,0,2.27,0,.02,0,.04,0,.07,.01,.06,.13,.03,.27,.02,.39-.04,.05-.09,.04-.13,.04-.11,0-.21,0-.32,0-.12,0-.18,.07-.19,.18,0,.04,0,.08,0,.13,0,1.47,0,2.93,0,4.4,0,.05,0,.11,0,.18,.05,0,.09,.02,.13,.02,.46,0,.91,0,1.37,0,.1,0,.16-.04,.2-.13,.04-.11,.08-.23,.1-.34,.03-.14,.04-.28,.05-.42,.01-.1,.02-.19,.03-.29,.14-.04,.35-.05,.62-.02,0,.03,.02,.06,.02,.09,0,.48,0,.97,0,1.45,0,.02,0,.04-.01,.07-.04,0-.09,.02-.14,.02-.29,0-.59,0-.88,0-1.02,0-2.05,0-3.07,0-.08,0-.15,0-.25,0Z"/>
            <path class="cls-1" d="M101.18,68.26c.09-.03,.17-.04,.24-.07,.08-.03,.1-.11,.06-.19-.01-.02-.03-.05-.04-.07-.21-.31-.41-.62-.62-.93-.01-.02-.03-.03-.05-.06-.02,.02-.05,.03-.06,.05-.23,.33-.46,.67-.7,1-.02,.02-.02,.05-.03,.07q.07,.07,.39,.13c.03,.1,.02,.2,0,.32-.03,0-.07,.02-.1,.02-.48,0-.97,0-1.45,0-.03,0-.05,0-.09-.01-.03-.11-.02-.21,0-.32,.08-.02,.15-.03,.23-.05,.14-.03,.26-.1,.35-.22,.36-.46,.71-.92,1.06-1.39,0,0,0-.01,.01-.03-.01-.03-.03-.07-.05-.1-.34-.5-.68-1-1.02-1.5-.07-.11-.17-.16-.29-.19-.09-.02-.18-.03-.27-.05-.03-.12-.02-.24,0-.34,.02-.02,.02-.02,.03-.03,0,0,.01,0,.02,0,.61,0,1.22,0,1.83,0,.04,0,.08,0,.13,0,.01,0,.02,.01,.05,.02,.02,.11,.01,.22,0,.34-.1,.02-.18,.04-.26,.06-.08,.03-.1,.09-.06,.17,0,.02,.02,.04,.03,.05,.2,.29,.4,.58,.6,.87,0,.01,.02,.02,.04,.03,.14-.15,.24-.34,.36-.51,.12-.17,.24-.33,.34-.51-.08-.16-.24-.09-.36-.14-.04-.14-.04-.18,0-.36,.16-.03,1.3-.03,1.53,0,.04,.14,.05,.15,.01,.35-.06,.01-.12,.03-.18,.04-.19,.05-.34,.14-.46,.3-.26,.37-.54,.72-.8,1.08-.04,.05-.07,.1-.11,.16,.04,.06,.07,.11,.11,.16,.35,.51,.71,1.01,1.06,1.52,.09,.14,.21,.2,.36,.23,.06,.01,.12,.02,.19,.02,.03,.11,.01,.21,.01,.32-.04,.01-.08,.02-.11,.02-.61,0-1.22,0-1.83,0-.02,0-.04,0-.07-.01-.05-.1-.02-.2-.02-.29Z"/>
            <path class="cls-1" d="M88.07,68.21v.32s-.07,.02-.1,.02c-.67,0-1.35,0-2.02,0-.03,0-.07-.01-.1-.02-.03-.11-.02-.21-.01-.31,.07-.06,.14-.03,.21-.04,.08-.01,.17-.02,.25-.04,.07-.02,.12-.08,.12-.16,0-.04,0-.07,0-.11,0-.88,0-1.75,0-2.63,0-.06,0-.11,0-.16-.06-.06-.13-.04-.19-.04-.12,0-.24,.01-.36-.02v-.33c.06-.03,.12-.05,.17-.07,.28-.11,.57-.21,.84-.32,.2-.08,.39-.07,.6-.05,.03,.08,.02,.16,.02,.23,0,1.09,0,2.17,0,3.26,0,.06,0,.11,0,.17,0,.19,.08,.26,.27,.27,.06,0,.11,0,.17,0,.04,0,.08,0,.14,0Z"/>
            <path class="cls-1" d="M87.64,62.97c0,.35-.29,.64-.65,.64-.35,0-.64-.3-.64-.65,0-.35,.29-.64,.65-.64,.35,0,.64,.29,.64,.64Z"/>
            <path class="cls-1" d="M110.53,62.28c-.01,.13-.05,.25-.13,.35-.04,.05-.09,.07-.15,.05-.07-.02-.13-.05-.2-.07-.12-.04-.17-.12-.17-.24,0-.1,0-.2,.05-.29,.08-.21,.29-.25,.46-.1,.09,.08,.13,.18,.13,.3Z"/>
            <path class="cls-1" d="M108.7,62.65c-.09-.06-.12-.15-.14-.25-.02-.15,0-.3,.11-.41,.07-.07,.15-.07,.22,0,.1,.09,.15,.33,.1,.45-.01,.03-.03,.05-.05,.07-.07,.06-.15,.13-.25,.15Z"/>
            <path class="cls-1" d="M103.77,64.09s.06-.03,.07-.05c.03-.04,.05-.09,.07-.13,.03-.05,.06-.05,.12-.01,0,.05-.02,.1-.03,.15,0,.05,0,.1,0,.15,0,.05,.02,.1,.03,.17-.07,0-.13,0-.18,0-.04-.07,.01-.08,.04-.1,.01-.02,0-.05,0-.07-.02,0-.04,0-.05,0-.03,.02-.06,.02-.1,0-.03-.02-.05-.02-.06,.01,0,.02,0,.04,.01,.06,.02,.02,.07,.03,.06,.08q-.08,.03-.2,.01c.04-.15,.06-.3-.02-.46,.05,0,.07-.01,.11-.02,.04,.07,.09,.14,.13,.22Z"/>
            <path class="cls-1" d="M103.42,64.36h-.27c0-.08,.09-.11,.07-.19-.01-.06,0-.12-.01-.18-.11-.05-.06,.11-.15,.08-.04-.05-.01-.12,0-.19,.15-.03,.28-.01,.42-.02,.04,.08,.03,.14,.01,.2-.1,.02-.05-.09-.12-.1-.06,.05-.02,.12-.04,.18-.02,.08,.05,.12,.1,.2Z"/>
          </g>
          <rect class="cls-3" x="69.34" y="56.18" width="56.32" height="18.71" rx="9.35" ry="9.35"/>
        </g>
        <g>
          <rect class="cls-3" x="132.94" y="56.18" width="63.53" height="18.71" rx="9.35" ry="9.35"/>
          <g class="cls-2">
            <path class="cls-1" d="M151.82,69.58c-.24-.33-.56-.63-.79-.99-.09-.14-.21-.26-.31-.38-.25-.3-.49-.6-.73-.91-.2-.27-.45-.51-.65-.79-.22-.3-.48-.56-.69-.86-.19-.28-.44-.52-.65-.79-.2-.27-.43-.52-.62-.79-.21-.3-.47-.57-.71-.86-.01,0-.02,.01-.03,.02,0,0-.01,.02-.01,.03,0,2.11,0,4.21,0,6.33h-1.39v-8.16h1.74c.27,.33,.56,.66,.82,1,.27,.35,.56,.68,.84,1.03,.25,.31,.49,.63,.75,.94,.29,.35,.56,.71,.85,1.05,.26,.3,.5,.62,.75,.93,.29,.36,.57,.74,.86,1.11,.14,.18,.31,.33,.45,.52,.2,.27,.43,.51,.62,.8,.11,.17,.25,.33,.41,.47,.09,.08,.07,.26,.24,.26,.01,0,.02-.01,.03-.02,0,0,.02-.02,.02-.02,0-2.68,0-5.36,0-8.06h7.03v1.25h-5.58s-.07,.07-.11,.11c0,.61,0,1.23,0,1.84,0,.09,0,.17,.11,.23h4.49v1.27h-4.58v2.18h5.68v1.27h-8.81Z"/>
            <path class="cls-1" d="M170.8,69.59h-1.82c-.12-.14-.25-.29-.37-.44-.11-.14-.21-.3-.32-.44-.14-.17-.29-.33-.43-.49-.11-.13-.26-.25-.33-.41-.08-.17-.24-.24-.31-.41-.07-.15-.22-.27-.33-.41-.3-.36-.61-.72-.9-1.1-.18-.24-.37-.46-.57-.69-.21-.25-.39-.52-.59-.78-.21-.27-.45-.51-.65-.79-.2-.27-.43-.52-.62-.8-.1-.15-.25-.27-.36-.42-.2-.27-.43-.52-.65-.79-.04-.05-.07-.12-.12-.2,.29-.04,.58-.01,.87-.02,.29,0,.58,0,.88,0,.21,.19,.39,.43,.56,.67,.08,.13,.2,.24,.3,.36,.34,.42,.69,.84,1.01,1.27,.17,.22,.37,.43,.56,.64,.25-.23,.45-.49,.64-.76,.2-.27,.45-.52,.65-.79,.2-.27,.43-.51,.62-.79,.14-.21,.34-.39,.52-.6h1.74c-.03,.12-.1,.2-.17,.29-.23,.3-.49,.58-.71,.89-.09,.13-.21,.25-.32,.38-.33,.42-.67,.82-.99,1.25-.2,.27-.44,.52-.65,.79-.13,.17-.26,.34-.4,.53,1.08,1.34,2.17,2.69,3.26,4.05Z"/>
            <path class="cls-1" d="M176.63,69.58h-1.35v-6.79s-.07-.07-.11-.11h-2.77v-1.26h7.01s.05,.05,.08,.08v1.18h-2.77s-.06,.06-.09,.09v6.81Z"/>
            <path class="cls-1" d="M164.2,69.65c-.6,0-1.18,0-1.75,0,0,0-.02-.01-.04-.04,.91-1.13,1.83-2.27,2.74-3.4,.2,.12,.74,.76,.93,1.11-.62,.77-1.25,1.55-1.88,2.33Z"/>
            <path class="cls-1" d="M182.39,68.08c-.06-.37,.11-.61,.42-.74,.21-.09,.42-.14,.67-.08,.27,.06,.44,.19,.59,.36,.03,.11,.06,.19,.1,.29-.15,.04-.29,0-.43,.02q-.04-.19-.25-.32c-.22,.02-.46-.06-.66,.15v.28c.14,.21,.4,.22,.63,.27,.3,.07,.56,.16,.7,.52v.4c-.12,.17-.25,.35-.53,.42-.16,0-.39,.01-.61,0-.4-.03-.66-.27-.7-.69h.42c0,.19,.13,.29,.34,.37h.4c.12-.11,.32-.17,.29-.42-.07-.06-.15-.13-.25-.21-.19-.02-.4-.08-.61-.15-.22-.07-.46-.18-.53-.47Z"/>
            <path class="cls-1" d="M181.49,67.29h.34s.02,.01,.02,.02c0,0,.01,.02,.01,.03,0,.63,0,1.25,0,1.88-.15,.26-.18,.29-.41,.43-.68,.05-.87-.03-1.05-.33v-.29h.35c.06,.11,.11,.21,.17,.33,.16-.02,.31-.04,.44-.06,.12-.14,.12-.28,.12-.42,0-.47,0-.93,0-1.4,0-.06,0-.12,0-.18Z"/>
            <path class="cls-1" d="M179.81,69.65h-.23c-.03-.09-.07-.17-.11-.27,.07-.05,.14-.09,.25-.17-.01,0,.05,0,.12,0,.07,.08,.2,.13,.16,.3-.05,.04-.1,.08-.19,.15Z"/>
          </g>
        </g>
      </g>
      <g>
        <g>
          <g class="cls-2">
            <path class="cls-1" d="M30.32,91.09c-.08,.34-.16,.67-.24,1.01-.39,1.63-.78,3.26-1.17,4.89-.1,.42-.19,.49-.62,.49-.27,0-.54,0-.81,0-.2,0-.33-.11-.4-.29-.11-.33-.22-.67-.32-1.01-.64-2.11-1.28-4.22-1.92-6.33-.03-.1-.06-.21-.08-.32-.03-.17,.06-.26,.23-.27,.33,0,.65,0,.98,0,.21,0,.35,.09,.41,.29,.1,.35,.19,.69,.28,1.04,.43,1.7,.87,3.41,1.3,5.12,0,.03,.02,.06,.04,.13,.02-.07,.04-.11,.05-.16,.46-1.96,.93-3.93,1.39-5.89,.02-.08,.05-.17,.07-.25,.05-.18,.19-.27,.37-.27,.33,0,.67,0,1,0,.2,0,.32,.13,.37,.32,.07,.29,.14,.58,.21,.87,.42,1.79,.84,3.58,1.27,5.36,0,.02,0,.04,.04,.06,.01-.04,.03-.08,.04-.12,.52-2,1.03-4,1.55-6,.11-.43,.21-.5,.64-.5,.25,0,.5,0,.75,0,.19,0,.26,.08,.25,.27,0,.09-.03,.17-.05,.25-.75,2.4-1.5,4.8-2.25,7.2-.14,.45-.22,.51-.68,.51-.24,0-.48,0-.72,0-.29,0-.41-.1-.48-.38-.17-.71-.34-1.42-.51-2.13-.3-1.27-.61-2.53-.91-3.8,0-.03-.02-.06-.03-.08,0,0-.01,0-.02,0Z"/>
            <path class="cls-1" d="M22.44,96.43c-.19,.18-.36,.36-.56,.51-1,.77-2.11,.97-3.3,.55-.82-.29-1.26-.94-1.39-1.79-.08-.57-.04-1.14,.24-1.66,.38-.7,.98-1.1,1.73-1.3,.61-.16,1.23-.16,1.84-.08,.41,.05,.82,.14,1.24,.21,.02,0,.04,0,.05,0,0-.01,.02-.02,.02-.02,.01-.47,.03-.93-.07-1.39-.15-.7-.53-1.03-1.26-1.13-.84-.12-1.64,.04-2.43,.32-.19,.07-.39,.15-.59,.21-.16,.05-.26-.02-.27-.18-.01-.23,0-.46,0-.69,0-.16,.11-.27,.25-.33,.32-.14,.65-.28,.98-.38,.96-.29,1.94-.34,2.92-.11,1.07,.25,1.72,.94,1.89,2.02,.05,.3,.07,.61,.07,.92,0,.88,0,1.77,0,2.65,0,.3,0,.61,.08,.91,.07,.3,.2,.58,.33,.86,.12,.26,.09,.39-.14,.55-.17,.11-.34,.23-.51,.34-.24,.16-.42,.15-.59-.09-.18-.24-.33-.5-.49-.76-.03-.05-.05-.1-.08-.15Zm-.07-2.1s0,0-.01,0c0-.09,0-.19,0-.28,0-.1-.03-.13-.12-.14-.37-.05-.73-.13-1.1-.16-.43-.04-.87-.04-1.3,.06-.52,.13-.89,.42-1.01,.96-.04,.2-.05,.4-.03,.61,.04,.61,.42,1.01,1.02,1.09,.51,.07,1-.01,1.46-.24,.52-.25,.9-.63,1.01-1.23,.04-.22,.05-.45,.08-.67Z"/>
            <path class="cls-1" d="M39.78,89.02c.66,0,1.26,.11,1.85,.32,.16,.06,.3,.14,.45,.23,.14,.09,.22,.22,.22,.39,0,.19,0,.38,0,.56-.01,.17-.11,.24-.27,.2-.21-.06-.4-.16-.6-.22-.73-.24-1.48-.3-2.23-.15-.11,.02-.22,.06-.32,.11-.33,.14-.53,.39-.57,.75-.04,.39,.08,.7,.41,.92,.28,.19,.6,.31,.92,.41,.58,.19,1.17,.36,1.73,.58,.63,.24,1.11,.67,1.31,1.35,.29,1-.04,2.09-1.08,2.73-.47,.29-.99,.44-1.53,.5-.93,.1-1.84-.03-2.71-.35-.15-.05-.28-.13-.42-.2-.19-.1-.26-.27-.27-.48,0-.15,0-.3,0-.45,0-.27,.13-.36,.39-.27,.18,.06,.35,.14,.52,.21,.78,.28,1.58,.38,2.4,.27,.29-.04,.56-.12,.8-.28,.6-.38,.66-1.36-.06-1.72-.36-.17-.74-.29-1.12-.43-.45-.16-.91-.28-1.36-.46-.72-.29-1.23-.81-1.42-1.57-.23-.9,.05-1.66,.76-2.26,.53-.45,1.17-.64,1.85-.69,.13-.01,.26-.01,.35-.02Z"/>
          </g>
          <rect class="cls-3" x="1.8" y="84.02" width="56.32" height="18.71" rx="9.35" ry="9.35"/>
        </g>
        <g>
          <g class="cls-2">
            <path class="cls-1" d="M98.24,87.47c.28,.17,.56,.34,.84,.51,.2,.12,.41,.24,.61,.36,.13,.08,.19,.19,.19,.35,0,2.52,0,5.03,0,7.55,0,.16-.06,.27-.19,.35-.81,.5-1.62,.99-2.42,1.49-.12,.07-.23,.08-.35,0-.82-.5-1.63-1.01-2.45-1.51-.11-.07-.17-.17-.17-.31,0-1.01,0-2.02,0-3.03,0-.13,.06-.24,.16-.3,.82-.51,1.64-1.01,2.47-1.52,.11-.07,.22-.06,.33,0,.18,.11,.36,.22,.54,.33,.16,.1,.22,.06,.22-.13,0-1.3,0-2.61,0-3.91,0-.1,.02-.19,.1-.24,.04,0,.08,0,.12,0Zm-.23,7.3c0-.16,0-.32,0-.49,0-.04-.03-.11-.07-.13-.26-.17-.52-.33-.79-.49-.03-.02-.1-.02-.13,0-.27,.16-.53,.32-.79,.49-.03,.02-.07,.08-.07,.12,0,.33,0,.66,0,.98,0,.04,.03,.1,.07,.12,.26,.17,.52,.33,.79,.49,.03,.02,.1,.02,.13,0,.27-.16,.53-.32,.79-.49,.04-.02,.07-.09,.07-.14,0-.15,0-.31,0-.46Z"/>
            <path class="cls-1" d="M80.71,93.06c.04-.11,.12-.18,.21-.24,.79-.48,1.58-.97,2.36-1.45,.14-.09,.27-.09,.42,0,.79,.49,1.59,.98,2.38,1.46,.14,.09,.21,.2,.21,.38,0,1.32,0,2.63,0,3.95,0,.03,0,.05,0,.08-.01,.16-.12,.23-.26,.15-.23-.14-.46-.28-.7-.42-.24-.15-.48-.3-.72-.44-.13-.08-.19-.19-.19-.35,0-.61,0-1.21,0-1.82,0-.17-.06-.28-.2-.36-.18-.11-.36-.22-.54-.33-.13-.08-.25-.08-.37,0-.18,.11-.36,.23-.54,.33-.13,.08-.19,.19-.19,.35,0,.6,0,1.19,0,1.79,0,.19-.06,.32-.22,.41-.46,.27-.91,.55-1.36,.83-.14,.08-.19,.07-.28-.07v-4.25Z"/>
            <path class="cls-1" d="M93.07,94.74c0,.49,0,.98,0,1.47,0,.15-.05,.26-.17,.33-.81,.5-1.62,1-2.43,1.5-.12,.07-.23,.07-.35,0-.81-.5-1.61-1-2.42-1.49-.11-.07-.17-.17-.17-.31,0-1.01,0-2.01,0-3.02,0-.15,.07-.25,.19-.32,.69-.42,1.38-.85,2.07-1.28,.1-.06,.2-.12,.3-.19,.14-.1,.28-.09,.43,0,.72,.45,1.44,.89,2.17,1.34,.07,.04,.14,.09,.21,.13,.12,.07,.18,.18,.18,.34,0,.5,0,1,0,1.5h0Z"/>
            <path class="cls-1" d="M101.12,94.72c0-.49,0-.99,0-1.48,0-.16,.06-.27,.19-.35,.8-.49,1.6-.99,2.4-1.48,.13-.08,.26-.08,.39,0,.79,.49,1.59,.99,2.38,1.48,.14,.08,.2,.2,.2,.37,0,.22,0,.43,0,.65,0,.15-.05,.26-.17,.33-.48,.29-.95,.59-1.43,.89-.16,.1-.27,.03-.27-.17,0-.21,0-.43,0-.64,0-.11-.03-.18-.12-.23-.23-.14-.46-.28-.69-.43-.08-.05-.15-.05-.23,0-.23,.15-.46,.29-.69,.43-.08,.05-.12,.12-.12,.22,0,.28,0,.56,0,.83,0,.12,.04,.19,.14,.25,.79,.48,1.58,.97,2.37,1.45,.04,.03,.09,.06,.12,.1,.05,.08,.02,.18-.08,.24-.23,.14-.47,.28-.7,.42-.25,.15-.49,.29-.74,.44-.12,.08-.24,.07-.36,0-.8-.49-1.6-.97-2.4-1.46-.13-.08-.2-.19-.19-.36,0-.49,0-.99,0-1.48Z"/>
            <path class="cls-1" d="M104.42,94.7c.08,.26-.05,.38-.25,.51-.2,.13-.34,.12-.54,0-.2-.12-.28-.25-.27-.5,0-.25,.07-.38,.27-.5,.2-.12,.34-.13,.54,0,.19,.13,.33,.24,.25,.5Z"/>
          </g>
          <rect class="cls-3" x="65.54" y="84.02" width="56.32" height="18.71" rx="9.35" ry="9.35"/>
        </g>
      </g>
    </g>
  </g>
</svg>