<?xml version="1.0" encoding="UTF-8"?>
<svg id="Capa_2" data-name="Capa 2" xmlns="http://www.w3.org/2000/svg" viewBox="0 0 225.5 141.78">
  <defs>
    <style>
      .cls-1 {
        fill: #fff;
      }

      .cls-2 {
        opacity: .8;
      }

      .cls-3 {
        fill: none;
        stroke: #161616;
        stroke-miterlimit: 10;
      }
    </style>
  </defs>
  <g id="logos">
    <g>
      <g>
        <rect class="cls-3" x=".5" y=".5" width="68.89" height="27.39" rx="13.7" ry="13.7"/>
        <g class="cls-2">
          <g>
            <path class="cls-1" d="M22.99,18.01c-.21,.96-.4,1.84-.6,2.76h-2.21c.49-2.56,.96-5.07,1.44-7.57,.15-.78,.27-1.58,.47-2.35,.06-.23,.35-.56,.54-.56,1.6-.02,3.21-.09,4.79,.08,2.29,.24,3.15,1.56,2.7,3.82-.45,2.22-2.26,3.75-4.54,3.81-.83,.02-1.65,0-2.58,0Zm.25-1.61c.77,0,1.42,.06,2.07-.01,1.63-.17,2.64-1.43,2.55-3.08-.04-.73-.42-1.22-1.13-1.29-.84-.08-1.69-.02-2.58-.02-.3,1.43-.6,2.85-.92,4.4Z"/>
            <path class="cls-1" d="M40.22,10.35c1.8,0,3.52-.13,5.22,.03,2.36,.23,3.24,1.64,2.68,3.96-.53,2.21-2.28,3.62-4.56,3.68-.82,.02-1.65,0-2.52,0-.2,.94-.4,1.82-.6,2.75h-2.21c.67-3.5,1.34-6.98,2-10.42Zm1.06,6.07c.74,0,1.34,.04,1.93,0,1.71-.12,2.81-1.42,2.69-3.13-.05-.73-.46-1.2-1.16-1.26-.82-.07-1.64-.02-2.54-.02-.3,1.43-.6,2.87-.93,4.41Z"/>
            <path class="cls-1" d="M35.66,18c.31-1.67,.59-3.24,.88-4.81,.15-.79-.24-1.14-.96-1.17-.71-.03-1.42,0-2.2,0-.4,2.05-.8,4.06-1.19,6.09h-2.21c.69-3.5,1.38-6.98,2.08-10.48h2.21c-.17,.91-.33,1.78-.52,2.79,.94,0,1.82-.03,2.69,0,2.11,.08,2.78,.97,2.37,3.07-.27,1.34-.53,2.69-.75,4.04-.08,.47-.24,.65-.72,.59-.53-.07-1.08-.08-1.68-.11Z"/>
          </g>
        </g>
      </g>
      <g>
        <rect class="cls-3" x="78.9" y=".5" width="68.89" height="27.39" rx="13.7" ry="13.7"/>
        <g class="cls-2">
          <path class="cls-1" d="M110.01,7.44c0,.11,0,.21,0,.32,0,.22,.09,.3,.31,.25,.21-.05,.42-.1,.63-.15,.27-.06,.42,.09,.36,.36-.05,.22-.11,.45-.16,.67-.04,.16,.06,.28,.22,.28,.23,0,.46-.02,.69-.03,.29,0,.41,.17,.29,.44-.09,.21-.19,.42-.29,.63-.06,.15,.01,.28,.17,.31,.22,.04,.44,.07,.66,.11,.3,.05,.38,.25,.21,.49-.12,.18-.25,.35-.38,.53-.11,.16-.07,.29,.11,.36,.2,.08,.39,.15,.59,.22,.31,.12,.35,.32,.11,.54-.15,.14-.31,.29-.46,.43-.15,.14-.13,.28,.04,.39,.19,.12,.38,.23,.57,.35,.23,.15,.22,.35,0,.5-.19,.12-.39,.24-.59,.36-.15,.09-.16,.24-.04,.37,.16,.15,.33,.3,.49,.46,.21,.2,.17,.41-.1,.51-.2,.08-.39,.15-.59,.22-.22,.08-.26,.21-.12,.41,.12,.17,.25,.34,.37,.51,.15,.22,.08,.42-.18,.47-.22,.04-.44,.07-.66,.11-.21,.04-.28,.16-.19,.36,.09,.2,.19,.41,.28,.61,.1,.24-.01,.41-.27,.41-.22,0-.45-.01-.67-.02-.22,0-.31,.09-.26,.3,.05,.21,.1,.41,.14,.62,.07,.31-.08,.45-.39,.38-.21-.05-.41-.1-.62-.14-.2-.05-.3,.04-.3,.25,0,.23,.02,.46,.02,.69,0,.25-.17,.36-.4,.27-.22-.09-.43-.2-.64-.29-.16-.07-.29,0-.32,.17-.04,.23-.07,.45-.11,.68-.05,.27-.25,.35-.48,.19-.18-.13-.36-.26-.54-.39-.15-.11-.29-.07-.36,.11-.08,.21-.16,.43-.24,.64-.09,.24-.31,.28-.48,.1-.16-.17-.32-.35-.48-.52-.11-.12-.27-.1-.35,.03-.13,.2-.25,.4-.37,.6-.15,.23-.35,.23-.5,0-.12-.19-.24-.39-.36-.58-.09-.15-.24-.17-.36-.04-.16,.16-.3,.33-.46,.49-.2,.21-.41,.17-.52-.1-.08-.21-.15-.42-.24-.63-.07-.18-.2-.22-.36-.11-.18,.13-.36,.26-.54,.39-.23,.16-.43,.07-.47-.2-.04-.23-.07-.45-.11-.68-.03-.16-.16-.24-.31-.17-.22,.09-.43,.2-.64,.29-.24,.11-.42-.01-.42-.28,0-.23,.02-.46,.03-.69,0-.18-.11-.27-.28-.23-.22,.05-.43,.1-.65,.15-.3,.07-.44-.08-.37-.38,.05-.21,.1-.42,.15-.63,.04-.19-.04-.3-.24-.29-.23,0-.46,.02-.69,.02-.26,0-.37-.17-.27-.41,.09-.21,.19-.42,.28-.63,.08-.18,.01-.3-.18-.34-.23-.04-.45-.07-.68-.11-.27-.05-.34-.24-.19-.47,.13-.19,.27-.37,.4-.56,.1-.14,.06-.29-.11-.35-.21-.08-.43-.16-.64-.24-.25-.1-.29-.31-.1-.49,.16-.16,.33-.31,.49-.46,.16-.15,.14-.28-.05-.4-.18-.12-.37-.23-.55-.34-.23-.15-.23-.36,0-.51,.19-.12,.38-.24,.57-.35,.17-.1,.18-.24,.04-.38-.15-.15-.31-.29-.46-.43-.25-.23-.21-.43,.12-.55,.2-.07,.4-.15,.59-.22,.16-.06,.21-.21,.1-.35-.13-.19-.27-.37-.4-.56-.16-.23-.07-.42,.21-.47,.22-.04,.44-.07,.66-.11,.19-.03,.25-.16,.18-.33-.09-.2-.19-.41-.28-.61-.11-.26,0-.43,.28-.43,.22,0,.45,.02,.67,.03,.2,0,.29-.1,.25-.31-.05-.22-.11-.45-.16-.67-.05-.23,.11-.39,.34-.34,.23,.05,.46,.11,.69,.16,.19,.04,.3-.05,.29-.24,0-.22-.02-.45-.03-.67,0-.28,.17-.4,.43-.29,.2,.09,.4,.18,.59,.27,.2,.09,.32,.03,.36-.18,.03-.21,.07-.43,.11-.64,.05-.29,.24-.37,.48-.2,.18,.13,.36,.26,.54,.39,.14,.1,.29,.06,.35-.11,.08-.21,.16-.43,.24-.64,.1-.25,.31-.29,.49-.1,.16,.16,.31,.33,.46,.49,.15,.16,.28,.14,.4-.05,.12-.18,.23-.37,.34-.55,.15-.23,.36-.23,.51,0,.12,.19,.23,.38,.35,.57,.11,.17,.24,.18,.37,.04,.16-.17,.31-.34,.47-.5,.19-.19,.4-.15,.49,.1,.08,.21,.16,.43,.24,.64,.06,.16,.21,.21,.35,.11,.19-.13,.37-.27,.56-.4,.22-.15,.41-.08,.46,.19,.04,.22,.07,.44,.11,.66,.03,.2,.16,.27,.34,.19,.2-.09,.41-.19,.61-.28,.25-.11,.42,0,.42,.27,0,.12,0,.24,0,.35h-.02Zm-9.87,2.37h.25c2.17,0,4.34,0,6.5,0,.73,0,1.38,.25,1.91,.76,.53,.5,.77,1.11,.58,1.84-.12,.47-.45,.81-.82,1.1-.14,.11-.28,.21-.43,.32,.01,.02,.01,.04,.02,.04,.61,.41,.9,1.01,1.01,1.71,0,.06,.04,.12,.08,.16,.24,.22,.52,.26,.83,.2,.3-.06,.5-.23,.56-.53,.04-.19,.04-.39,.05-.59,0-.15,.05-.2,.2-.19,.18,0,.37,0,.56,0,0-.37,0-.71,0-1.06,0-.04-.08-.1-.13-.13-.33-.15-.66-.29-.99-.44-.34-.15-.44-.4-.29-.74,.17-.4,.35-.8,.53-1.19,.05-.11,.04-.19-.02-.29-1-1.59-2.4-2.6-4.24-3-.07-.01-.17,.01-.22,.06-.26,.23-.51,.48-.76,.72-.28,.26-.53,.26-.79-.01-.22-.23-.44-.47-.67-.7-.05-.05-.15-.08-.22-.07-.68,.13-1.31,.38-1.91,.72-.59,.34-1.12,.76-1.6,1.3Zm3.39,5v1.19c.49,0,.97,0,1.45,0,.15,0,.21,.04,.2,.2,0,.52,0,1.04,0,1.57q0,.25-.26,.25c-1.65,0-3.29,0-4.94,0h-.23c.18,.21,.33,.38,.47,.56,.07,.09,.15,.1,.26,.08,.27-.06,.53-.12,.8-.18,.45-.1,.65,.04,.74,.49,.06,.32,.14,.63,.2,.95,.02,.11,.07,.17,.18,.21,1.71,.72,3.42,.72,5.14,.03,.1-.04,.15-.1,.18-.21,.07-.35,.14-.71,.22-1.06,.07-.32,.3-.46,.63-.39,.3,.06,.61,.14,.91,.19,.07,.01,.17,.02,.21-.02,.19-.19,.36-.4,.58-.64h-.26c-.81,0-1.62,0-2.42,0-.15,0-.31-.05-.43-.13-.31-.21-.52-.51-.61-.88-.11-.46-.2-.92-.33-1.38-.15-.54-.52-.81-1.08-.81-.19,0-.37,0-.56,0h-1.03Zm-3.86-3.03c.07,.17,.13,.31,.19,.45,.15,.34,.05,.59-.29,.74-.31,.14-.63,.27-.93,.42-.06,.03-.13,.09-.13,.15-.09,.77,0,1.52,.18,2.27,.03,.1,.08,.12,.17,.12,.45,0,.91,0,1.36,0,.12,0,.23,0,.35,0v-4.15h-.9Zm3.84,1.23c.79,0,1.56,0,2.33,0,.12,0,.26-.06,.37-.12,.36-.19,.41-.62,.07-.85-.18-.12-.42-.21-.63-.22-.66-.03-1.33-.01-1.99,0-.05,0-.09,.01-.14,.02v1.18Zm1.43-6.14c-.29,0-.52,.25-.52,.54,0,.29,.25,.52,.53,.51,.29,0,.53-.25,.52-.55,0-.28-.25-.52-.53-.51Zm-4.43,12.76c0,.29,.24,.54,.53,.53,.28,0,.52-.24,.52-.53,0-.29-.24-.53-.53-.53-.29,0-.52,.23-.52,.52Zm10.21-7.42c0,.29,.23,.52,.52,.52,.29,0,.53-.24,.53-.53,0-.28-.24-.52-.52-.52-.29,0-.53,.24-.53,.53Zm-2.39,7.45c0,.29,.22,.52,.51,.52,.3,0,.54-.23,.54-.52,0-.29-.25-.53-.54-.53-.29,0-.51,.24-.51,.53Zm-10.22-7.47c0,.29,.23,.52,.51,.53,.29,0,.54-.24,.54-.53,0-.29-.24-.53-.54-.52-.29,0-.51,.23-.51,.52Z"/>
          <path class="cls-1" d="M114.9,11.86h1.64c0,.07,0,.14,0,.2,0,.88,0,1.75,0,2.63,0,.15,.01,.3,.02,.45,.05,.69,.67,.83,1.13,.63,.46-.2,.64-.6,.67-1.06,.04-.66,.02-1.32,.03-1.97,0-.28,0-.57,0-.87h1.61v5.06h-1.61v-.65l-.04-.02c-.07,.08-.15,.16-.22,.23-.58,.56-1.27,.71-2.03,.5-.74-.2-1.05-.77-1.15-1.48-.03-.22-.04-.45-.04-.67,0-.93,0-1.86,0-2.8v-.19Z"/>
          <path class="cls-1" d="M125.57,13.19c-.49-.12-.96-.27-1.44-.34-.32-.05-.67-.01-1,.02-.12,.01-.26,.1-.34,.2-.16,.2-.06,.48,.22,.55,.3,.08,.62,.1,.93,.17,.4,.09,.81,.18,1.2,.31,.41,.14,.66,.47,.71,.9,.03,.29,.04,.6-.02,.88-.12,.59-.57,.88-1.11,1.03-.75,.21-1.51,.18-2.27,.06-.32-.05-.64-.13-.96-.2-.05-.01-.11-.07-.12-.11,0-.37,0-.74,0-1.14,.14,.06,.26,.11,.38,.15,.65,.24,1.33,.37,2.03,.28,.12-.02,.24-.06,.35-.11,.17-.08,.24-.22,.24-.41,0-.19-.12-.32-.3-.35-.32-.07-.65-.11-.97-.17-.27-.05-.55-.1-.81-.19-.71-.24-1.03-.73-.98-1.48,.05-.84,.51-1.31,1.43-1.46,.92-.15,1.83-.02,2.73,.2,.04,.01,.1,.09,.1,.14,0,.37,0,.73,0,1.08Z"/>
          <path class="cls-1" d="M130.45,15.77v1.17c-.08,0-.15,0-.22,0-.58-.01-1.16,0-1.73-.06-.75-.09-1.11-.49-1.17-1.24-.03-.4-.03-.79-.04-1.19,0-.47,0-.94,0-1.43h-.8v-1.16h.79v-1.45h1.63v1.44h1.67v1.16h-1.66c0,.06,0,.11,0,.15,0,.68,0,1.37,0,2.05,0,.42,.14,.56,.56,.57,.32,0,.63,0,.96,0Z"/>
        </g>
      </g>
      <g>
        <g class="cls-2">
          <path class="cls-1" d="M190.62,18.12c.73-.42,1.45-.84,2.16-1.25,.21,.26,.38,.52,.59,.74,.83,.86,1.83,1.05,2.95,.72,.45-.13,.79-.43,.9-.91,.09-.42,.02-.83-.31-1.12-.23-.21-.5-.39-.78-.53-.53-.26-1.09-.48-1.63-.74-.47-.23-.95-.47-1.39-.75-1.17-.77-1.71-1.87-1.68-3.26,.03-1.64,1.04-2.92,2.66-3.33,1.07-.27,2.13-.23,3.16,.19,.84,.35,1.43,.98,1.87,1.76,0,.01,0,.03,.01,.05-.69,.44-1.37,.88-2.07,1.33-.07-.11-.13-.21-.2-.3-.25-.37-.57-.67-1.02-.78-.32-.08-.64-.09-.96,0-1,.3-1,1.47-.5,1.93,.19,.18,.42,.34,.65,.45,.49,.24,1,.46,1.51,.68,.72,.32,1.42,.67,2.04,1.17,.87,.7,1.29,1.61,1.34,2.72,.03,.73-.08,1.42-.44,2.07-.44,.78-1.12,1.3-1.96,1.58-1.74,.57-3.45,.47-5.07-.43-.81-.45-1.41-1.12-1.84-1.97Z"/>
          <path class="cls-1" d="M181.17,18.4c.72-.44,1.44-.87,2.17-1.32,.08,.14,.16,.27,.24,.4,.17,.27,.35,.54,.63,.72,.55,.35,1.12,.34,1.69,.07,.36-.17,.48-.52,.54-.89,.04-.23,.05-.47,.05-.7,0-2.92,0-5.85,0-8.77v-.21h2.67c0,.05,0,.1,0,.16,0,2.96,0,5.91,0,8.87,0,.61-.05,1.21-.25,1.79-.35,1.04-1.05,1.76-2.09,2.09-1.22,.39-2.45,.37-3.64-.14-.92-.4-1.56-1.09-2-1.98,0-.02-.02-.04-.03-.08Z"/>
        </g>
        <rect class="cls-3" x="156.11" y=".5" width="68.89" height="27.39" rx="13.7" ry="13.7"/>
      </g>
      <g>
        <g class="cls-2">
          <path class="cls-1" d="M39.23,53.46c.76,.77,1.38,1.67,2.32,2.24,.46,.28,.97,.42,1.51,.33,.55-.09,.8-.33,.84-.89,.05-.64,.07-1.28,.07-1.93,0-.82,0-1.65-.06-2.47-.05-.72-.3-.92-1.02-1-.1-.01-.19-.1-.29-.15,.1-.06,.2-.17,.3-.17,1.45,.01,2.91,0,4.36,.07,1.66,.09,2.94,1.14,3.25,2.55,.44,2.07-.66,3.77-2.73,4.18-.5,.1-1.02,.15-1.53,.16-1.88,.02-3.76,0-5.64,.01-.27,0-.45-.06-.62-.29-.63-.82-1.27-1.62-1.93-2.41-.12-.14-.33-.2-.49-.3-.06,.03-.11,.07-.17,.1,.07,.66,.09,1.32,.21,1.96,.08,.46,.51,.52,.9,.59,.11,.02,.21,.11,.32,.16-.12,.06-.23,.17-.35,.17-1.15,.01-2.29,.01-3.44,0-.11,0-.22-.1-.33-.15,.1-.06,.19-.17,.3-.18,.7-.08,.98-.27,1.01-.97,.04-1.5,.03-3,0-4.51-.01-.54-.34-.76-.98-.83-.11-.01-.21-.11-.31-.17,.11-.06,.21-.16,.32-.16,1.36,.01,2.73,.01,4.09,.08,.39,.02,.81,.18,1.15,.38,1.19,.68,1.24,2.28,.09,3.04-.33,.22-.73,.35-1.15,.54Zm6.11-.86c0,.46,0,.93,0,1.39,.01,.43,.01,.87,.08,1.3,.03,.16,.2,.38,.36,.44,1.11,.42,2.58-.27,3-1.38,.28-.75,.31-1.53,.16-2.31-.21-1.17-.81-1.79-1.98-2-.39-.07-.79-.02-1.19-.06-.33-.03-.46,.08-.44,.43,.02,.73,0,1.46,0,2.2Zm-7.2-2.62c-.06,0-.13,0-.19,0-.4-.07-.52,.11-.49,.49,.03,.5,0,1,0,1.5q0,.99,1,.9c.66-.06,1.14-.42,1.26-1,.22-1.01-.25-1.99-1.59-1.89Z"/>
          <path class="cls-1" d="M62.09,53.37c0,.67-.04,1.19,.01,1.69,.07,.71,.3,.9,1.02,.96,.24,.02,.38,.07,.27,.36h-4.09v-.29s.05-.04,.07-.04c1.02-.1,1.22-.31,1.24-1.33,.02-1.26,.01-2.52,0-3.78-.01-.84-.24-1.08-1.06-1.16-.26-.02-.31-.12-.22-.38,.49,0,.99,0,1.49,0,.98,.02,1.96,.02,2.93,.08,.37,.03,.76,.18,1.09,.36,1.23,.68,1.3,2.31,.13,3.09-.32,.22-.71,.34-1.13,.54,.96,.9,1.63,2.14,3.06,2.5,.69,.17,1.14-.12,1.27-.81,.03-.15,.04-.31,.04-.46,0-1.21,0-2.42,0-3.63,0-.96-.19-1.15-1.13-1.32-.09-.02-.17-.16-.25-.25l.08-.09h6.1c.04,.59,.08,1.18,.12,1.77,0,.06-.07,.12-.1,.17-.07-.04-.14-.08-.2-.13-.03-.02-.04-.07-.04-.11-.1-.79-.63-1.07-1.35-1.1-.58-.02-1.15,0-1.76,0v2.34c1.22,.21,1.69-.08,1.79-1.16,.1,0,.2-.01,.33-.02v3.05c-.2,.05-.33,.07-.36-.21-.07-.75-.18-.86-.94-.95-.26-.03-.53-.03-.88-.05,.04,.74,.06,1.43,.13,2.11,.04,.37,.31,.6,.69,.61,.6,.01,1.21,.02,1.81-.03,.46-.03,.78-.31,.9-.78,.03-.1,.04-.21,.09-.29,.04-.07,.13-.12,.2-.17,.03,.07,.1,.15,.1,.22-.02,.56-.06,1.12-.1,1.72h-.41c-2.61,0-5.23,0-7.84,0-.27,0-.45-.08-.61-.29-.63-.82-1.27-1.62-1.92-2.42-.11-.13-.3-.2-.52-.33Zm-.04-3.35v1.86c0,1.08,.03,1.11,1.12,.94,.72-.11,1.14-.6,1.15-1.36,0-.79-.39-1.33-1.11-1.43-.36-.05-.73,0-1.15,0Z"/>
          <path class="cls-1" d="M23.02,53.53c.34-1.01,.69-2.01,1.02-3.02,.19-.58,.4-1.17,.55-1.76,.17-.67-.04-.95-.72-1.07-.09-.02-.19,0-.27-.03-.09-.03-.16-.11-.24-.16,.08-.06,.15-.16,.23-.17,.2-.03,.41,0,.62,0,.88,0,1.75,0,2.63,0,.12,0,.24,.11,.36,.17-.11,.06-.21,.16-.32,.17-.71,.05-1.24,.37-1.48,1.04-.47,1.32-.93,2.64-1.38,3.96-.42,1.24-.82,2.48-1.24,3.72-.04,.12-.15,.21-.22,.32-.07-.11-.18-.21-.22-.33-.64-1.94-1.27-3.88-1.91-5.81-.04-.12-.08-.23-.16-.44-.09,.23-.15,.37-.2,.51-.63,1.89-1.25,3.78-1.87,5.66-.03,.09-.04,.18-.09,.25-.04,.06-.12,.12-.2,.14-.03,0-.11-.09-.13-.15-.13-.36-.25-.73-.36-1.1-.64-1.99-1.29-3.98-1.93-5.97-.09-.27-.2-.53-.3-.79-.26-.65-.74-.99-1.45-1.03-.09,0-.18-.12-.26-.18,.1-.05,.19-.15,.29-.15,1.34-.01,2.68-.01,4.02,0,.09,0,.19,.1,.28,.16-.09,.06-.17,.14-.27,.17-.13,.04-.28,.03-.42,.07-.51,.12-.65,.3-.62,.81,.01,.22,.06,.43,.12,.64,.44,1.37,.89,2.73,1.34,4.1,.03,.09,.08,.18,.15,.36,.09-.22,.15-.37,.2-.52,.6-1.8,1.2-3.6,1.82-5.4,.05-.14,.2-.26,.3-.38,.1,.13,.25,.24,.3,.38,.61,1.81,1.2,3.63,1.8,5.45,.04,.13,.09,.26,.13,.39,.04,0,.08,0,.11,0Z"/>
          <path class="cls-1" d="M51.09,47.66c-.09-.25-.04-.37,.22-.37,1.53,.01,3.07-.03,4.59,.04,.57,.03,1.18,.22,1.67,.51,1.58,.92,1.56,3.13,0,4.09-.59,.36-1.24,.5-1.91,.52-.47,.02-.95,0-1.46,0,0,.68,0,1.33,0,1.98,0,.12,.03,.23,.04,.35,.09,.81,.38,1.1,1.19,1.2,.21,.03,.52-.03,.37,.41-.77,0-1.55,0-2.33,0s-1.57,0-2.36,0c-.11-.24-.09-.39,.2-.39,.94-.03,1.3-.4,1.36-1.41,.05-.89,.05-1.77,.05-2.66,0-.99,0-1.98-.07-2.97-.07-.97-.39-1.23-1.38-1.29-.05,0-.1,0-.17-.02Zm3.08,4.05c.48,0,.91,0,1.33,0,.84-.02,1.41-.51,1.59-1.35,.2-.91-.17-1.82-.87-2.16-.13-.06-.26-.13-.4-.14-.47-.03-.95-.05-1.42-.04-.08,0-.22,.14-.22,.22-.01,1.14-.01,2.28-.01,3.47Z"/>
          <path class="cls-1" d="M30.55,49.15c.76,0,1.79,.39,2.63,1.2,1.48,1.42,1.49,3.61,.04,5.06-1.84,1.83-5.11,1.59-6.6-.49-.98-1.38-.86-3.2,.31-4.42,.87-.91,1.95-1.34,3.62-1.34Zm-3.06,3.73c-.02,.65,.12,1.28,.43,1.85,.45,.84,1.16,1.28,2.12,1.31,.99,.03,1.8-.35,2.28-1.23,.69-1.28,.68-2.59,0-3.87-.87-1.62-3.42-1.63-4.32-.02-.34,.61-.5,1.26-.49,1.95Z"/>
          <path class="cls-1" d="M75.63,55.99c-.36,.1-.17,.74-.72,.64v-2.81c.29-.12,.36,.03,.42,.29,.3,1.3,1.45,2.09,2.66,1.85,.44-.09,.76-.31,.88-.76,.11-.43-.07-.77-.38-1.02-.27-.21-.57-.39-.88-.55-.47-.24-.96-.44-1.42-.69-.69-.37-1.21-.89-1.29-1.71-.11-1.08,.77-2.01,1.97-2.06,.33-.01,.67,.01,.99,.09,.32,.08,.61,.25,.91,.38,.24-.11,.13-.66,.62-.46v2.38c-.11,.01-.23,.02-.35,.04-.11-.3-.18-.59-.31-.85-.38-.79-1.24-1.17-2.03-.9-.33,.11-.6,.31-.67,.68-.07,.37,.09,.68,.4,.86,.59,.34,1.2,.64,1.8,.96,.34,.18,.7,.35,1,.58,1.1,.86,1.08,2.36-.04,3.2-.9,.68-2.2,.72-3.23,.09-.12-.07-.23-.15-.33-.21Z"/>
          <path class="cls-1" d="M82.08,55.97c-.16,.24-.31,.47-.47,.68-.02,.03-.12,0-.21-.01v-2.8c.31-.14,.37,.06,.42,.29,.27,1.1,1,1.75,2.13,1.86,.24,.02,.49,0,.72-.08,.75-.25,.96-1.06,.4-1.62-.24-.24-.55-.43-.85-.59-.51-.27-1.05-.49-1.56-.77-.69-.37-1.21-.89-1.28-1.71-.1-1.09,.76-1.97,1.94-2.06,.69-.05,1.33,.1,1.88,.49,.31-.07,.17-.7,.69-.46v2.37c-.11,.01-.23,.02-.36,.03-.1-.29-.17-.56-.29-.82-.38-.81-1.25-1.2-2.05-.93-.33,.11-.6,.31-.67,.68-.07,.37,.09,.68,.4,.86,.63,.36,1.29,.68,1.94,1.03,.3,.16,.62,.32,.89,.54,1.06,.86,1.03,2.31-.05,3.15-.9,.7-2.22,.75-3.26,.11-.12-.07-.23-.15-.37-.24Z"/>
        </g>
        <rect class="cls-3" x=".5" y="38.3" width="100.02" height="27.39" rx="13.7" ry="13.7"/>
      </g>
      <g>
        <rect class="cls-3" x="109.77" y="38.3" width="100.02" height="27.39" rx="13.7" ry="13.7"/>
        <g class="cls-2">
          <path class="cls-1" d="M187.84,56.09h-1.24v-8.28h1.24v8.28Z"/>
          <path class="cls-1" d="M138.12,52.46c.86-.5,1.63-.93,2.38-1.39,.1-.06,.14-.27,.15-.42,.01-.9,.02-1.8,0-2.69,0-.26,.08-.41,.31-.54,.87-.48,1.72-.98,2.58-1.48,.21-.12,.37-.13,.59,0,.85,.51,1.71,1,2.58,1.48,.22,.12,.33,.27,.33,.53-.01,.99-.01,1.98,0,2.97,0,.27-.11,.41-.33,.54-.78,.44-1.55,.9-2.34,1.33-.23,.13-.32,.28-.31,.54,.01,.87,0,1.74,0,2.61,0,.3-.09,.48-.36,.64-1.82,1.03-3.63,2.07-5.43,3.12-.26,.15-.47,.16-.74,0-1.82-1.06-3.64-2.11-5.47-3.14-.26-.15-.34-.32-.34-.6,0-3.22,0-6.43,0-9.65,0-.29,.1-.46,.35-.6,.86-.47,1.7-.96,2.54-1.46,.21-.12,.37-.14,.59,0,.85,.51,1.71,1,2.58,1.48,.26,.14,.34,.33,.34,.61,0,1.85,0,3.7,0,5.55,0,.16,0,.31,0,.57Zm-.44,6.79c0-.89,0-1.72,0-2.54,0-.25-.09-.39-.3-.5-.76-.42-1.51-.87-2.28-1.28-.29-.16-.41-.34-.41-.69,.02-1.73-.05-3.46,.03-5.19,.04-.89-.22-1.41-1.03-1.75-.51-.21-.97-.54-1.49-.84-.02,.16-.03,.25-.03,.34,0,3,0,6,0,9.01,0,.26,.13,.37,.32,.49,1.59,.91,3.18,1.83,4.78,2.74,.11,.06,.23,.11,.41,.2Zm5.95-5.98c-.15,.06-.22,.08-.29,.12-1.66,.95-3.33,1.89-4.99,2.85-.12,.07-.21,.27-.22,.41-.03,.52-.01,1.04-.01,1.57,0,.32,0,.65,0,.98,.1-.02,.13-.01,.15-.03,1.72-.99,3.44-1.97,5.16-2.96,.1-.06,.19-.2,.2-.31,.02-.86,0-1.71,0-2.64Zm-.25-.44c-.78-.45-1.5-.84-2.19-1.27-.24-.15-.42-.13-.65,0-1.59,.93-3.2,1.84-4.8,2.77-.1,.06-.19,.13-.33,.22,.15,.1,.26,.17,.37,.23,.57,.32,1.15,.63,1.71,.97,.28,.18,.51,.18,.8,0,1.56-.91,3.13-1.8,4.7-2.69,.11-.06,.22-.14,.4-.24Zm-5.72-6.38c-.78,.45-1.48,.86-2.2,1.25-.25,.13-.32,.3-.32,.57,.01,1.81,0,3.61,0,5.42,0,.13,.01,.25,.03,.43,.17-.08,.28-.13,.39-.2,.59-.34,1.18-.69,1.78-1.01,.26-.14,.34-.31,.34-.6-.01-1.79,0-3.58,0-5.38,0-.13-.01-.26-.02-.48Zm5.97,6.01c0-.97,0-1.83,0-2.68,0-.08-.04-.2-.1-.24-.78-.46-1.56-.91-2.43-1.42,0,.75,.05,1.4-.01,2.05-.06,.64,.16,1.01,.74,1.27,.6,.28,1.16,.64,1.82,1.02Zm.43,0c.86-.49,1.62-.92,2.38-1.38,.1-.06,.16-.27,.16-.41,.02-.59,0-1.18,0-1.77,0-.23,0-.46,0-.79-.88,.51-1.65,.95-2.42,1.4-.06,.04-.12,.15-.12,.23,0,.87,0,1.73,0,2.71Zm2.3-4.72c-.51-.3-.99-.51-1.39-.83-.78-.63-1.49-.63-2.27,0-.4,.32-.88,.53-1.39,.82,.85,.49,1.62,.93,2.4,1.37,.07,.04,.19,.04,.25,0,.78-.44,1.55-.88,2.4-1.37Zm-8.92-1.69c-.61-.35-1.18-.62-1.67-.99-.6-.45-1.11-.44-1.71,0-.5,.37-1.07,.64-1.67,.98,.84,.48,1.62,.93,2.39,1.37,.07,.04,.19,.04,.25,0,.78-.44,1.55-.88,2.4-1.37Z"/>
          <path class="cls-1" d="M162.92,56.05h-1.21c-.01-.2-.03-.4-.05-.67-.61,.62-1.29,.94-2.13,.81-.81-.12-1.46-.51-1.92-1.19-.84-1.24-.62-2.97,.51-3.93,1.04-.89,2.41-.83,3.53,.18,.02-.24,.04-.44,.06-.67h1.21v5.46Zm-2.92-4.51c-.95,0-1.65,.77-1.64,1.8,0,1,.72,1.77,1.64,1.78,.95,0,1.7-.8,1.69-1.82,0-1.02-.73-1.77-1.69-1.76Z"/>
          <path class="cls-1" d="M173.48,56.05h-1.17c-.02-.2-.04-.4-.06-.67-.59,.62-1.25,.93-2.06,.83-.78-.1-1.42-.45-1.9-1.08-.89-1.19-.75-2.95,.32-3.96,1.03-.97,2.38-.96,3.63,.06,.03-.22,.05-.43,.08-.65h1.16v5.47Zm-1.21-2.74c-.01-1.02-.73-1.77-1.69-1.76-.95,0-1.65,.78-1.64,1.81,.02,1.03,.74,1.8,1.68,1.78,.94-.02,1.65-.81,1.64-1.82Z"/>
          <path class="cls-1" d="M181.34,53.79c.09,.68,.41,1.1,.96,1.32,.7,.27,1.4,.24,2.39-.7,.25,.2,.51,.4,.77,.6-.74,1.07-2.07,1.48-3.42,1.07-1.2-.36-1.91-1.35-1.93-2.66-.02-2.01,1.74-3.41,3.6-2.87,1.23,.36,2.07,1.65,1.96,2.95-.03,.3-.21,.29-.41,.29-1.13,0-2.25,0-3.38,0-.16,0-.32,0-.54,0Zm.07-.93h3.04c.05-.79-.63-1.44-1.5-1.45-.9,0-1.58,.62-1.54,1.45Z"/>
          <path class="cls-1" d="M156.74,54.89v1.15h-3.83c0-.15-.02-.29-.02-.43,0-2.44,0-4.87,0-7.31,0-.39,.09-.54,.51-.52,.94,.04,.79-.1,.79,.78,0,1.94,0,3.88,0,5.82v.51h2.55Z"/>
          <path class="cls-1" d="M180.05,50.56c-.18,.47-.33,.86-.48,1.26-.5,1.3-1,2.6-1.49,3.9-.1,.27-.23,.38-.52,.36-.4-.03-.9,.12-1.18-.07-.28-.19-.34-.69-.49-1.07-.51-1.31-1.01-2.62-1.51-3.93-.05-.12-.09-.25-.16-.44,.4,0,.75-.02,1.1,.01,.1,0,.21,.18,.26,.29,.45,1.15,.89,2.3,1.33,3.44,.05,.13,.11,.27,.21,.5,.09-.2,.15-.32,.2-.45,.43-1.11,.87-2.22,1.27-3.34,.13-.35,.29-.54,.68-.48,.22,.03,.45,0,.76,0Z"/>
          <path class="cls-1" d="M167.49,51.81h-2.21v4.24h-1.23v-5.49c.49,0,.98,0,1.47,0,.55,0,1.1,0,1.65,0,.21,0,.33,.05,.32,.29,0,.3,0,.61,0,.97Z"/>
        </g>
      </g>
      <g>
        <g class="cls-2">
          <path class="cls-1" d="M20.85,92.26s-.08-.03-.12-.04c-.79-.22-1.51-.57-2.15-1.07-.32-.26-.6-.56-.74-.96-.13-.37-.08-.72,.1-1.06,.19-.34,.47-.61,.78-.83,.6-.42,1.26-.71,1.96-.91,.03,0,.07-.02,.1-.03,.01,0,.02-.01,.04-.03,0-.03,0-.07-.01-.11-.06-.36-.14-.71-.19-1.07-.08-.62-.05-1.24,.14-1.84,.1-.31,.25-.6,.52-.8,.2-.14,.41-.22,.66-.24,.43-.03,.84,.08,1.23,.25,.51,.23,.97,.53,1.4,.89,.16,.13,.3,.27,.45,.4,.03,.02,.05,.04,.09,.08,.07-.07,.14-.13,.21-.2,.47-.45,1-.82,1.58-1.11,.35-.17,.71-.29,1.1-.3,.54-.02,.95,.19,1.22,.67,.18,.32,.28,.68,.32,1.04,.08,.74,0,1.46-.17,2.18,0,.03-.02,.07-.02,.1,0,.01,0,.02,0,.05,.05,.02,.1,.04,.15,.05,.48,.15,.94,.33,1.39,.57,.38,.21,.74,.45,1.03,.77,.11,.12,.21,.25,.28,.38,.29,.5,.23,.99-.09,1.46-.17,.26-.4,.47-.64,.65-.49,.37-1.04,.64-1.62,.85-.16,.06-.33,.11-.5,.17,0,.05,0,.09,.02,.14,.15,.59,.21,1.19,.19,1.79-.02,.48-.1,.94-.33,1.37-.11,.2-.25,.36-.42,.5-.31,.25-.67,.3-1.05,.24-.49-.07-.92-.27-1.34-.53-.44-.26-.83-.58-1.2-.93-.03-.03-.06-.05-.1-.08-.04,.04-.09,.07-.13,.11-.47,.45-.99,.84-1.58,1.13-.44,.22-.91,.32-1.4,.32-.49,0-.84-.23-1.08-.64-.19-.31-.27-.65-.31-1-.08-.74,0-1.47,.18-2.19,.01-.05,.02-.1,.03-.15,0-.01,0-.02,0-.05Zm4.05-.1s0,0,0,.01c.46-.01,.91-.03,1.37-.04,.1,0,.17-.04,.22-.12,.44-.68,.86-1.38,1.22-2.1,.05-.09,.05-.17,0-.27-.21-.37-.41-.75-.62-1.12-.19-.32-.39-.64-.59-.96-.05-.08-.11-.12-.2-.12-.15,0-.3-.02-.45-.02-.63,0-1.27,.02-1.9,.02-.14,0-.24,.06-.33,.18-.42,.65-.81,1.31-1.16,2-.05,.09-.05,.17,0,.27,.36,.72,.77,1.42,1.21,2.09,.07,.11,.16,.16,.28,.16,.04,0,.08,0,.12,0,.28,0,.55,0,.83,0Zm-6.54-2.39c0,.13,.04,.24,.1,.35,.13,.24,.32,.43,.53,.6,.57,.45,1.22,.74,1.92,.93,.11,.03,.13,.02,.16-.1,.18-.56,.38-1.11,.62-1.64,.03-.07,.03-.13,0-.2-.25-.54-.46-1.1-.65-1.66-.04-.11-.04-.12-.16-.08-.18,.06-.35,.11-.53,.18-.42,.15-.83,.35-1.2,.6-.24,.16-.47,.34-.64,.58-.1,.14-.16,.28-.16,.45Zm6.31-4.4s-.07-.07-.1-.11c-.4-.41-.86-.74-1.37-1-.32-.17-.65-.31-1.02-.34-.35-.03-.58,.1-.73,.38-.18,.34-.23,.7-.24,1.07-.02,.57,.05,1.13,.19,1.68,.01,.04,.03,.09,.04,.14,.04,0,.08,0,.11-.01,.58-.13,1.17-.23,1.76-.29,.1,0,.17-.05,.23-.13,.32-.44,.66-.86,1.03-1.26,.03-.03,.06-.07,.1-.12Zm-3.47,8.68c0,.07,0,.15,0,.22,0,.32,.05,.64,.18,.93,.05,.12,.12,.24,.23,.32,.18,.14,.38,.17,.6,.15,.24-.02,.47-.09,.7-.19,.63-.27,1.17-.68,1.66-1.14,.09-.09,.09-.1,0-.19-.4-.42-.76-.87-1.1-1.34-.06-.08-.13-.11-.22-.12-.38-.05-.75-.1-1.13-.15-.2-.03-.41-.08-.61-.12-.09-.02-.1,0-.13,.08,0,.02-.01,.04-.02,.06-.13,.49-.19,.98-.18,1.48Zm4.32-8.73s.05,.07,.08,.1c.09,.1,.18,.2,.26,.3,.28,.35,.56,.7,.84,1.05,.05,.06,.1,.1,.18,.11,.58,.05,1.15,.14,1.72,.26,.12,.03,.13,.02,.16-.09,0,0,0-.02,0-.03,.19-.69,.23-1.38,.15-2.09-.03-.26-.09-.51-.23-.73-.13-.21-.33-.32-.58-.33-.25,0-.48,.05-.7,.14-.53,.22-1.01,.53-1.45,.91-.14,.12-.28,.26-.43,.4Zm.06,8.95s.01,.04,.02,.05c.02,.03,.05,.05,.07,.07,.41,.38,.86,.72,1.35,.99,.29,.16,.59,.28,.92,.32,.3,.03,.55-.06,.72-.33,.04-.07,.08-.13,.11-.21,.12-.27,.17-.56,.18-.85,.03-.6-.03-1.19-.18-1.77-.01-.04-.03-.09-.05-.13-.04,0-.07,0-.1,0-.56,.12-1.12,.21-1.68,.27-.09,.01-.15,.05-.21,.13-.32,.45-.66,.88-1.02,1.28-.05,.06-.1,.12-.14,.17Zm3.62-2.64s.09-.02,.12-.03c.13-.04,.26-.08,.39-.13,.54-.2,1.06-.44,1.51-.81,.21-.18,.41-.37,.52-.63,.07-.16,.07-.33,0-.49-.09-.2-.22-.37-.39-.51-.47-.39-.99-.68-1.57-.89-.16-.06-.33-.11-.49-.16-.09-.03-.1-.02-.14,.07,0,.02-.01,.03-.02,.05-.17,.54-.37,1.07-.6,1.58-.03,.08-.04,.14,0,.22,.24,.52,.44,1.05,.61,1.59,.01,.04,.03,.09,.05,.14Zm-7.11-2.58c.28-.48,.56-.95,.84-1.42,0-.02,.01-.04,.02-.08-.46,.05-.9,.12-1.34,.23,.02,.21,.37,1.13,.48,1.27Zm.82,3s.01-.02,.02-.03c-.14-.24-.28-.49-.43-.73-.15-.25-.27-.5-.43-.75-.11,.14-.45,1.11-.46,1.29,.43,.1,.86,.18,1.3,.23Zm2.18,1.74c.16-.11,.79-.89,.83-1.02-.51,0-1.02,0-1.53,0-.03,0-.07,0-.1,0,0,0,0,0-.01,0,0,0,0,0,0,.02,.26,.34,.53,.67,.83,.98Zm.83-7c-.1-.2-.73-.92-.85-.98-.01,0-.03,.02-.04,.03-.25,.3-.5,.59-.75,.89-.01,.01-.01,.04-.02,.07h1.66Zm2.22,3.8s-.02,0-.04,0c-.27,.47-.53,.94-.81,1.41,.18,.03,1.14-.15,1.27-.23-.12-.4-.26-.79-.43-1.18Zm-.05-1.6c.12-.18,.43-1.06,.42-1.21-.41-.1-.83-.17-1.28-.23,.29,.49,.57,.96,.85,1.44Z"/>
          <path class="cls-1" d="M38.59,90.59c.84,1.26,1.66,2.51,2.5,3.78-.06,0-.09,.02-.13,.02-.37,0-.73,0-1.1,0-.09,0-.14-.04-.18-.11-.29-.46-.59-.92-.88-1.38-.36-.56-.71-1.11-1.06-1.67-.1-.15-.2-.3-.29-.46-.05-.08-.11-.11-.2-.11-.53,0-1.05,0-1.58,0-.16,0-.16,0-.16,.17,0,1.11,0,2.22,0,3.32,0,.04,0,.09,0,.13,0,.08-.02,.1-.1,.1-.32,0-.64,0-.96,0-.08,0-.09-.02-.1-.1,0-.04,0-.08,0-.12,0-2.97,0-5.95,0-8.92,0-.23-.01-.22,.22-.22,1.19,0,2.38,0,3.57,0,.46,0,.91,.08,1.33,.27,.66,.3,1.12,.77,1.37,1.45,.12,.32,.18,.65,.18,.99,0,.38-.02,.75-.15,1.11-.29,.84-.88,1.37-1.73,1.62-.14,.04-.29,.06-.43,.09-.03,0-.06,.02-.12,.03Zm-3.1-2.74c0,.55,0,1.1,0,1.65,0,.14,.01,.15,.15,.15,.01,0,.03,0,.04,0,.76,0,1.52,0,2.28,0,.17,0,.34-.02,.5-.06,.54-.12,.95-.43,1.2-.93,.15-.31,.19-.63,.17-.97-.03-.54-.27-.98-.71-1.3-.33-.24-.71-.33-1.11-.34-.78,0-1.56,0-2.34,0-.02,0-.04,0-.06,0-.08,0-.1,.02-.1,.1,0,.04,0,.08,0,.12,0,.53,0,1.05,0,1.58Z"/>
          <path class="cls-1" d="M47.81,92.86c.17,.23,.33,.44,.49,.67-.04,.05-.08,.09-.12,.12-.58,.51-1.26,.81-2.03,.89-.77,.08-1.52-.02-2.22-.39-.63-.33-1.1-.83-1.4-1.47-.24-.5-.35-1.02-.36-1.58-.01-.6,.08-1.18,.34-1.72,.48-1.02,1.26-1.67,2.37-1.89,.7-.14,1.38-.07,2.03,.23,.48,.22,.87,.56,1.17,.99,.35,.51,.56,1.08,.63,1.69,.03,.25,.04,.5,.05,.75,0,.18,0,.18-.18,.18-.62,0-1.23,0-1.85,0-1.09,0-2.18,0-3.27,0-.25,0-.21,.02-.18,.2,.11,.75,.45,1.36,1.09,1.78,.37,.24,.78,.36,1.22,.37,.67,.02,1.29-.16,1.84-.54,.1-.07,.18-.14,.27-.22,.03-.02,.06-.05,.1-.08Zm-2.32-2.29c.7,0,1.41,0,2.11,0,.13,0,.15-.02,.14-.15-.03-.25-.08-.5-.18-.74-.23-.57-.61-.99-1.19-1.22-.35-.14-.72-.18-1.1-.14-.47,.04-.88,.21-1.22,.53-.44,.41-.67,.93-.76,1.52-.02,.18-.06,.21,.19,.2,.67,0,1.35,0,2.02,0Z"/>
          <path class="cls-1" d="M54.3,90.96s0-.08,0-.11c0-.36,0-.72,0-1.07,0-.33-.1-.63-.32-.88-.17-.2-.38-.32-.62-.41-.35-.13-.72-.15-1.08-.12-.66,.06-1.21,.35-1.67,.82-.02,.02-.05,.05-.08,.07,0,0-.02,0-.03,.01-.01-.01-.03-.02-.04-.04-.13-.19-.26-.38-.39-.57-.06-.08-.05-.09,0-.15,.3-.3,.64-.55,1.03-.73,.37-.17,.75-.27,1.16-.3,.5-.05,1-.02,1.49,.11,.3,.08,.57,.21,.82,.4,.37,.29,.59,.68,.7,1.13,.06,.25,.07,.51,.07,.77,0,1.44,0,2.88,0,4.32,0,.02,0,.04,0,.06,0,.1-.02,.12-.11,.12-.28,0-.55,0-.83,0-.09,0-.11-.02-.11-.12,0-.16,0-.31,0-.47,0-.04,0-.08,0-.16-.05,.05-.09,.07-.12,.1-.29,.29-.63,.51-1.02,.65-.28,.11-.57,.17-.87,.18-.4,.02-.79-.01-1.17-.15-.63-.24-1.09-.64-1.34-1.28-.08-.21-.12-.43-.13-.66,0-.28,0-.55,.08-.82,.18-.61,.57-1.04,1.14-1.31,.49-.23,1.01-.29,1.54-.23,.31,.03,.61,.1,.9,.22,.32,.13,.59,.32,.84,.55,.03,.03,.07,.06,.1,.09,0,0,.02,0,.03-.01Zm0,1.37c0-.17,0-.34,0-.52,0-.1-.03-.17-.09-.25-.19-.21-.41-.37-.66-.49-.32-.15-.66-.22-1.01-.24-.35-.02-.69,.04-1,.2-.85,.43-1.01,1.48-.53,2.14,.26,.35,.61,.53,1.03,.61,.45,.08,.89,.03,1.31-.13,.34-.13,.64-.32,.87-.6,.05-.06,.08-.13,.08-.21,0-.17,0-.34,0-.52Z"/>
          <path class="cls-1" d="M62.22,88.64c-.22,.2-.44,.41-.67,.62-.04-.04-.07-.08-.1-.11-.32-.39-.71-.65-1.21-.73-.81-.13-1.53,.05-2.11,.65-.33,.34-.52,.76-.61,1.22-.13,.64-.11,1.28,.14,1.89,.32,.8,.9,1.29,1.76,1.42,.42,.06,.82,.03,1.22-.13,.33-.13,.58-.36,.81-.63,.02-.03,.05-.06,.08-.09,.07,.06,.13,.11,.19,.16,.14,.12,.27,.25,.41,.38,.1,.09,.1,.11,.01,.21-.46,.55-1.04,.9-1.74,1.01-1.04,.16-2.01-.04-2.84-.73-.46-.38-.77-.87-.97-1.43-.15-.42-.22-.85-.23-1.29,0-.43,.04-.84,.16-1.25,.28-.9,.82-1.59,1.66-2.02,.36-.19,.75-.29,1.15-.33,.48-.05,.95-.02,1.41,.11,.57,.16,1.03,.49,1.41,.95,.02,.02,.03,.04,.05,.06,0,0,0,.02,.01,.05Z"/>
          <path class="cls-1" d="M66.39,93.4s.03,.05,.04,.07c.08,.19,.15,.38,.23,.58,.04,.1,.03,.11-.04,.16-.25,.19-.53,.31-.85,.35-.28,.03-.56,.02-.83-.05-.48-.12-.78-.43-.91-.91-.06-.23-.08-.47-.08-.7,0-1.38,0-2.76,0-4.14,0-.23,.01-.22-.23-.22-.25,0-.5,0-.75,0-.13,0-.14,0-.14-.14,0-.22,0-.43,0-.65,0-.12,.01-.13,.13-.13,.25,0,.51,0,.76,0,.03,0,.07,0,.1,0,.1,0,.11-.02,.12-.12,0-.03,0-.07,0-.1,0-.47,0-.93,0-1.4,0-.03,0-.06,0-.09,0-.13,.01-.14,.14-.14,.04,0,.08,0,.12,0,.21,0,.42,0,.63,0,.16,0,.16,0,.16,.16,0,.49,0,.98,0,1.47,0,.24-.01,.23,.22,.23,.32,0,.64,0,.96,0,.03,0,.06,0,.09,0,.09,0,.1,.02,.11,.11,0,.1,0,.2,0,.3,0,.13,0,.25,0,.38,0,.13-.01,.14-.14,.14-.34,0-.67,0-1.01,0-.04,0-.08,0-.12,0-.09,0-.1,.02-.11,.11,0,.03,0,.05,0,.08,0,1.33,0,2.66,0,4,0,.11,0,.22,.03,.33,.08,.44,.4,.65,.84,.57,.16-.03,.3-.08,.43-.17,.03-.02,.06-.03,.1-.06Z"/>
          <path class="cls-1" d="M25.09,91.07c-.66,.02-1.3-.52-1.3-1.28,0-.75,.58-1.32,1.31-1.32,.79,0,1.3,.66,1.3,1.31,0,.69-.6,1.32-1.31,1.29Z"/>
        </g>
        <rect class="cls-3" x=".5" y="76.09" width="83.46" height="27.39" rx="13.7" ry="13.7"/>
      </g>
      <rect class="cls-3" x=".5" y="113.89" width="42.17" height="27.39" rx="13.7" ry="13.7"/>
      <rect class="cls-3" x="49.67" y="113.89" width="42.17" height="27.39" rx="13.7" ry="13.7"/>
      <g>
        <rect class="cls-3" x="92.58" y="76.28" width="83.46" height="27.39" rx="13.7" ry="13.7"/>
        <g>
          <g class="cls-2">
            <path class="cls-1" d="M129.68,90.22c0-1.63-.47-2.47-1.4-2.52-.37-.02-.74,.04-1.08,.18-.28,.1-.47,.2-.57,.3v3.9c.6,.37,1.12,.55,1.59,.52,.98-.06,1.46-.86,1.46-2.38h0Zm1.15,.07c0,.83-.19,1.52-.59,2.07-.44,.62-1.04,.94-1.81,.96-.58,.02-1.18-.16-1.8-.55v3.54l-1-.36v-7.86c.16-.2,.38-.37,.63-.52,.59-.35,1.32-.52,2.17-.53h.01c.78,0,1.38,.32,1.8,.97,.39,.59,.59,1.35,.59,2.28h0Zm6.11,2.32c0,1.11-.11,1.88-.33,2.31-.22,.43-.65,.77-1.28,1.03-.51,.2-1.06,.31-1.65,.33l-.16-.63c.6-.08,1.03-.16,1.27-.25,.48-.16,.82-.42,1-.75,.15-.27,.22-.8,.22-1.57v-.26c-.68,.31-1.4,.46-2.15,.46-.49,0-.93-.15-1.3-.46-.42-.34-.63-.77-.63-1.29v-4.16l1-.34v4.19c0,.45,.14,.79,.43,1.03,.29,.24,.66,.36,1.12,.35,.46,0,.95-.19,1.47-.53v-4.88h1v5.43Zm3.9,.64c-.11,0-.22,.01-.33,.01-.57,0-1.01-.13-1.32-.4-.31-.27-.47-.64-.47-1.12v-3.94h-.68v-.63h.68v-1.67l1-.36v2.02h1.12v.63h-1.12v3.91c0,.38,.1,.64,.3,.8,.17,.13,.45,.2,.82,.22v.52Zm6.05-.08h-1v-3.86c0-.39-.09-.73-.27-1.01-.21-.32-.5-.48-.88-.48-.46,0-1.03,.24-1.72,.72v4.62h-1v-9.22l1-.31v4.2c.64-.46,1.34-.7,2.09-.7,.53,0,.96,.18,1.29,.53,.33,.36,.49,.8,.49,1.33v4.17Zm5.31-3.11c0-.63-.12-1.15-.36-1.56-.28-.5-.72-.76-1.31-.79-1.1,.06-1.64,.85-1.64,2.35,0,.69,.11,1.27,.34,1.73,.29,.59,.73,.88,1.32,.87,1.1,0,1.65-.88,1.65-2.6h0Zm1.09,0c0,.89-.23,1.64-.68,2.23-.5,.66-1.19,1-2.08,1s-1.56-.33-2.05-1c-.45-.59-.67-1.34-.67-2.23,0-.84,.24-1.55,.72-2.12,.51-.61,1.18-.92,2.01-.92s1.51,.31,2.03,.92c.48,.57,.72,1.28,.72,2.12h0Zm5.73,3.1h-1v-4.08c0-.45-.13-.8-.4-1.05-.27-.25-.63-.37-1.07-.36-.47,0-.93,.16-1.35,.46v5.02h-1v-5.14c.57-.42,1.1-.69,1.59-.82,.46-.12,.86-.18,1.2-.18,.24,0,.46,.02,.67,.07,.39,.09,.71,.26,.96,.51,.27,.27,.41,.6,.41,.98v4.58Z"/>
          </g>
          <g class="cls-2">
            <path class="cls-1" d="M115.76,83.67c-.51,0-1,.05-1.44,.12-1.27,.22-1.5,.7-1.5,1.56v1.15h3.01v.38h-4.14c-.87,0-1.64,.53-1.88,1.52-.28,1.15-.29,1.86,0,3.06,.21,.89,.72,1.52,1.6,1.52h1.03v-1.37c0-.99,.86-1.87,1.88-1.87h3c.84,0,1.5-.69,1.5-1.53v-2.86c0-.81-.69-1.43-1.5-1.56-.52-.09-1.05-.13-1.57-.12h0Zm-1.63,.92c.31,0,.56,.26,.56,.57s-.25,.57-.56,.57-.56-.26-.56-.57,.25-.57,.56-.57h0Z"/>
            <path class="cls-1" d="M119.2,86.89v1.34c0,1.04-.88,1.91-1.88,1.91h-3c-.82,0-1.5,.7-1.5,1.53v2.86c0,.81,.71,1.29,1.5,1.53,.95,.28,1.86,.33,3,0,.76-.22,1.5-.66,1.5-1.53v-1.15h-3v-.38h4.51c.87,0,1.2-.61,1.5-1.52,.31-.94,.3-1.85,0-3.06-.22-.87-.63-1.52-1.5-1.52h-1.13Zm-1.69,7.25c.31,0,.56,.26,.56,.57s-.25,.57-.56,.57-.56-.26-.56-.57,.25-.57,.56-.57Z"/>
          </g>
        </g>
      </g>
      <g class="cls-2">
        <path class="cls-1" d="M19.46,122.02c.42,0,.84,0,1.26,0,.04,0,.09,0,.13,0,.15,0,.17,.02,.22,.17,.25,.69,.49,1.39,.74,2.08,1.1,3.11,2.21,6.22,3.31,9.34,.02,.06,.04,.11,.05,.17,.02,.1-.02,.15-.12,.16-.03,0-.06,0-.09,0-.73,0-1.46,0-2.19,0-.02,0-.04,0-.06,0-.1,0-.17-.05-.2-.15-.05-.15-.1-.3-.16-.45-.23-.67-.46-1.34-.69-2.01-.01-.03-.02-.06-.03-.1-.02-.07-.06-.11-.14-.1-.03,0-.06,0-.09,0-1.27,0-2.54,0-3.81,0q-.19,0-.25,.18c-.25,.78-.51,1.56-.76,2.34-.01,.04-.03,.09-.05,.13-.03,.1-.1,.15-.2,.15-.03,0-.07,0-.1,0-.64,0-1.27,0-1.91,0-.02,0-.04,0-.06,0-.18,0-.23-.07-.17-.24,.11-.33,.22-.65,.34-.98,1.08-3.12,2.17-6.25,3.26-9.37,.13-.37,.21-.74,.21-1.13,0-.16,.03-.19,.2-.2,.46,0,.92,0,1.38,0h0Zm1.41,6.78s0-.02,0-.02c0,0,0-.02,0-.03,0-.02,0-.04-.01-.06-.48-1.49-.96-2.99-1.39-4.5,0,0,0,0,0,0,0,0,0,0-.02,0-.01,.04-.02,.08-.03,.12-.09,.34-.16,.68-.26,1.01-.35,1.13-.7,2.26-1.05,3.39-.01,.03-.01,.07-.02,.11,.17,.03,2.7,.02,2.79,0Z"/>
        <path class="cls-1" d="M28.96,129.48c0,1.39,0,2.79,0,4.18,0,.06,0,.12,0,.18-.01,.11-.06,.15-.16,.16-.03,0-.06,0-.09,0-.67,0-1.34,0-2.01,0-.23,0-.27-.04-.27-.27,0-2.84,0-5.68,0-8.52,0,0,0,0,0-.01,0-.21,.03-.24,.24-.24,.69,0,1.38,0,2.06,0,.03,0,.06,0,.09,0,.09,.01,.13,.05,.14,.14,0,.06,0,.11,0,.17,0,1.41,0,2.81,0,4.22Z"/>
        <path class="cls-1" d="M27.69,124.01c-.15,0-.31-.01-.47-.07-.53-.18-.89-.65-.92-1.22,0-.13,0-.27,.01-.4,.09-.59,.54-1.04,1.13-1.14,.21-.04,.41-.03,.62,0,.59,.12,1.02,.61,1.06,1.22,.01,.21,0,.42-.06,.63-.19,.6-.72,1-1.37,.97Z"/>
      </g>
      <g class="cls-2">
        <path class="cls-1" d="M64.79,129.75c0,.07,0,.12,0,.18,0,1.17,0,2.34,0,3.51,0,.23-.02,.25-.25,.25-.68,0-1.37,0-2.05,0-.01,0-.03,0-.04,0-.17,0-.2-.03-.2-.21,0-.03,0-.06,0-.09,0-3.95,0-7.9,0-11.85,0-.28,0-.27,.27-.28,.88-.02,1.75-.04,2.63-.06,.39,0,.78,0,1.17,0,.77,.01,1.53,.12,2.26,.41,1.05,.41,1.84,1.11,2.27,2.17,.26,.65,.35,1.33,.3,2.02-.03,.45-.11,.88-.27,1.3-.35,.91-.98,1.57-1.83,2.03-.5,.27-1.05,.42-1.61,.51-.75,.12-1.51,.13-2.27,.09-.1,0-.2,0-.3,0-.02,0-.03,0-.07,.01Zm.02-2.24s.09,.01,.13,.01c.32,0,.64,.02,.96,.02,.4,0,.8-.06,1.19-.16,.39-.1,.74-.27,1.03-.56,.21-.2,.34-.44,.41-.71,.08-.32,.1-.65,.05-.98-.1-.65-.44-1.12-1.06-1.38-.4-.17-.82-.25-1.25-.25-.42,0-.84,0-1.25,0-.04,0-.09,0-.13,0-.05,0-.08,.03-.08,.09,0,.03,0,.05,0,.08,0,1.22,0,2.45,0,3.67,0,.05,0,.1,0,.15Z"/>
        <path class="cls-1" d="M78.79,125.7c0,.3,0,.6,0,.9,0,.18-.09,.22-.25,.18-.02,0-.04-.02-.06-.03-.48-.25-.99-.38-1.52-.45-.32-.04-.63-.06-.95-.08-.24-.01-.48,.03-.7,.1-.26,.08-.41,.28-.41,.54,0,.14,.06,.25,.15,.35,.11,.13,.25,.23,.4,.3,.34,.16,.68,.32,1.04,.45,.56,.22,1.09,.47,1.59,.79,.62,.4,1.05,.95,1.16,1.69,.21,1.33-.39,2.47-1.58,3.04-.51,.25-1.05,.36-1.61,.42-.48,.04-.96,.04-1.44,0-.65-.06-1.28-.17-1.89-.43-.05-.02-.09-.04-.14-.06-.1-.05-.15-.13-.15-.25,0-.27,0-.54,0-.81,0-.36,0-.73,0-1.09,0-.03,0-.06,0-.09,0-.15,.05-.18,.18-.11,.31,.18,.63,.32,.97,.43,.61,.19,1.24,.31,1.88,.3,.23,0,.47-.02,.7-.08,.08-.02,.16-.05,.24-.08,.37-.17,.45-.58,.17-.88-.11-.12-.25-.21-.39-.28-.33-.15-.66-.3-1-.43-.54-.21-1.06-.46-1.53-.79-.57-.4-.99-.92-1.13-1.62-.24-1.14,.22-2.36,1.39-3.01,.47-.26,.98-.41,1.51-.46,.84-.09,1.67-.04,2.5,.11,.23,.04,.45,.12,.67,.19,.17,.06,.2,.11,.21,.3,0,.31,0,.61,0,.92Z"/>
      </g>
      <g class="cls-2">
        <path class="cls-1" d="M163.56,128.08c.03,.06,.08,.12,.1,.18,.24,.66,.4,1.34,.34,2.05,0,.09,0,.18,0,.27,.2,.1,.38,.2,.56,.3,.08,.04,.16,.1,.22,.16,.22,.21,.24,.48,.06,.72-.15,.2-.33,.36-.54,.5-.1,.07-.21,.13-.32,.2,0,.1-.02,.2-.03,.29-.49,.18-.9-.01-1.16-.53,.02-.04,.03-.09,.05-.14,.07-.19,.1-.37,.02-.57-.04-.1-.05-.22-.07-.33-.04-.27,.07-.51,.32-.6,.04-.01,.07-.03,.11-.05,.07-.18,.06-.35,.03-.52-.09-.49-.23-.96-.44-1.41-.33-.71-.68-1.41-1.01-2.11-.07-.15-.13-.3-.19-.45-.15-.46-.3-.92-.45-1.37-.03-.09-.04-.17,0-.27,.14-.3,.06-.56-.19-.77-.02-.01-.03-.03-.05-.04,0,0-.01-.02-.03-.04,.03-.07,.07-.16,.11-.24,.16-.37,.17-.74,.04-1.11-.12-.35-.41-.56-.76-.57-.35,0-.66,.2-.8,.52-.06,.14-.09,.29-.09,.45,0,.1,0,.2,0,.32-.13,0-.24,0-.35,0-.1,0-.2,0-.32,0-.02-.16-.03-.3-.05-.44-.02-.12-.05-.24-.1-.35-.05-.1-.12-.19-.2-.27-.23-.2-.52-.15-.7,.09-.1,.14-.16,.29-.18,.45-.05,.32-.01,.64,.14,.93,.03,.06,.07,.12,.1,.17-.12,.14-.25,.24-.33,.38-.09,.14-.1,.31-.05,.48,.05,.17,.16,.28,.3,.4-.02,.12-.05,.24-.07,.36-.21,.95-.53,1.86-.92,2.74-.15,.33-.29,.66-.43,.99-.26,.62-.43,1.26-.49,1.93-.01,.11,0,.2,.04,.3,.05,.11,.12,.22,.15,.34,.06,.22,.21,.34,.4,.44,.52,.3,.91,.73,1.23,1.23,.07,.11,.12,.24,.14,.37,.06,.29-.07,.5-.35,.59-.05,.02-.1,.03-.16,.05,.06,.21,.16,.39,.33,.5,.53,.39,1.11,.66,1.78,.72,.35,.03,.7-.01,1.03-.16,.26-.11,.52-.24,.78-.37,.36-.18,.7-.38,1.06-.57,.08-.04,.16-.08,.27-.14,0,.08,.01,.13,0,.17-.06,.2-.13,.39-.19,.59-.03,.1-.07,.2-.08,.3-.04,.25-.03,.49,.12,.71,.03,.05,.05,.11,.08,.17-.16,.05-.3,.02-.44,0-.5-.07-1-.15-1.5-.2-.34-.04-.68-.05-1.01-.04-.6,.02-1.19,.08-1.78,.12-.2,.01-.41,.02-.64,.03,.02-.07,.02-.12,.04-.16,.04-.1,.09-.19,.12-.28,.06-.17,.06-.34,0-.51-.1-.32-.27-.6-.51-.83-.22-.22-.43-.44-.6-.7-.12-.19-.22-.39-.33-.59-.09-.16-.16-.33-.26-.49-.07-.11-.15-.22-.25-.31-.16-.15-.35-.21-.57-.14-.1,.03-.2,.05-.3,.08-.2-.25-.35-.5-.31-.84,.05-.44,.08-.88,.18-1.31,.11-.5,.29-.96,.53-1.41,.3-.55,.66-1.07,1.03-1.57,.2-.26,.4-.52,.6-.79,.42-.56,.65-1.19,.68-1.88,.01-.36,.02-.72,.02-1.08,0-.51-.01-1.03-.02-1.54,0-1.01,.58-1.9,1.5-2.28,.22-.09,.45-.14,.69-.16,.48-.06,.97-.04,1.45,.02,.73,.09,1.27,.48,1.51,1.19,.33,.96,.47,1.95,.42,2.97-.04,.89,.24,1.68,.81,2.36,.07,.09,.15,.17,.23,.25,.69,.76,1.24,1.61,1.66,2.55,.42,.95,.53,1.94,.36,2.95-.02,.09-.04,.18-.07,.26-.15,.05-.27,.05-.41,0,0-.08-.01-.15-.01-.22,0-.34-.15-.6-.42-.78-.14-.1-.3-.17-.46-.25-.05-.03-.11-.06-.16-.09-.05-.12-.02-.23,0-.34,.05-.6-.07-1.17-.32-1.71-.04-.07-.08-.14-.13-.21-.01-.02-.05,0-.08-.01,0-.06-.02-.13-.03-.19,0,0-.02,0-.02,0,0,0,.02-.02,.03-.03,0,0,0,.02,0,.03,0,.07,.01,.13,.02,.19Zm-8.33,2.58c0-.06,.01-.09,.02-.13,.02-.23,.04-.47,.07-.7,.08-.55,.22-1.08,.49-1.58,.12-.22,.22-.44,.33-.66,.03-.06,.08-.12,.03-.22-.29,.27-.48,.59-.64,.93-.29,.6-.43,1.24-.4,1.91,0,.29,0,.29,.1,.45Z"/>
        <path class="cls-1" d="M128.47,131.98c-.02-.18-.03-.33,.01-.5,.08,0,.16-.01,.24-.02,.08,0,.17,0,.25-.01,.23-.04,.31-.14,.32-.38,0-.5,0-1.01,0-1.51,0-.79,0-1.58,0-2.37,0-.1,0-.2-.01-.32-.28-.05-.54,0-.82-.04-.06-.17-.03-.33-.03-.5,.06-.03,.12-.07,.19-.09,.45-.16,.9-.3,1.34-.47,.28-.11,.56-.09,.86-.07,.05,.24,0,.48,.04,.73,.1-.04,.18-.07,.26-.11,.4-.19,.8-.37,1.23-.49,.35-.1,.7-.16,1.06-.1,.68,.11,1.21,.68,1.26,1.37,0,.13,0,.27,0,.4,0,1.13,0,2.26,0,3.39,0,.06,0,.12,0,.18,.02,.21,.14,.34,.35,.35,.12,0,.25,0,.37,0,.05,0,.1,.01,.16,.02,.04,.17,.03,.33,.01,.51-.06,.01-.1,.03-.15,.03-.92,0-1.85,0-2.77,0-.04,0-.08-.01-.13-.02-.04-.17-.03-.34-.01-.52,.11-.07,.23-.03,.33-.04,.25-.02,.35-.11,.35-.36,0-.64,0-1.27,0-1.91,0-.4,0-.8,0-1.2,0-.57-.37-1.01-.92-1.12-.1-.02-.21-.03-.31-.02-.33,.06-.66,.13-1,.2-.04,0-.07,.04-.12,.06v.27c0,1.19,0,2.38,0,3.58,0,.06,0,.12,0,.18,.01,.19,.13,.3,.31,.32,.06,0,.12,0,.18,0,.06,0,.12,0,.19,0,.08,.17,.03,.34,.03,.52-.06,.01-.12,.04-.18,.04-.91,0-1.83,0-2.74,0-.05,0-.1-.01-.18-.02Z"/>
        <path class="cls-1" d="M140.69,130.86c0-1.32,0-2.6,0-3.88,0-.03-.02-.06-.03-.1-.26-.06-.53,0-.79-.05-.04-.17-.03-.32-.01-.49,.08-.03,.15-.07,.22-.09,.39-.15,.79-.29,1.18-.44,.2-.08,.41-.12,.63-.11,.1,0,.2,0,.32,0,.01,.08,.03,.15,.03,.21,0,.32,0,.64,0,.96,0,1.35,0,2.69,0,4.04,0,.08,0,.16,0,.25,.02,.16,.11,.26,.28,.28,.07,0,.14,0,.22,0,.09,0,.18,0,.26,0,.08,.09,.05,.19,.05,.28,0,.09,0,.18,0,.28-.26,.06-.52,.02-.77,.03-.26,0-.51,0-.77,0h-.78c-.08-.21,0-.42-.06-.64-.06,.02-.12,.03-.17,.06-.34,.19-.69,.37-1.06,.49-.41,.14-.83,.23-1.27,.15-.61-.11-1.03-.44-1.24-1.03-.09-.26-.12-.54-.12-.82,0-1.02,0-2.03,0-3.05,0-.11,0-.22,0-.33-.15-.09-.3-.04-.44-.05-.13-.01-.26,.02-.4-.04-.02-.16-.03-.31,0-.47,.12-.04,.23-.09,.35-.13,.34-.12,.68-.23,1.01-.36,.33-.13,.66-.14,1.01-.11,.01,.06,.04,.11,.04,.17,0,.09,0,.18,0,.28,0,1.19,0,2.38,0,3.57,0,.21,0,.41,.07,.61,.12,.39,.42,.72,.96,.72,.42,0,.84-.08,1.26-.21Z"/>
        <path class="cls-1" d="M117.67,131.99c-.03-.2-.03-.36,0-.54,.06-.01,.12-.03,.17-.03,.14,0,.29,0,.43,0,.25-.02,.37-.15,.38-.39,0-.05,0-.1,0-.15,0-2.07,0-4.13,0-6.2,0-.08,0-.16,0-.25,0-.12-.07-.19-.18-.22-.1-.02-.2-.03-.3-.04-.16-.01-.33,0-.5-.03-.03-.2-.01-.4,0-.6,.07-.02,.13-.04,.18-.04,1.11,0,2.22,0,3.33,0,.03,0,.06,0,.1,.02,.09,.19,.04,.39,.03,.57-.06,.07-.13,.06-.18,.06-.15,0-.31,0-.46,0-.17,0-.26,.1-.28,.27,0,.06,0,.12,0,.18,0,2.15,0,4.29,0,6.44,0,.08,0,.16,.01,.26,.07,.01,.13,.03,.18,.03,.67,0,1.34,0,2,0,.14,0,.24-.06,.29-.18,.06-.16,.11-.33,.15-.5,.04-.2,.05-.41,.08-.61,.02-.14,.03-.29,.04-.42,.21-.06,.51-.07,.9-.03,0,.04,.03,.09,.03,.14,0,.71,0,1.42,0,2.13,0,.03-.01,.06-.02,.11-.07,0-.13,.03-.2,.03-.43,0-.86,0-1.29,0-1.5,0-3,0-4.5,0-.11,0-.22,0-.37,0Z"/>
        <path class="cls-1" d="M147.06,131.58c.14-.04,.25-.06,.35-.1,.12-.05,.15-.16,.09-.28-.02-.04-.04-.07-.06-.11-.3-.45-.61-.9-.91-1.36-.02-.03-.04-.05-.07-.08-.03,.02-.07,.04-.09,.07-.34,.49-.68,.98-1.02,1.47-.02,.03-.03,.07-.05,.11q.1,.11,.57,.2c.04,.15,.02,.3,.01,.47-.05,.01-.1,.03-.15,.03-.71,0-1.42,0-2.13,0-.04,0-.08-.01-.13-.02-.04-.16-.04-.31,0-.46,.11-.02,.22-.04,.33-.07,.21-.05,.38-.15,.51-.32,.52-.68,1.04-1.35,1.56-2.03,0,0,0-.02,.02-.05-.02-.04-.04-.1-.08-.14-.5-.73-1-1.46-1.49-2.19-.11-.16-.25-.24-.43-.28-.13-.03-.26-.04-.4-.07-.04-.18-.03-.35-.01-.5,.02-.02,.03-.03,.04-.04,0,0,.02,0,.03,0,.89,0,1.79,0,2.68,0,.06,0,.12,0,.18,0,.02,0,.04,.02,.07,.03,.03,.16,.02,.33,0,.49-.14,.03-.26,.05-.38,.09-.12,.04-.15,.14-.09,.25,.01,.03,.03,.05,.05,.08,.29,.42,.58,.85,.88,1.27,.01,.02,.03,.03,.06,.05,.2-.23,.35-.49,.53-.74,.17-.24,.35-.48,.49-.74-.12-.24-.36-.14-.52-.21-.06-.21-.06-.27-.01-.53,.23-.04,1.9-.05,2.24,0,.07,.21,.07,.22,.02,.52-.08,.02-.17,.04-.26,.07-.28,.07-.51,.2-.68,.44-.38,.54-.78,1.06-1.18,1.58-.05,.07-.11,.15-.16,.23,.06,.09,.11,.16,.16,.24,.52,.74,1.04,1.48,1.55,2.23,.13,.2,.3,.29,.52,.33,.09,.02,.18,.02,.28,.04,.04,.16,.01,.31,.02,.47-.06,.01-.11,.04-.16,.04-.89,0-1.79,0-2.68,0-.03,0-.06-.01-.1-.02-.07-.15-.03-.29-.03-.42Z"/>
        <path class="cls-1" d="M127.86,131.5v.47c-.06,.01-.1,.03-.15,.03-.99,0-1.97,0-2.96,0-.05,0-.1-.02-.15-.02-.05-.16-.03-.31-.02-.46,.1-.08,.2-.04,.3-.05,.12-.02,.25-.03,.36-.06,.1-.03,.17-.11,.17-.23,0-.05,0-.1,0-.15,0-1.28,0-2.57,0-3.85,0-.08,0-.16-.01-.23-.09-.08-.18-.05-.27-.06-.17-.01-.35,.02-.53-.02v-.48c.09-.04,.17-.08,.25-.11,.41-.16,.83-.3,1.24-.47,.29-.12,.58-.1,.88-.07,.05,.12,.03,.23,.03,.34,0,1.59,0,3.18,0,4.77,0,.08,0,.16,0,.25,0,.28,.11,.38,.39,.4,.08,0,.16,0,.25,0,.06,0,.12,0,.21,.01Z"/>
        <path class="cls-1" d="M127.24,123.83c0,.51-.43,.94-.95,.93-.51,0-.94-.43-.93-.95,0-.51,.43-.94,.95-.93,.52,0,.94,.43,.94,.94Z"/>
        <path class="cls-1" d="M160.74,122.82c-.02,.19-.07,.36-.19,.51-.06,.07-.13,.1-.22,.07-.1-.03-.19-.08-.29-.11-.17-.05-.25-.18-.24-.34,0-.14,.01-.29,.07-.42,.12-.3,.43-.36,.67-.15,.13,.11,.19,.26,.19,.43Z"/>
        <path class="cls-1" d="M158.07,123.36c-.14-.08-.18-.22-.2-.36-.03-.22,0-.43,.16-.6,.1-.11,.22-.1,.33,0,.14,.14,.22,.48,.15,.66-.01,.04-.04,.07-.07,.1-.11,.1-.22,.19-.37,.21Z"/>
        <path class="cls-1" d="M150.86,125.46s.09-.04,.11-.07c.04-.06,.07-.13,.1-.19,.04-.07,.09-.07,.17-.02-.01,.07-.04,.14-.05,.22,0,.07,0,.14,0,.21,0,.08,.03,.15,.05,.25-.1,0-.19,0-.27,.01-.06-.1,.02-.11,.06-.15,.02-.02,0-.07,0-.11-.03,0-.06,0-.08,0-.05,.03-.09,.04-.14,0-.04-.03-.08-.03-.1,.02,0,.02,0,.06,.02,.08,.03,.04,.1,.04,.08,.11q-.12,.04-.29,.02c.06-.22,.09-.45-.03-.68,.07-.01,.11-.02,.15-.03,.06,.11,.13,.21,.2,.32Z"/>
        <path class="cls-1" d="M150.34,125.86h-.39c0-.11,.14-.16,.11-.27-.02-.09-.01-.18-.02-.26-.16-.08-.08,.16-.23,.11-.06-.07-.02-.17-.01-.27,.21-.05,.41-.02,.61-.02,.06,.11,.05,.2,.02,.3-.14,.03-.07-.14-.18-.14-.09,.07-.04,.18-.06,.27-.03,.12,.08,.17,.15,.29Z"/>
      </g>
      <rect class="cls-3" x="100.45" y="113.89" width="82.45" height="27.39" rx="13.7" ry="13.7"/>
    </g>
  </g>
</svg>