<?xml version="1.0" encoding="UTF-8"?>
<svg id="uuid-c5f38f89-2c1d-4011-8679-6419be77b3dd" data-name="Capa 2" xmlns="http://www.w3.org/2000/svg" viewBox="0 0 98.26 98.48">
  <defs>
    <style>
      .uuid-03f202b0-4534-4f65-9a95-02443f909eba {
        fill: #fff;
      }
    </style>
  </defs>
  <g id="uuid-09f9fe5a-96bf-42d0-8f10-c4d13f5bba68" data-name="logos">
    <path class="uuid-03f202b0-4534-4f65-9a95-02443f909eba" d="m42.08,32.02c.78-.79,1.72-1.47,2.33-2.37,4.49-6.57,8.93-13.18,13.37-19.79C62.72,2.51,71.41-1.35,79.85.43c9.13,1.93,15.22,7.52,17.36,16.6,2.67,11.33-3.94,22.46-15.03,25.56-5.07,1.42-9.99,1.08-14.97-.83-.18,1.59.43,2.56,1.61,3.36,6.82,4.65,13.65,9.27,20.41,14.02,5.6,3.94,8.5,9.43,8.98,16.28.75,10.67-6.24,20.09-16.74,22.48-9.82,2.23-19.57-2.13-24.2-11.34-3.15-6.27-3.3-12.68-.34-19.1.09-.19.1-.42.17-.78-2.11-.08-3.03,1.31-3.98,2.71-4.61,6.77-9.01,13.69-13.91,20.25-9.12,12.24-28.65,10.43-35.87-3.06-6.33-11.83-.99-26.59,12.32-31.17,5-1.72,10.09-1.44,15.02.63.24.1.49.2,1.06.02-.32-.43-.55-.99-.96-1.27-6.72-4.59-13.41-9.21-20.2-13.7C2.51,35.75-1.15,28.27.32,18.77,1.76,9.38,8.47,2.58,17.89.88c10.47-1.88,20.22,3.66,24.12,13.56,1.99,5.03,2,10.22.06,15.35-.18.48-.36.96-.52,1.44-.03.09.04.21.06.32l.47.47Z"/>
  </g>
</svg>