<?xml version="1.0" encoding="UTF-8"?>
<svg id="uuid-05f1fb76-ba1f-4f93-8525-92e27f38b730" data-name="Capa 2" xmlns="http://www.w3.org/2000/svg" viewBox="0 0 48.05 19.71">
  <defs>
    <style>
      .uuid-3e09e985-0050-4e62-b3f4-bdebb9e3d11e {
        fill: #fff;
      }

      .uuid-0182920a-9907-460c-8aff-ab3b31241f7f {
        opacity: .8;
      }

      .uuid-cc7efada-178f-45a1-8b88-3e1ffa060e5d {
        fill: none;
        stroke: #161616;
        stroke-miterlimit: 10;
      }
    </style>
  </defs>
  <g id="uuid-29ff41f9-bbfa-4d96-bd4b-78777a64bb3e" data-name="logos">
    <g>
      <rect class="uuid-cc7efada-178f-45a1-8b88-3e1ffa060e5d" x=".5" y=".5" width="47.05" height="18.71" rx="9.35" ry="9.35"/>
      <g class="uuid-0182920a-9907-460c-8aff-ab3b31241f7f">
        <g>
          <path class="uuid-3e09e985-0050-4e62-b3f4-bdebb9e3d11e" d="m15.86,12.46c-.14.65-.27,1.26-.41,1.89h-1.51c.33-1.75.66-3.46.98-5.17.1-.54.18-1.08.32-1.6.04-.15.24-.38.37-.38,1.09-.01,2.19-.06,3.27.05,1.56.17,2.15,1.07,1.84,2.61-.31,1.52-1.54,2.56-3.1,2.6-.56.01-1.13,0-1.77,0Zm.17-1.1c.52,0,.97.04,1.41,0,1.11-.12,1.8-.97,1.74-2.1-.03-.5-.29-.83-.77-.88-.57-.05-1.16-.01-1.76-.01-.2.98-.41,1.95-.63,3Z"/>
          <path class="uuid-3e09e985-0050-4e62-b3f4-bdebb9e3d11e" d="m27.63,7.23c1.23,0,2.41-.09,3.56.02,1.61.16,2.21,1.12,1.83,2.7-.36,1.51-1.56,2.48-3.11,2.51-.56.01-1.13,0-1.72,0-.14.64-.27,1.24-.41,1.88h-1.51c.46-2.39.91-4.77,1.36-7.12Zm.73,4.15c.51,0,.92.02,1.32,0,1.17-.08,1.92-.97,1.84-2.14-.04-.5-.31-.82-.79-.86-.56-.05-1.12-.01-1.73-.01-.21.98-.41,1.96-.63,3.01Z"/>
          <path class="uuid-3e09e985-0050-4e62-b3f4-bdebb9e3d11e" d="m24.51,12.45c.21-1.14.4-2.22.6-3.29.1-.54-.16-.78-.65-.8-.49-.02-.97,0-1.5,0-.27,1.4-.54,2.77-.82,4.16h-1.51c.47-2.39.94-4.77,1.42-7.16h1.51c-.12.62-.23,1.22-.36,1.91.64,0,1.24-.02,1.84,0,1.44.06,1.9.67,1.62,2.09-.18.92-.36,1.84-.51,2.76-.05.32-.17.44-.49.4-.37-.05-.73-.05-1.15-.08Z"/>
        </g>
      </g>
    </g>
  </g>
</svg>