<?xml version="1.0" encoding="UTF-8"?>
<svg id="uuid-034e48c2-0e9e-4bad-b0f7-4ea3e2a4b5f4" data-name="Capa 2" xmlns="http://www.w3.org/2000/svg" viewBox="0 0 57.32 19.71">
  <defs>
    <style>
      .uuid-b08c1ea8-37b1-4718-b937-c9c31003ec3b {
        fill: #fff;
      }

      .uuid-3740fe41-45b3-46c1-af93-39a1d3034892 {
        opacity: .8;
      }

      .uuid-2d170062-81d0-47d4-824f-37a71dc052cd {
        fill: none;
        stroke: #161616;
        stroke-miterlimit: 10;
      }
    </style>
  </defs>
  <g id="uuid-26ef6eed-d024-4b3c-b7ff-99b67e84bde1" data-name="logos">
    <g>
      <g class="uuid-3740fe41-45b3-46c1-af93-39a1d3034892">
        <path class="uuid-b08c1ea8-37b1-4718-b937-c9c31003ec3b" d="m43.61,10.19s.05.08.07.13c.17.45.27.91.23,1.4,0,.06,0,.12,0,.18.14.07.26.13.38.2.05.03.11.07.15.11.15.14.17.33.04.49-.1.14-.23.25-.37.34-.07.05-.14.09-.22.14,0,.07-.01.14-.02.2-.33.12-.61,0-.79-.36.01-.03.02-.06.03-.09.05-.13.07-.25.02-.39-.03-.07-.04-.15-.05-.23-.03-.19.05-.35.22-.41.03,0,.05-.02.07-.03.05-.12.04-.24.02-.36-.06-.33-.16-.66-.3-.96-.23-.48-.46-.96-.69-1.44-.05-.1-.09-.2-.13-.31-.11-.31-.21-.63-.31-.94-.02-.06-.03-.12,0-.18.09-.21.04-.38-.13-.53-.01,0-.02-.02-.03-.03,0,0,0-.01-.02-.03.02-.05.05-.11.07-.16.11-.25.12-.5.03-.76-.08-.24-.28-.38-.52-.39-.24,0-.45.13-.55.36-.04.1-.06.2-.06.31,0,.07,0,.14,0,.22-.09,0-.16,0-.24,0-.07,0-.14,0-.22,0-.01-.11-.02-.2-.04-.3-.02-.08-.03-.17-.07-.24-.03-.07-.08-.13-.14-.18-.16-.13-.36-.1-.48.06-.07.09-.11.2-.12.31-.03.22,0,.43.1.63.02.04.05.08.07.12-.08.09-.17.17-.23.26-.06.1-.07.21-.03.33.03.11.11.19.21.27-.02.08-.03.16-.05.25-.14.65-.36,1.27-.63,1.87-.1.22-.2.45-.29.68-.18.42-.29.86-.33,1.32,0,.07,0,.14.03.2.04.08.08.15.1.23.04.15.14.23.27.3.36.2.62.5.84.84.05.07.08.17.1.25.04.2-.05.34-.24.41-.03.01-.07.02-.11.04.04.14.11.26.22.34.36.26.76.45,1.21.49.24.02.48,0,.7-.11.18-.08.36-.16.53-.25.24-.13.48-.26.72-.39.05-.03.11-.06.19-.09,0,.05,0,.09,0,.12-.04.13-.09.27-.13.4-.02.07-.05.13-.06.2-.03.17-.02.34.08.49.02.03.03.07.05.12-.11.03-.21.01-.3,0-.34-.04-.68-.1-1.02-.14-.23-.02-.46-.04-.69-.03-.41.02-.81.05-1.22.08-.14,0-.28.01-.44.02.01-.05.01-.08.03-.11.03-.07.06-.13.08-.19.04-.12.04-.23,0-.35-.07-.22-.19-.41-.35-.57-.15-.15-.29-.3-.41-.48-.08-.13-.15-.27-.23-.4-.06-.11-.11-.23-.18-.34-.05-.08-.1-.15-.17-.21-.11-.1-.24-.14-.39-.1-.07.02-.13.04-.21.06-.14-.17-.24-.34-.22-.57.03-.3.06-.6.12-.9.07-.34.2-.66.37-.96.2-.38.45-.73.7-1.07.13-.18.27-.36.41-.54.28-.38.44-.81.46-1.29,0-.25.02-.49.02-.74,0-.35,0-.7-.01-1.05,0-.69.4-1.3,1.03-1.55.15-.06.31-.09.47-.11.33-.04.66-.03.99.01.5.06.86.32,1.03.81.23.66.32,1.33.29,2.03-.03.61.16,1.15.55,1.61.05.06.1.11.16.17.47.52.85,1.1,1.13,1.74.28.65.36,1.32.24,2.02-.01.06-.03.12-.05.18-.1.03-.19.03-.28,0,0-.05,0-.1,0-.15,0-.23-.1-.41-.28-.53-.1-.07-.21-.12-.31-.17-.04-.02-.07-.04-.11-.06-.04-.08-.01-.16,0-.23.03-.41-.04-.8-.22-1.16-.02-.05-.05-.1-.09-.14,0-.01-.04,0-.06,0,0-.04-.01-.09-.02-.13,0,0-.01,0-.02,0,0,0,.01-.01.02-.02,0,0,0,.01,0,.02,0,.04,0,.09.01.13Zm-5.69,1.76s0-.06.01-.09c.02-.16.03-.32.05-.48.05-.38.15-.74.33-1.08.08-.15.15-.3.23-.45.02-.04.06-.08.02-.15-.2.18-.33.4-.44.63-.2.41-.29.85-.27,1.3,0,.2,0,.2.07.31Z"/>
        <path class="uuid-b08c1ea8-37b1-4718-b937-c9c31003ec3b" d="m19.65,12.86c-.01-.12-.02-.23,0-.34.06,0,.11-.01.17-.01.06,0,.11,0,.17-.01.16-.03.21-.09.22-.26,0-.34,0-.69,0-1.03,0-.54,0-1.08,0-1.62,0-.07,0-.14,0-.22-.19-.04-.37,0-.56-.03-.04-.11-.02-.22-.02-.34.04-.02.09-.05.13-.06.3-.11.61-.2.91-.32.19-.07.38-.06.59-.05.03.16,0,.33.03.5.07-.03.13-.05.18-.08.27-.13.55-.25.84-.33.24-.07.48-.11.73-.07.47.07.83.46.86.93,0,.09,0,.18,0,.27,0,.77,0,1.54,0,2.32,0,.04,0,.08,0,.13.01.15.1.23.24.24.08,0,.17,0,.25,0,.03,0,.07,0,.11.01.03.12.02.23,0,.35-.04,0-.07.02-.1.02-.63,0-1.26,0-1.9,0-.03,0-.05,0-.09-.01-.03-.12-.02-.24,0-.35.07-.05.15-.02.23-.03.17-.01.24-.08.24-.25,0-.44,0-.87,0-1.31,0-.27,0-.55,0-.82,0-.39-.25-.69-.63-.77-.07-.01-.14-.02-.21-.01-.23.04-.45.09-.68.14-.03,0-.05.02-.08.04v.19c0,.81,0,1.63,0,2.44,0,.04,0,.08,0,.13,0,.13.09.2.21.22.04,0,.08,0,.13,0,.04,0,.08,0,.13,0,.06.11.02.23.02.36-.04,0-.08.03-.12.03-.62,0-1.25,0-1.87,0-.03,0-.07,0-.12-.02Z"/>
        <path class="uuid-b08c1ea8-37b1-4718-b937-c9c31003ec3b" d="m27.99,12.09c0-.9,0-1.78,0-2.65,0-.02-.01-.04-.02-.07-.18-.04-.36,0-.54-.03-.03-.12-.02-.22,0-.33.05-.02.1-.05.15-.06.27-.1.54-.2.81-.3.14-.06.28-.09.43-.08.07,0,.14,0,.22,0,0,.05.02.1.02.15,0,.22,0,.44,0,.65,0,.92,0,1.84,0,2.76,0,.06,0,.11,0,.17.01.11.07.18.19.19.05,0,.1,0,.15,0,.06,0,.12,0,.18,0,.05.06.03.13.04.19,0,.06,0,.12,0,.19-.18.04-.35.02-.53.02-.18,0-.35,0-.53,0h-.53c-.05-.14,0-.29-.04-.44-.04.01-.08.02-.11.04-.23.13-.47.25-.72.34-.28.1-.57.16-.87.1-.41-.07-.7-.3-.84-.7-.06-.18-.08-.37-.08-.56,0-.69,0-1.39,0-2.08,0-.08,0-.15,0-.23-.1-.06-.2-.03-.3-.04-.09,0-.18.01-.28-.03-.01-.11-.02-.21,0-.32.08-.03.16-.06.24-.09.23-.08.47-.15.69-.25.22-.09.45-.1.69-.08.01.04.03.08.03.12,0,.06,0,.13,0,.19,0,.81,0,1.63,0,2.44,0,.14,0,.28.05.42.08.27.29.49.65.49.29,0,.57-.05.86-.15Z"/>
        <path class="uuid-b08c1ea8-37b1-4718-b937-c9c31003ec3b" d="m12.27,12.87c-.02-.14-.02-.25,0-.37.04,0,.08-.02.12-.02.1,0,.2,0,.29,0,.17-.01.25-.1.26-.27,0-.04,0-.07,0-.11,0-1.41,0-2.82,0-4.23,0-.06,0-.11,0-.17,0-.08-.05-.13-.12-.15-.07-.02-.14-.02-.21-.03-.11,0-.22,0-.34-.02-.02-.14,0-.27,0-.41.05-.01.09-.03.13-.03.76,0,1.52,0,2.27,0,.02,0,.04,0,.07.01.06.13.03.27.02.39-.04.05-.09.04-.13.04-.11,0-.21,0-.32,0-.12,0-.18.07-.19.18,0,.04,0,.08,0,.13,0,1.47,0,2.93,0,4.4,0,.05,0,.11,0,.18.05,0,.09.02.13.02.46,0,.91,0,1.37,0,.1,0,.16-.04.2-.13.04-.11.08-.23.1-.34.03-.14.04-.28.05-.42.01-.1.02-.19.03-.29.14-.04.35-.05.62-.02,0,.03.02.06.02.09,0,.48,0,.97,0,1.45,0,.02,0,.04-.01.07-.04,0-.09.02-.14.02-.29,0-.59,0-.88,0-1.02,0-2.05,0-3.07,0-.08,0-.15,0-.25,0Z"/>
        <path class="uuid-b08c1ea8-37b1-4718-b937-c9c31003ec3b" d="m32.34,12.58c.09-.03.17-.04.24-.07.08-.03.1-.11.06-.19-.01-.02-.03-.05-.04-.07-.21-.31-.41-.62-.62-.93-.01-.02-.03-.03-.05-.06-.02.02-.05.03-.06.05-.23.33-.46.67-.7,1-.02.02-.02.05-.03.07q.07.07.39.13c.03.1.02.2,0,.32-.03,0-.07.02-.1.02-.48,0-.97,0-1.45,0-.03,0-.05,0-.09-.01-.03-.11-.02-.21,0-.32.08-.02.15-.03.23-.05.14-.03.26-.1.35-.22.36-.46.71-.92,1.06-1.39,0,0,0-.01.01-.03-.01-.03-.03-.07-.05-.1-.34-.5-.68-1-1.02-1.5-.07-.11-.17-.16-.29-.19-.09-.02-.18-.03-.27-.05-.03-.12-.02-.24,0-.34.02-.02.02-.02.03-.03,0,0,.01,0,.02,0,.61,0,1.22,0,1.83,0,.04,0,.08,0,.13,0,.01,0,.02.01.05.02.02.11.01.22,0,.34-.1.02-.18.04-.26.06-.08.03-.1.09-.06.17,0,.02.02.04.03.05.2.29.4.58.6.87,0,.01.02.02.04.03.14-.15.24-.34.36-.51.12-.17.24-.33.34-.51-.08-.16-.24-.09-.36-.14-.04-.14-.04-.18,0-.36.16-.03,1.3-.03,1.53,0,.04.14.05.15.01.35-.06.01-.12.03-.18.04-.19.05-.34.14-.46.3-.26.37-.54.72-.8,1.08-.04.05-.07.1-.11.16.04.06.07.11.11.16.35.51.71,1.01,1.06,1.52.09.14.21.2.36.23.06.01.12.02.19.02.03.11.01.21.01.32-.04.01-.08.02-.11.02-.61,0-1.22,0-1.83,0-.02,0-.04,0-.07-.01-.05-.1-.02-.2-.02-.29Z"/>
        <path class="uuid-b08c1ea8-37b1-4718-b937-c9c31003ec3b" d="m19.23,12.53v.32s-.07.02-.1.02c-.67,0-1.35,0-2.02,0-.03,0-.07-.01-.1-.02-.03-.11-.02-.21-.01-.31.07-.06.14-.03.21-.04.08-.01.17-.02.25-.04.07-.02.12-.08.12-.16,0-.04,0-.07,0-.11,0-.88,0-1.75,0-2.63,0-.06,0-.11,0-.16-.06-.06-.13-.04-.19-.04-.12,0-.24.01-.36-.02v-.33c.06-.03.12-.05.17-.07.28-.11.57-.21.84-.32.2-.08.39-.07.6-.05.03.08.02.16.02.23,0,1.09,0,2.17,0,3.26,0,.06,0,.11,0,.17,0,.19.08.26.27.27.06,0,.11,0,.17,0,.04,0,.08,0,.14,0Z"/>
        <path class="uuid-b08c1ea8-37b1-4718-b937-c9c31003ec3b" d="m18.8,7.29c0,.35-.29.64-.65.64-.35,0-.64-.3-.64-.65,0-.35.29-.64.65-.64.35,0,.64.29.64.64Z"/>
        <path class="uuid-b08c1ea8-37b1-4718-b937-c9c31003ec3b" d="m41.69,6.6c-.01.13-.05.25-.13.35-.04.05-.09.07-.15.05-.07-.02-.13-.05-.2-.07-.12-.04-.17-.12-.17-.24,0-.1,0-.2.05-.29.08-.21.29-.25.46-.1.09.08.13.18.13.3Z"/>
        <path class="uuid-b08c1ea8-37b1-4718-b937-c9c31003ec3b" d="m39.86,6.97c-.09-.06-.12-.15-.14-.25-.02-.15,0-.3.11-.41.07-.07.15-.07.22,0,.1.09.15.33.1.45-.01.03-.03.05-.05.07-.07.06-.15.13-.25.15Z"/>
        <path class="uuid-b08c1ea8-37b1-4718-b937-c9c31003ec3b" d="m34.93,8.41s.06-.03.07-.05c.03-.04.05-.09.07-.13.03-.05.06-.05.12-.01,0,.05-.02.1-.03.15,0,.05,0,.1,0,.15,0,.05.02.1.03.17-.07,0-.13,0-.18,0-.04-.07.01-.08.04-.1.01-.02,0-.05,0-.07-.02,0-.04,0-.05,0-.03.02-.06.02-.1,0-.03-.02-.05-.02-.06.01,0,.02,0,.04.01.06.02.02.07.03.06.08q-.08.03-.2.01c.04-.15.06-.3-.02-.46.05,0,.07-.01.11-.02.04.07.09.14.13.22Z"/>
        <path class="uuid-b08c1ea8-37b1-4718-b937-c9c31003ec3b" d="m34.58,8.68h-.27c0-.08.09-.11.07-.19-.01-.06,0-.12-.01-.18-.11-.05-.06.11-.15.08-.04-.05-.01-.12,0-.19.15-.03.28-.01.42-.02.04.08.03.14.01.2-.1.02-.05-.09-.12-.1-.06.05-.02.12-.04.18-.02.08.05.12.1.2Z"/>
      </g>
      <rect class="uuid-2d170062-81d0-47d4-824f-37a71dc052cd" x=".5" y=".5" width="56.32" height="18.71" rx="9.35" ry="9.35"/>
    </g>
  </g>
</svg>