<?xml version="1.0" encoding="UTF-8"?>
<svg id="uuid-8a43e2a2-b1de-42cf-8050-f4b8ba9e3d08" data-name="Capa 2" xmlns="http://www.w3.org/2000/svg" viewBox="0 0 64.53 19.71">
  <defs>
    <style>
      .uuid-c5756577-d8cf-4103-96e7-965017e6dde0 {
        fill: #fff;
      }

      .uuid-ec6ba868-217e-40ce-b50a-495340b108ab {
        opacity: .8;
      }

      .uuid-42e8d682-a1b7-4939-95ce-d441dfa0734b {
        fill: none;
        stroke: #161616;
        stroke-miterlimit: 10;
      }
    </style>
  </defs>
  <g id="uuid-3d943743-12cd-437a-82ff-72d1dd9e48cf" data-name="logos">
    <g>
      <rect class="uuid-42e8d682-a1b7-4939-95ce-d441dfa0734b" x=".5" y=".5" width="63.53" height="18.71" rx="9.35" ry="9.35"/>
      <g class="uuid-ec6ba868-217e-40ce-b50a-495340b108ab">
        <path class="uuid-c5756577-d8cf-4103-96e7-965017e6dde0" d="m19.38,13.9c-.24-.33-.56-.63-.79-.99-.09-.14-.21-.26-.31-.38-.25-.3-.49-.6-.73-.91-.2-.27-.45-.51-.65-.79-.22-.3-.48-.56-.69-.86-.19-.28-.44-.52-.65-.79-.2-.27-.43-.52-.62-.79-.21-.3-.47-.57-.71-.86-.01,0-.02.01-.03.02,0,0-.01.02-.01.03,0,2.11,0,4.21,0,6.33h-1.39V5.74h1.74c.27.33.56.66.82,1,.27.35.56.68.84,1.03.25.31.49.63.75.94.29.35.56.71.85,1.05.26.3.5.62.75.93.29.36.57.74.86,1.11.14.18.31.33.45.52.2.27.43.51.62.8.11.17.25.33.41.47.09.08.07.26.24.26.01,0,.02-.01.03-.02,0,0,.02-.02.02-.02,0-2.68,0-5.36,0-8.06h7.03v1.25h-5.58s-.07.07-.11.11c0,.61,0,1.23,0,1.84,0,.09,0,.17.11.23h4.49v1.27h-4.58v2.18h5.68v1.27h-8.81Z"/>
        <path class="uuid-c5756577-d8cf-4103-96e7-965017e6dde0" d="m38.36,13.91h-1.82c-.12-.14-.25-.29-.37-.44-.11-.14-.21-.3-.32-.44-.14-.17-.29-.33-.43-.49-.11-.13-.26-.25-.33-.41-.08-.17-.24-.24-.31-.41-.07-.15-.22-.27-.33-.41-.3-.36-.61-.72-.9-1.1-.18-.24-.37-.46-.57-.69-.21-.25-.39-.52-.59-.78-.21-.27-.45-.51-.65-.79-.2-.27-.43-.52-.62-.8-.1-.15-.25-.27-.36-.42-.2-.27-.43-.52-.65-.79-.04-.05-.07-.12-.12-.2.29-.04.58-.01.87-.02.29,0,.58,0,.88,0,.21.19.39.43.56.67.08.13.2.24.3.36.34.42.69.84,1.01,1.27.17.22.37.43.56.64.25-.23.45-.49.64-.76.2-.27.45-.52.65-.79.2-.27.43-.51.62-.79.14-.21.34-.39.52-.6h1.74c-.03.12-.1.2-.17.29-.23.3-.49.58-.71.89-.09.13-.21.25-.32.38-.33.42-.67.82-.99,1.25-.2.27-.44.52-.65.79-.13.17-.26.34-.4.53,1.08,1.34,2.17,2.69,3.26,4.05Z"/>
        <path class="uuid-c5756577-d8cf-4103-96e7-965017e6dde0" d="m44.19,13.9h-1.35v-6.79s-.07-.07-.11-.11h-2.77v-1.26h7.01s.05.05.08.08v1.18h-2.77s-.06.06-.09.09v6.81Z"/>
        <path class="uuid-c5756577-d8cf-4103-96e7-965017e6dde0" d="m31.76,13.97c-.6,0-1.18,0-1.75,0,0,0-.02-.01-.04-.04.91-1.13,1.83-2.27,2.74-3.4.2.12.74.76.93,1.11-.62.77-1.25,1.55-1.88,2.33Z"/>
        <path class="uuid-c5756577-d8cf-4103-96e7-965017e6dde0" d="m49.95,12.4c-.06-.37.11-.61.42-.74.21-.09.42-.14.67-.08.27.06.44.19.59.36.03.11.06.19.1.29-.15.04-.29,0-.43.02q-.04-.19-.25-.32c-.22.02-.46-.06-.66.15v.28c.14.21.4.22.63.27.3.07.56.16.7.52v.4c-.12.17-.25.35-.53.42-.16,0-.39.01-.61,0-.4-.03-.66-.27-.7-.69h.42c0,.19.13.29.34.37h.4c.12-.11.32-.17.29-.42-.07-.06-.15-.13-.25-.21-.19-.02-.4-.08-.61-.15-.22-.07-.46-.18-.53-.47Z"/>
        <path class="uuid-c5756577-d8cf-4103-96e7-965017e6dde0" d="m49.05,11.61h.34s.02.01.02.02c0,0,.01.02.01.03,0,.63,0,1.25,0,1.88-.15.26-.18.29-.41.43-.68.05-.87-.03-1.05-.33v-.29h.35c.06.11.11.21.17.33.16-.02.31-.04.44-.06.12-.14.12-.28.12-.42,0-.47,0-.93,0-1.4,0-.06,0-.12,0-.18Z"/>
        <path class="uuid-c5756577-d8cf-4103-96e7-965017e6dde0" d="m47.38,13.97h-.23c-.03-.09-.07-.17-.11-.27.07-.05.14-.09.25-.17-.01,0,.05,0,.12,0,.07.08.2.13.16.3-.05.04-.1.08-.19.15Z"/>
      </g>
    </g>
  </g>
</svg>