<?xml version="1.0" encoding="UTF-8"?>
<svg id="uuid-e1b449b6-cb35-4c1a-b835-ff0f7409aa00" data-name="Capa 2" xmlns="http://www.w3.org/2000/svg" viewBox="0 0 57.32 19.71">
  <defs>
    <style>
      .uuid-65e8469c-209e-41d5-9c27-267fac150ae3 {
        fill: #fff;
      }

      .uuid-f5afd61a-7798-41ff-b7d3-227e47395197 {
        opacity: .8;
      }

      .uuid-349af5da-3b25-4f93-b077-bf94b406b02a {
        fill: none;
        stroke: #161616;
        stroke-miterlimit: 10;
      }
    </style>
  </defs>
  <g id="uuid-1e9504aa-7ecb-416a-8a44-fae7e9548378" data-name="logos">
    <g>
      <g class="uuid-f5afd61a-7798-41ff-b7d3-227e47395197">
        <path class="uuid-65e8469c-209e-41d5-9c27-267fac150ae3" d="m29.02,7.57c-.08.34-.16.67-.24,1.01-.39,1.63-.78,3.26-1.17,4.89-.1.42-.19.49-.62.49-.27,0-.54,0-.81,0-.2,0-.33-.11-.4-.29-.11-.33-.22-.67-.32-1.01-.64-2.11-1.28-4.22-1.92-6.33-.03-.1-.06-.21-.08-.32-.03-.17.06-.26.23-.27.33,0,.65,0,.98,0,.21,0,.35.09.41.29.1.35.19.69.28,1.04.43,1.7.87,3.41,1.3,5.12,0,.03.02.06.04.13.02-.07.04-.11.05-.16.46-1.96.93-3.93,1.39-5.89.02-.08.05-.17.07-.25.05-.18.19-.27.37-.27.33,0,.67,0,1,0,.2,0,.32.13.37.32.07.29.14.58.21.87.42,1.79.84,3.58,1.27,5.36,0,.02,0,.04.04.06.01-.04.03-.08.04-.12.52-2,1.03-4,1.55-6,.11-.43.21-.5.64-.5.25,0,.5,0,.75,0,.19,0,.26.08.25.27,0,.09-.03.17-.05.25-.75,2.4-1.5,4.8-2.25,7.2-.14.45-.22.51-.68.51-.24,0-.48,0-.72,0-.29,0-.41-.1-.48-.38-.17-.71-.34-1.42-.51-2.13-.3-1.27-.61-2.53-.91-3.8,0-.03-.02-.06-.03-.08,0,0-.01,0-.02,0Z"/>
        <path class="uuid-65e8469c-209e-41d5-9c27-267fac150ae3" d="m21.14,12.91c-.19.18-.36.36-.56.51-1,.77-2.11.97-3.3.55-.82-.29-1.26-.94-1.39-1.79-.08-.57-.04-1.14.24-1.66.38-.7.98-1.1,1.73-1.3.61-.16,1.23-.16,1.84-.08.41.05.82.14,1.24.21.02,0,.04,0,.05,0,0-.01.02-.02.02-.02.01-.47.03-.93-.07-1.39-.15-.7-.53-1.03-1.26-1.13-.84-.12-1.64.04-2.43.32-.19.07-.39.15-.59.21-.16.05-.26-.02-.27-.18-.01-.23,0-.46,0-.69,0-.16.11-.27.25-.33.32-.14.65-.28.98-.38.96-.29,1.94-.34,2.92-.11,1.07.25,1.72.94,1.89,2.02.05.3.07.61.07.92,0,.88,0,1.77,0,2.65,0,.3,0,.61.08.91.07.3.2.58.33.86.12.26.09.39-.14.55-.17.11-.34.23-.51.34-.24.16-.42.15-.59-.09-.18-.24-.33-.5-.49-.76-.03-.05-.05-.1-.08-.15Zm-.07-2.1s0,0-.01,0c0-.09,0-.19,0-.28,0-.1-.03-.13-.12-.14-.37-.05-.73-.13-1.1-.16-.43-.04-.87-.04-1.3.06-.52.13-.89.42-1.01.96-.04.2-.05.4-.03.61.04.61.42,1.01,1.02,1.09.51.07,1-.01,1.46-.24.52-.25.9-.63,1.01-1.23.04-.22.05-.45.08-.67Z"/>
        <path class="uuid-65e8469c-209e-41d5-9c27-267fac150ae3" d="m38.47,5.5c.66,0,1.26.11,1.85.32.16.06.3.14.45.23.14.09.22.22.22.39,0,.19,0,.38,0,.56-.01.17-.11.24-.27.2-.21-.06-.4-.16-.6-.22-.73-.24-1.48-.3-2.23-.15-.11.02-.22.06-.32.11-.33.14-.53.39-.57.75-.04.39.08.7.41.92.28.19.6.31.92.41.58.19,1.17.36,1.73.58.63.24,1.11.67,1.31,1.35.29,1-.04,2.09-1.08,2.73-.47.29-.99.44-1.53.5-.93.1-1.84-.03-2.71-.35-.15-.05-.28-.13-.42-.2-.19-.1-.26-.27-.27-.48,0-.15,0-.3,0-.45,0-.27.13-.36.39-.27.18.06.35.14.52.21.78.28,1.58.38,2.4.27.29-.04.56-.12.8-.28.6-.38.66-1.36-.06-1.72-.36-.17-.74-.29-1.12-.43-.45-.16-.91-.28-1.36-.46-.72-.29-1.23-.81-1.42-1.57-.23-.9.05-1.66.76-2.26.53-.45,1.17-.64,1.85-.69.13-.01.26-.01.35-.02Z"/>
      </g>
      <rect class="uuid-349af5da-3b25-4f93-b077-bf94b406b02a" x=".5" y=".5" width="56.32" height="18.71" rx="9.35" ry="9.35"/>
    </g>
  </g>
</svg>