<?xml version="1.0" encoding="UTF-8"?>
<svg id="uuid-2b3bdee0-49c4-4baf-ac24-393c6c81ac07" data-name="Capa 2" xmlns="http://www.w3.org/2000/svg" viewBox="0 0 57.32 19.71">
  <defs>
    <style>
      .uuid-83332a2d-3978-4732-9c8a-c4dd68d7914a {
        fill: #fff;
      }

      .uuid-0c98f9c3-d7ca-4bc5-9a87-b836b499a189 {
        opacity: .8;
      }

      .uuid-4cb161a8-5a3b-416b-8ba0-24d1ce4cd4d9 {
        fill: none;
        stroke: #161616;
        stroke-miterlimit: 10;
      }
    </style>
  </defs>
  <g id="uuid-3e1ab2ee-c1f0-4c7f-80ea-9657f068b206" data-name="logos">
    <g>
      <g class="uuid-0c98f9c3-d7ca-4bc5-9a87-b836b499a189">
        <path class="uuid-83332a2d-3978-4732-9c8a-c4dd68d7914a" d="m33.2,3.95c.28.17.56.34.84.51.2.12.41.24.61.36.13.08.19.19.19.35,0,2.52,0,5.03,0,7.55,0,.16-.06.27-.19.35-.81.5-1.62.99-2.42,1.49-.12.07-.23.08-.35,0-.82-.5-1.63-1.01-2.45-1.51-.11-.07-.17-.17-.17-.31,0-1.01,0-2.02,0-3.03,0-.13.06-.24.16-.3.82-.51,1.64-1.01,2.47-1.52.11-.07.22-.06.33,0,.18.11.36.22.54.33.16.1.22.06.22-.13,0-1.3,0-2.61,0-3.91,0-.1.02-.19.1-.24.04,0,.08,0,.12,0Zm-.23,7.3c0-.16,0-.32,0-.49,0-.04-.03-.11-.07-.13-.26-.17-.52-.33-.79-.49-.03-.02-.1-.02-.13,0-.27.16-.53.32-.79.49-.03.02-.07.08-.07.12,0,.33,0,.66,0,.98,0,.04.03.1.07.12.26.17.52.33.79.49.03.02.1.02.13,0,.27-.16.53-.32.79-.49.04-.02.07-.09.07-.14,0-.15,0-.31,0-.46Z"/>
        <path class="uuid-83332a2d-3978-4732-9c8a-c4dd68d7914a" d="m15.68,9.54c.04-.11.12-.18.21-.24.79-.48,1.58-.97,2.36-1.45.14-.09.27-.09.42,0,.79.49,1.59.98,2.38,1.46.14.09.21.2.21.38,0,1.32,0,2.63,0,3.95,0,.03,0,.05,0,.08-.01.16-.12.23-.26.15-.23-.14-.46-.28-.7-.42-.24-.15-.48-.3-.72-.44-.13-.08-.19-.19-.19-.35,0-.61,0-1.21,0-1.82,0-.17-.06-.28-.2-.36-.18-.11-.36-.22-.54-.33-.13-.08-.25-.08-.37,0-.18.11-.36.23-.54.33-.13.08-.19.19-.19.35,0,.6,0,1.19,0,1.79,0,.19-.06.32-.22.41-.46.27-.91.55-1.36.83-.14.08-.19.07-.28-.07v-4.25Z"/>
        <path class="uuid-83332a2d-3978-4732-9c8a-c4dd68d7914a" d="m28.03,11.22c0,.49,0,.98,0,1.47,0,.15-.05.26-.17.33-.81.5-1.62,1-2.43,1.5-.12.07-.23.07-.35,0-.81-.5-1.61-1-2.42-1.49-.11-.07-.17-.17-.17-.31,0-1.01,0-2.01,0-3.02,0-.15.07-.25.19-.32.69-.42,1.38-.85,2.07-1.28.1-.06.2-.12.3-.19.14-.1.28-.09.43,0,.72.45,1.44.89,2.17,1.34.07.04.14.09.21.13.12.07.18.18.18.34,0,.5,0,1,0,1.5h0Z"/>
        <path class="uuid-83332a2d-3978-4732-9c8a-c4dd68d7914a" d="m36.08,11.2c0-.49,0-.99,0-1.48,0-.16.06-.27.19-.35.8-.49,1.6-.99,2.4-1.48.13-.08.26-.08.39,0,.79.49,1.59.99,2.38,1.48.14.08.2.2.2.37,0,.22,0,.43,0,.65,0,.15-.05.26-.17.33-.48.29-.95.59-1.43.89-.16.1-.27.03-.27-.17,0-.21,0-.43,0-.64,0-.11-.03-.18-.12-.23-.23-.14-.46-.28-.69-.43-.08-.05-.15-.05-.23,0-.23.15-.46.29-.69.43-.08.05-.12.12-.12.22,0,.28,0,.56,0,.83,0,.12.04.19.14.25.79.48,1.58.97,2.37,1.45.04.03.09.06.12.1.05.08.02.18-.08.24-.23.14-.47.28-.7.42-.25.15-.49.29-.74.44-.12.08-.24.07-.36,0-.8-.49-1.6-.97-2.4-1.46-.13-.08-.2-.19-.19-.36,0-.49,0-.99,0-1.48Z"/>
        <path class="uuid-83332a2d-3978-4732-9c8a-c4dd68d7914a" d="m39.38,11.18c.08.26-.05.38-.25.51-.2.13-.34.12-.54,0-.2-.12-.28-.25-.27-.5,0-.25.07-.38.27-.5.2-.12.34-.13.54,0,.19.13.33.24.25.5Z"/>
      </g>
      <rect class="uuid-4cb161a8-5a3b-416b-8ba0-24d1ce4cd4d9" x=".5" y=".5" width="56.32" height="18.71" rx="9.35" ry="9.35"/>
    </g>
  </g>
</svg>