<?xml version="1.0" encoding="UTF-8"?>
<svg id="uuid-afdbcf01-fc4a-4677-9c44-3025ca9033cd" data-name="Capa 2" xmlns="http://www.w3.org/2000/svg" viewBox="0 0 48.05 19.71">
  <defs>
    <style>
      .uuid-50ef588a-a069-4e01-b913-715b3dbbb296 {
        fill: #fff;
      }

      .uuid-259fc858-06da-44c4-9a9a-f4a3f369b263 {
        opacity: .8;
      }

      .uuid-cebfbd76-d675-427a-9b2b-378abf218cc5 {
        fill: none;
        stroke: #161616;
        stroke-miterlimit: 10;
      }
    </style>
  </defs>
  <g id="uuid-73456dc7-22ba-441e-a9ec-71c5bc93977e" data-name="logos">
    <g>
      <rect class="uuid-cebfbd76-d675-427a-9b2b-378abf218cc5" x=".5" y=".5" width="47.05" height="18.71" rx="9.35" ry="9.35"/>
      <g class="uuid-259fc858-06da-44c4-9a9a-f4a3f369b263">
        <path class="uuid-50ef588a-a069-4e01-b913-715b3dbbb296" d="m21.75,5.24c0,.07,0,.14,0,.22,0,.15.06.21.21.17.14-.03.29-.07.43-.1.19-.04.29.06.25.25-.03.15-.07.3-.11.46-.03.11.04.19.15.19.16,0,.31-.01.47-.02.2,0,.28.12.2.3-.06.14-.13.28-.19.43-.04.1,0,.19.12.21.15.03.3.05.45.07.2.03.26.17.14.34-.09.12-.17.24-.26.36-.08.11-.05.2.07.25.13.05.27.1.4.15.21.08.24.22.08.37-.11.1-.21.2-.32.3-.1.09-.09.19.03.26.13.08.26.16.39.24.15.1.15.24,0,.34-.13.09-.27.16-.4.25-.1.06-.11.17-.03.25.11.11.22.21.33.31.14.14.12.28-.07.35-.13.05-.27.1-.4.15-.15.06-.18.14-.08.28.08.12.17.23.25.35.1.15.05.28-.13.32-.15.03-.3.05-.45.07-.15.03-.19.11-.13.24.06.14.13.28.19.42.07.16,0,.28-.18.28-.15,0-.31,0-.46-.01-.15,0-.21.06-.18.21.03.14.07.28.1.42.05.21-.06.31-.27.26-.14-.03-.28-.07-.42-.1-.14-.03-.21.03-.2.17,0,.16.01.31.01.47,0,.17-.12.25-.27.18-.15-.06-.29-.13-.44-.2-.11-.05-.2,0-.22.12-.03.15-.05.31-.08.46-.04.19-.17.24-.33.13-.13-.09-.25-.18-.37-.27-.11-.07-.2-.05-.25.08-.06.15-.11.29-.17.44-.06.16-.21.19-.33.07-.11-.12-.22-.24-.33-.35-.08-.08-.18-.07-.24.02-.09.14-.17.28-.26.41-.1.15-.24.15-.34,0-.08-.13-.17-.27-.25-.4-.06-.1-.16-.11-.25-.03-.11.11-.21.22-.31.33-.14.14-.28.12-.35-.07-.06-.14-.11-.29-.16-.43-.05-.12-.14-.15-.25-.07-.12.09-.25.18-.37.27-.15.11-.29.05-.32-.14-.03-.15-.05-.31-.08-.46-.02-.11-.11-.16-.21-.12-.15.06-.29.14-.44.2-.17.07-.29,0-.29-.19,0-.16.01-.31.02-.47,0-.12-.08-.19-.19-.16-.15.03-.3.07-.45.1-.2.04-.3-.06-.26-.26.03-.14.07-.29.1-.43.03-.13-.03-.2-.17-.2-.16,0-.31.01-.47.01-.18,0-.26-.12-.19-.28.06-.14.13-.29.19-.43.05-.12,0-.21-.12-.23-.15-.03-.31-.05-.46-.08-.18-.04-.23-.17-.13-.32.09-.13.18-.25.27-.38.07-.1.04-.2-.07-.24-.15-.06-.29-.11-.44-.17-.17-.07-.2-.21-.07-.34.11-.11.22-.21.33-.31.11-.1.1-.19-.03-.27-.13-.08-.25-.16-.38-.24-.16-.1-.16-.25,0-.35.13-.08.26-.16.39-.24.11-.07.12-.17.03-.26-.1-.1-.21-.2-.32-.3-.17-.16-.14-.29.08-.38.13-.05.27-.1.4-.15.11-.04.14-.14.07-.24-.09-.13-.18-.25-.27-.38-.11-.16-.05-.29.14-.32.15-.03.3-.05.45-.07.13-.02.17-.11.12-.23-.06-.14-.13-.28-.19-.42-.08-.17,0-.3.19-.29.15,0,.31.01.46.02.14,0,.2-.07.17-.21-.04-.15-.07-.3-.11-.46-.03-.16.07-.27.23-.23.16.03.31.07.47.11.13.03.2-.03.2-.17,0-.15-.02-.31-.02-.46,0-.19.12-.27.29-.19.14.06.27.12.41.18.14.06.22.02.24-.13.02-.15.05-.29.07-.44.03-.19.17-.25.33-.13.12.09.25.18.37.27.1.07.2.04.24-.07.06-.15.11-.29.16-.44.07-.17.21-.2.34-.07.11.11.21.22.31.33.1.11.19.1.27-.03.08-.13.15-.25.24-.38.1-.16.25-.16.35,0,.08.13.16.26.24.39.07.12.16.13.26.03.11-.11.21-.23.32-.34.13-.13.27-.1.34.07.06.15.11.29.17.44.04.11.14.14.24.08.13-.09.25-.18.38-.27.15-.1.28-.05.32.13.03.15.05.3.07.45.02.14.11.18.24.13.14-.06.28-.13.42-.19.17-.07.29,0,.29.19,0,.08,0,.16,0,.24h-.01Zm-6.74,1.62h.17c1.48,0,2.96,0,4.44,0,.5,0,.94.17,1.3.52.36.34.53.76.4,1.25-.08.32-.31.55-.56.75-.09.08-.19.15-.29.22,0,.01,0,.02.01.03.42.28.61.69.69,1.17,0,.04.03.08.06.11.16.15.36.18.57.13.2-.04.34-.16.39-.36.03-.13.03-.27.03-.4,0-.1.04-.14.14-.13.13,0,.25,0,.38,0,0-.25,0-.49,0-.72,0-.03-.05-.07-.09-.09-.22-.1-.45-.2-.67-.3-.24-.11-.3-.27-.2-.51.12-.27.24-.54.36-.81.03-.07.03-.13-.01-.2-.68-1.09-1.64-1.78-2.9-2.05-.05-.01-.12,0-.15.04-.18.16-.35.33-.52.49-.19.18-.36.18-.54,0-.15-.16-.3-.32-.46-.48-.03-.03-.1-.06-.15-.05-.46.09-.89.26-1.3.49-.4.23-.76.52-1.09.89Zm2.31,3.41v.81c.34,0,.66,0,.99,0,.1,0,.14.03.14.14,0,.36,0,.71,0,1.07q0,.17-.18.17c-1.12,0-2.25,0-3.37,0h-.16c.13.15.23.26.32.38.05.06.1.07.18.05.18-.04.36-.08.55-.12.31-.07.44.03.51.33.04.22.09.43.13.65.01.07.05.11.12.14,1.17.49,2.34.49,3.51.02.07-.03.11-.07.12-.14.05-.24.1-.48.15-.72.05-.22.21-.32.43-.27.21.04.41.09.62.13.05,0,.11.01.14-.01.13-.13.25-.27.39-.44h-.18c-.55,0-1.1,0-1.65,0-.1,0-.21-.03-.3-.09-.21-.15-.36-.35-.42-.6-.08-.31-.14-.63-.22-.94-.1-.37-.36-.55-.74-.55-.13,0-.25,0-.38,0h-.7Zm-2.63-2.07c.05.12.09.21.13.31.1.24.04.4-.2.51-.21.1-.43.19-.64.28-.04.02-.09.06-.09.1-.06.52,0,1.04.12,1.55.02.07.05.08.12.08.31,0,.62,0,.93,0,.08,0,.16,0,.24,0v-2.83h-.62Zm2.62.84c.54,0,1.06,0,1.59,0,.08,0,.17-.04.25-.08.25-.13.28-.42.05-.58-.12-.08-.29-.14-.43-.15-.45-.02-.91,0-1.36,0-.03,0-.06,0-.1.01v.81Zm.98-4.19c-.2,0-.36.17-.35.37,0,.2.17.35.36.35.2,0,.36-.17.35-.37,0-.19-.17-.35-.36-.35Zm-3.03,8.72c0,.2.16.37.36.36.19,0,.35-.17.35-.36,0-.2-.16-.36-.36-.36-.2,0-.35.16-.35.36Zm6.98-5.07c0,.2.16.36.35.36.2,0,.36-.16.36-.36,0-.19-.16-.36-.36-.36-.2,0-.36.16-.36.36Zm-1.63,5.09c0,.2.15.35.35.36.2,0,.37-.16.37-.36,0-.2-.17-.36-.37-.36-.2,0-.35.16-.35.36Zm-6.98-5.11c0,.2.16.36.35.36.2,0,.37-.16.37-.36,0-.2-.16-.36-.37-.36-.2,0-.35.16-.35.36Z"/>
        <path class="uuid-50ef588a-a069-4e01-b913-715b3dbbb296" d="m25.09,8.26h1.12s0,.09,0,.14c0,.6,0,1.2,0,1.79,0,.1,0,.2.02.3.04.47.46.56.77.43.32-.13.44-.41.46-.72.03-.45.02-.9.02-1.35,0-.19,0-.39,0-.59h1.1v3.46h-1.1v-.45h-.03c-.05.04-.1.09-.15.15-.4.38-.87.49-1.39.34-.5-.14-.71-.53-.79-1.01-.02-.15-.03-.3-.03-.46,0-.64,0-1.27,0-1.91v-.13Z"/>
        <path class="uuid-50ef588a-a069-4e01-b913-715b3dbbb296" d="m32.38,9.17c-.33-.08-.65-.18-.98-.23-.22-.03-.46-.01-.68.01-.08,0-.18.07-.23.14-.11.14-.04.33.15.38.21.05.43.07.64.12.28.06.56.12.82.21.28.1.45.32.49.62.02.2.03.41-.01.6-.09.4-.39.6-.76.7-.51.14-1.03.12-1.55.04-.22-.03-.44-.09-.66-.14-.03,0-.08-.05-.08-.07,0-.25,0-.51,0-.78.1.04.18.07.26.1.45.17.91.25,1.38.19.08-.01.17-.04.24-.07.11-.05.17-.15.16-.28,0-.13-.08-.22-.21-.24-.22-.05-.44-.07-.66-.12-.19-.04-.38-.07-.56-.13-.48-.16-.7-.5-.67-1.01.03-.57.35-.9.98-.99.63-.1,1.25-.01,1.87.13.03,0,.07.06.07.09,0,.25,0,.5,0,.74Z"/>
        <path class="uuid-50ef588a-a069-4e01-b913-715b3dbbb296" d="m35.71,10.93v.8c-.05,0-.1,0-.15,0-.39-.01-.79,0-1.18-.04-.51-.06-.76-.34-.8-.85-.02-.27-.02-.54-.02-.81,0-.32,0-.64,0-.98h-.54v-.79h.54v-.99h1.12v.98h1.14v.79h-1.13s0,.07,0,.1c0,.47,0,.93,0,1.4,0,.29.09.38.38.39.22,0,.43,0,.66,0Z"/>
      </g>
    </g>
  </g>
</svg>