<?xml version="1.0" encoding="UTF-8"?>
<svg id="uuid-de0fa2f9-5c2a-459b-a0bb-c29534330584" data-name="Capa 2" xmlns="http://www.w3.org/2000/svg" viewBox="0 0 36.75 19.71">
  <defs>
    <style>
      .uuid-907e6967-fe5e-48ef-a2e5-e5533b5f697b {
        fill: #fff;
      }

      .uuid-d9d97218-cbbc-4588-8539-9315498f92ce {
        opacity: .8;
      }

      .uuid-a0ed954f-3f0c-4d11-916b-5689c7ed8729 {
        fill: none;
        stroke: #161616;
        stroke-miterlimit: 10;
      }
    </style>
  </defs>
  <g id="uuid-09586250-ac6a-41b0-ba6a-5aa1ec21fa44" data-name="logos">
    <g>
      <g class="uuid-d9d97218-cbbc-4588-8539-9315498f92ce">
        <path class="uuid-907e6967-fe5e-48ef-a2e5-e5533b5f697b" d="m18.42,12.54c.5-.29.99-.57,1.48-.85.14.18.26.35.41.51.56.59,1.25.72,2.01.49.31-.09.54-.29.61-.62.06-.29.01-.56-.21-.77-.16-.14-.34-.26-.53-.36-.36-.18-.75-.32-1.11-.5-.32-.16-.65-.32-.95-.52-.8-.52-1.17-1.28-1.15-2.23.02-1.12.71-2,1.82-2.28.73-.18,1.46-.16,2.16.13.58.24.98.67,1.28,1.2,0,0,0,.02,0,.03-.47.3-.94.6-1.41.91-.05-.07-.09-.14-.13-.21-.17-.25-.39-.46-.7-.53-.22-.05-.44-.06-.66,0-.69.2-.68,1-.34,1.32.13.12.29.23.45.31.34.17.68.31,1.03.46.49.22.97.46,1.39.8.59.48.88,1.1.92,1.85.02.5-.05.97-.3,1.41-.3.54-.76.89-1.34,1.08-1.19.39-2.36.32-3.46-.29-.55-.31-.96-.77-1.26-1.35Z"/>
        <path class="uuid-907e6967-fe5e-48ef-a2e5-e5533b5f697b" d="m11.97,12.73c.49-.3.99-.6,1.48-.9.06.1.11.19.16.27.12.19.24.37.43.49.37.24.77.23,1.16.05.24-.12.33-.36.37-.61.02-.16.03-.32.03-.48,0-2,0-4,0-5.99v-.15h1.83s0,.07,0,.11c0,2.02,0,4.04,0,6.06,0,.42-.04.83-.17,1.22-.24.71-.71,1.2-1.43,1.43-.84.27-1.67.25-2.49-.1-.63-.27-1.06-.75-1.36-1.35,0-.01-.01-.03-.02-.05Z"/>
      </g>
      <rect class="uuid-a0ed954f-3f0c-4d11-916b-5689c7ed8729" x=".5" y=".5" width="35.75" height="18.71" rx="9.35" ry="9.35"/>
    </g>
  </g>
</svg>