<?xml version="1.0" encoding="UTF-8"?>
<svg id="uuid-3c90a30f-5638-4476-8e39-9cc3e47cbdf8" data-name="Capa 2" xmlns="http://www.w3.org/2000/svg" viewBox="0 0 69.32 19.71">
  <defs>
    <style>
      .uuid-c4bbec3d-e575-45c7-99ae-3681c17dc948 {
        fill: #fff;
      }

      .uuid-604ae4ec-e059-4801-896b-f9b069e5abc2 {
        opacity: .8;
      }

      .uuid-704590ec-2e57-469c-8a5a-ced438e8891a {
        fill: none;
        stroke: #161616;
        stroke-miterlimit: 10;
      }
    </style>
  </defs>
  <g id="uuid-999cfb42-2a6a-493d-aa88-58be1002a258" data-name="logos">
    <g>
      <g class="uuid-604ae4ec-e059-4801-896b-f9b069e5abc2">
        <path class="uuid-c4bbec3d-e575-45c7-99ae-3681c17dc948" d="m26.96,10.86c.52.53.94,1.14,1.59,1.53.32.19.66.28,1.03.22.38-.06.55-.23.58-.61.03-.44.05-.88.05-1.32,0-.56,0-1.12-.04-1.68-.03-.49-.2-.63-.7-.68-.07,0-.13-.07-.2-.1.07-.04.14-.12.21-.12.99,0,1.99,0,2.98.05,1.13.06,2.01.78,2.22,1.74.3,1.41-.45,2.58-1.87,2.86-.34.07-.7.1-1.05.11-1.28.01-2.57,0-3.85,0-.18,0-.3-.04-.42-.2-.43-.56-.87-1.11-1.32-1.65-.08-.1-.22-.14-.34-.2-.04.02-.08.05-.11.07.04.45.06.9.14,1.34.05.31.35.36.61.4.08.01.15.07.22.11-.08.04-.16.11-.24.11-.78,0-1.57,0-2.35,0-.08,0-.15-.07-.23-.1.07-.04.13-.12.2-.12.48-.05.67-.19.69-.66.03-1.03.02-2.05,0-3.08,0-.37-.24-.52-.67-.57-.07,0-.14-.08-.21-.11.07-.04.14-.11.22-.11.93,0,1.86,0,2.79.05.27.01.55.13.79.26.81.46.85,1.56.06,2.08-.23.15-.5.24-.78.37Zm4.17-.59c0,.32,0,.63,0,.95,0,.3,0,.6.05.89.02.11.14.26.24.3.76.28,1.76-.18,2.05-.94.19-.51.21-1.04.11-1.58-.15-.8-.55-1.23-1.35-1.36-.27-.05-.54-.02-.81-.04-.23-.02-.31.05-.3.29.02.5,0,1,0,1.5Zm-4.92-1.79s-.09,0-.13,0c-.27-.04-.35.07-.34.34.02.34,0,.68,0,1.02q0,.67.68.61c.45-.04.78-.29.86-.68.15-.69-.17-1.36-1.08-1.29Z"/>
        <path class="uuid-c4bbec3d-e575-45c7-99ae-3681c17dc948" d="m42.57,10.79c0,.46-.03.81,0,1.16.05.48.2.61.7.65.17.01.26.04.18.24h-2.8v-.2s.03-.03.05-.03c.69-.07.84-.21.85-.91.01-.86,0-1.72,0-2.58,0-.57-.17-.74-.73-.79-.18-.02-.21-.08-.15-.26.33,0,.67,0,1.01,0,.67.01,1.34.01,2,.06.25.02.52.12.74.25.84.47.89,1.57.09,2.11-.22.15-.49.23-.77.37.65.62,1.11,1.46,2.09,1.71.47.12.78-.08.87-.55.02-.1.03-.21.03-.31,0-.83,0-1.65,0-2.48,0-.65-.13-.79-.77-.9-.06-.01-.11-.11-.17-.17l.05-.06h4.17c.03.4.06.81.08,1.21,0,.04-.05.08-.07.12-.05-.03-.09-.06-.14-.09-.02-.01-.02-.05-.03-.07-.07-.54-.43-.73-.92-.75-.39-.01-.79,0-1.2,0v1.6c.83.15,1.15-.06,1.22-.8.07,0,.14,0,.22-.01v2.08c-.14.03-.23.05-.24-.14-.04-.51-.13-.59-.64-.65-.18-.02-.36-.02-.6-.03.03.51.04.98.09,1.44.03.25.21.41.47.42.41,0,.83.01,1.24-.02.32-.02.53-.21.61-.53.02-.07.03-.14.06-.2.03-.05.09-.08.14-.12.02.05.07.1.07.15-.02.38-.04.77-.07,1.18h-.28c-1.79,0-3.57,0-5.36,0-.19,0-.31-.05-.42-.2-.43-.56-.87-1.11-1.31-1.65-.07-.09-.21-.13-.35-.22Zm-.03-2.29v1.27c0,.74.02.75.76.64.5-.08.78-.41.78-.93,0-.54-.26-.91-.76-.98-.25-.04-.5,0-.79,0Z"/>
        <path class="uuid-c4bbec3d-e575-45c7-99ae-3681c17dc948" d="m15.89,10.91c.23-.69.47-1.37.7-2.06.13-.4.27-.8.37-1.2.11-.46-.03-.65-.49-.73-.06-.01-.13,0-.18-.02-.06-.02-.11-.07-.17-.11.05-.04.1-.11.16-.12.14-.02.28,0,.42,0,.6,0,1.2,0,1.79,0,.08,0,.16.07.24.11-.07.04-.14.11-.22.11-.49.03-.84.25-1.01.71-.32.9-.63,1.8-.94,2.71-.29.85-.56,1.7-.85,2.54-.03.08-.1.14-.15.22-.05-.07-.12-.14-.15-.22-.44-1.32-.87-2.65-1.3-3.97-.03-.08-.06-.16-.11-.3-.06.16-.1.25-.13.35-.43,1.29-.85,2.58-1.28,3.87-.02.06-.03.12-.06.17-.03.04-.08.08-.13.1-.02,0-.08-.06-.09-.1-.09-.25-.17-.5-.25-.75-.44-1.36-.88-2.72-1.32-4.08-.06-.18-.13-.36-.21-.54-.18-.44-.51-.68-.99-.71-.06,0-.12-.08-.18-.12.07-.04.13-.1.2-.11.91,0,1.83,0,2.74,0,.06,0,.13.07.19.11-.06.04-.12.1-.19.12-.09.03-.19.02-.28.05-.35.08-.45.21-.42.55,0,.15.04.3.08.44.3.93.61,1.87.92,2.8.02.06.05.13.1.24.06-.15.1-.25.14-.36.41-1.23.82-2.46,1.24-3.69.03-.1.13-.17.2-.26.07.09.17.16.21.26.41,1.24.82,2.48,1.23,3.72.03.09.06.18.09.26.03,0,.05,0,.08,0Z"/>
        <path class="uuid-c4bbec3d-e575-45c7-99ae-3681c17dc948" d="m35.05,6.89c-.06-.17-.03-.25.15-.25,1.05,0,2.09-.02,3.14.03.39.02.8.15,1.14.35,1.08.63,1.06,2.14,0,2.79-.4.24-.84.34-1.31.36-.32.01-.65,0-1,0,0,.46,0,.91,0,1.35,0,.08.02.16.03.24.06.55.26.75.81.82.14.02.35-.02.25.28-.52,0-1.06,0-1.59,0s-1.07,0-1.61,0c-.07-.16-.06-.26.14-.27.64-.02.89-.27.93-.96.03-.6.04-1.21.03-1.82,0-.68,0-1.35-.05-2.03-.05-.66-.27-.84-.94-.88-.03,0-.07,0-.12-.01Zm2.1,2.77c.33,0,.62,0,.91,0,.57-.02.96-.35,1.09-.92.14-.62-.11-1.24-.59-1.48-.09-.04-.18-.09-.27-.09-.32-.02-.65-.03-.97-.03-.05,0-.15.1-.15.15,0,.78,0,1.56,0,2.37Z"/>
        <path class="uuid-c4bbec3d-e575-45c7-99ae-3681c17dc948" d="m21.02,7.91c.52,0,1.22.26,1.8.82,1.01.97,1.02,2.47.02,3.45-1.26,1.25-3.49,1.09-4.51-.33-.67-.94-.59-2.18.21-3.02.6-.62,1.33-.92,2.47-.92Zm-2.09,2.54c-.01.45.08.87.29,1.27.31.57.79.87,1.45.89.68.02,1.23-.24,1.55-.84.47-.87.46-1.77,0-2.64-.6-1.11-2.34-1.12-2.95-.01-.23.42-.34.86-.33,1.33Z"/>
        <path class="uuid-c4bbec3d-e575-45c7-99ae-3681c17dc948" d="m51.82,12.59c-.25.07-.11.5-.49.44v-1.92c.2-.08.25.02.29.2.21.89.99,1.43,1.81,1.26.3-.06.52-.21.6-.52.08-.29-.05-.52-.26-.7-.18-.15-.39-.27-.6-.38-.32-.17-.65-.3-.97-.47-.47-.25-.82-.61-.88-1.17-.08-.74.53-1.37,1.35-1.41.23,0,.46,0,.68.06.22.05.42.17.62.26.16-.07.09-.45.43-.32v1.62c-.07,0-.15.02-.24.02-.07-.21-.12-.4-.21-.58-.26-.54-.85-.8-1.39-.62-.23.08-.41.21-.46.46-.05.25.06.46.27.59.4.23.82.44,1.23.66.23.12.48.24.68.4.75.58.73,1.61-.03,2.19-.61.47-1.5.49-2.21.06-.08-.05-.16-.1-.23-.15Z"/>
        <path class="uuid-c4bbec3d-e575-45c7-99ae-3681c17dc948" d="m56.22,12.57c-.11.16-.21.32-.32.47-.01.02-.08,0-.14,0v-1.92c.22-.1.25.04.29.2.18.75.68,1.2,1.45,1.27.16.02.34,0,.49-.05.51-.17.66-.73.27-1.11-.16-.16-.37-.29-.58-.4-.35-.19-.71-.34-1.06-.52-.47-.25-.83-.61-.88-1.17-.07-.74.52-1.35,1.33-1.4.47-.03.91.07,1.28.34.21-.05.12-.48.47-.32v1.62c-.08,0-.16.01-.24.02-.07-.2-.12-.39-.2-.56-.26-.55-.85-.82-1.4-.64-.23.08-.41.21-.46.47-.04.25.06.46.27.58.43.25.88.47,1.32.7.21.11.42.22.61.37.73.59.71,1.58-.03,2.15-.61.48-1.51.51-2.23.07-.08-.05-.16-.1-.25-.16Z"/>
      </g>
      <rect class="uuid-704590ec-2e57-469c-8a5a-ced438e8891a" x=".5" y=".5" width="68.32" height="18.71" rx="9.35" ry="9.35"/>
    </g>
  </g>
</svg>