<?xml version="1.0" encoding="UTF-8"?>
<svg id="uuid-4424a70c-861c-4b97-9ebf-23ea1c259bbc" data-name="Capa 2" xmlns="http://www.w3.org/2000/svg" viewBox="0 0 69.32 19.71">
  <defs>
    <style>
      .uuid-cf3fad26-3203-4b2f-b711-1e0d673b3a41 {
        fill: #fff;
      }

      .uuid-8772a8f4-cfb1-406c-8755-4b3f6073a18c {
        opacity: .8;
      }

      .uuid-9e20e9d2-c866-40d3-a8a8-614bc9ea9428 {
        fill: none;
        stroke: #161616;
        stroke-miterlimit: 10;
      }
    </style>
  </defs>
  <g id="uuid-f7a21cd2-f817-4a24-9eab-cc0f1f5d8e65" data-name="logos">
    <g>
      <rect class="uuid-9e20e9d2-c866-40d3-a8a8-614bc9ea9428" x=".5" y=".5" width="68.32" height="18.71" rx="9.35" ry="9.35"/>
      <g class="uuid-8772a8f4-cfb1-406c-8755-4b3f6073a18c">
        <path class="uuid-cf3fad26-3203-4b2f-b711-1e0d673b3a41" d="m53.82,12.65h-.85v-5.66h.85v5.66Z"/>
        <path class="uuid-cf3fad26-3203-4b2f-b711-1e0d673b3a41" d="m19.87,10.17c.59-.34,1.12-.64,1.63-.95.07-.04.1-.19.1-.28,0-.61.01-1.23,0-1.84,0-.18.06-.28.21-.37.59-.33,1.18-.67,1.76-1.01.14-.08.26-.09.4,0,.58.35,1.17.68,1.76,1.01.15.09.23.18.22.37,0,.68,0,1.35,0,2.03,0,.18-.07.28-.23.37-.53.3-1.06.61-1.6.91-.16.09-.22.19-.21.37,0,.59,0,1.19,0,1.78,0,.21-.06.33-.25.44-1.24.7-2.48,1.42-3.71,2.13-.18.11-.32.11-.5,0-1.24-.72-2.49-1.44-3.73-2.15-.18-.1-.23-.22-.23-.41,0-2.2,0-4.39,0-6.59,0-.2.07-.31.24-.41.58-.32,1.16-.66,1.74-1,.14-.08.25-.09.4,0,.58.35,1.17.68,1.76,1.01.18.1.23.22.23.42,0,1.26,0,2.53,0,3.79,0,.11,0,.21,0,.39Zm-.3,4.64c0-.61,0-1.17,0-1.74,0-.17-.06-.26-.21-.34-.52-.29-1.03-.59-1.56-.87-.2-.11-.28-.23-.28-.47.01-1.18-.04-2.36.02-3.54.03-.61-.15-.97-.7-1.2-.35-.14-.66-.37-1.02-.57-.01.11-.02.17-.02.23,0,2.05,0,4.1,0,6.15,0,.18.09.26.22.33,1.09.62,2.17,1.25,3.26,1.87.08.04.16.08.28.14Zm4.06-4.08c-.1.04-.15.06-.2.08-1.14.65-2.28,1.29-3.41,1.95-.08.05-.15.18-.15.28-.02.36,0,.71,0,1.07,0,.22,0,.44,0,.67.07-.01.09,0,.1-.02,1.17-.67,2.35-1.34,3.52-2.02.07-.04.13-.14.13-.21.01-.58,0-1.17,0-1.8Zm-.17-.3c-.53-.31-1.02-.58-1.5-.87-.17-.1-.29-.09-.45,0-1.09.63-2.18,1.26-3.28,1.89-.07.04-.13.09-.23.15.1.07.17.12.25.16.39.22.79.43,1.17.66.19.12.35.12.55,0,1.07-.62,2.14-1.23,3.21-1.84.08-.04.15-.09.27-.17Zm-3.91-4.36c-.54.31-1.01.59-1.5.85-.17.09-.22.2-.22.39,0,1.23,0,2.47,0,3.7,0,.09,0,.17.02.3.11-.06.19-.09.27-.14.4-.23.8-.47,1.21-.69.18-.1.24-.21.23-.41,0-1.22,0-2.45,0-3.67,0-.09,0-.18-.01-.33Zm4.08,4.1c0-.66,0-1.25,0-1.83,0-.06-.03-.14-.07-.16-.53-.32-1.07-.62-1.66-.97,0,.51.03.96,0,1.4-.04.43.11.69.5.87.41.19.79.44,1.24.7Zm.29,0c.58-.34,1.11-.63,1.62-.94.07-.04.11-.18.11-.28.01-.4,0-.8,0-1.21,0-.16,0-.32,0-.54-.6.35-1.13.65-1.65.96-.04.03-.08.1-.08.16,0,.59,0,1.18,0,1.85Zm1.57-3.22c-.35-.2-.68-.35-.95-.57-.53-.43-1.02-.43-1.55,0-.27.22-.6.36-.95.56.58.33,1.11.64,1.64.94.04.03.13.03.17,0,.53-.3,1.06-.6,1.64-.94Zm-6.09-1.15c-.41-.24-.81-.42-1.14-.67-.41-.31-.76-.3-1.17,0-.34.25-.73.43-1.14.67.58.33,1.1.64,1.64.94.05.03.13.03.17,0,.53-.3,1.06-.6,1.64-.94Z"/>
        <path class="uuid-cf3fad26-3203-4b2f-b711-1e0d673b3a41" d="m36.8,12.63h-.82c0-.14-.02-.27-.03-.46-.42.43-.88.64-1.46.56-.55-.09-1-.35-1.31-.81-.57-.85-.42-2.03.35-2.69.71-.6,1.65-.57,2.41.12.01-.16.03-.3.04-.46h.82v3.73Zm-2-3.08c-.65,0-1.12.52-1.12,1.23,0,.68.49,1.21,1.12,1.22.65,0,1.16-.54,1.16-1.24,0-.69-.5-1.21-1.15-1.21Z"/>
        <path class="uuid-cf3fad26-3203-4b2f-b711-1e0d673b3a41" d="m44.01,12.63h-.8c-.01-.14-.03-.27-.04-.46-.4.42-.86.63-1.41.56-.53-.07-.97-.31-1.3-.74-.61-.81-.51-2.01.22-2.7.7-.66,1.62-.66,2.48.04.02-.15.04-.29.06-.44h.79v3.74Zm-.83-1.87c0-.7-.5-1.21-1.15-1.2-.65,0-1.13.53-1.12,1.23.01.7.51,1.23,1.15,1.21.64-.01,1.13-.55,1.12-1.24Z"/>
        <path class="uuid-cf3fad26-3203-4b2f-b711-1e0d673b3a41" d="m49.39,11.08c.06.46.28.75.65.9.48.18.95.16,1.63-.48.17.13.35.27.53.41-.51.73-1.42,1.01-2.33.73-.82-.25-1.3-.92-1.32-1.82-.02-1.37,1.19-2.33,2.46-1.96.84.25,1.41,1.12,1.34,2.01-.02.21-.14.2-.28.2-.77,0-1.54,0-2.31,0-.11,0-.22,0-.37,0Zm.05-.64h2.08c.03-.54-.43-.98-1.02-.99-.62,0-1.08.42-1.05.99Z"/>
        <path class="uuid-cf3fad26-3203-4b2f-b711-1e0d673b3a41" d="m32.58,11.84v.78h-2.61c0-.1-.02-.2-.02-.3,0-1.66,0-3.33,0-4.99,0-.27.06-.37.35-.36.65.03.54-.07.54.54,0,1.33,0,2.65,0,3.98v.35h1.74Z"/>
        <path class="uuid-cf3fad26-3203-4b2f-b711-1e0d673b3a41" d="m48.5,8.88c-.12.32-.22.59-.33.86-.34.89-.69,1.77-1.02,2.66-.07.18-.16.26-.36.25-.27-.02-.61.08-.8-.05-.19-.13-.24-.47-.33-.73-.35-.89-.69-1.79-1.03-2.69-.03-.08-.06-.17-.11-.3.27,0,.51-.01.75,0,.07,0,.14.12.18.2.31.78.61,1.57.91,2.35.04.09.08.18.14.34.06-.14.1-.22.14-.31.29-.76.59-1.52.87-2.28.09-.24.2-.37.47-.33.15.02.31,0,.52,0Z"/>
        <path class="uuid-cf3fad26-3203-4b2f-b711-1e0d673b3a41" d="m39.92,9.73h-1.51v2.9h-.84v-3.75c.34,0,.67,0,1.01,0,.38,0,.75,0,1.13,0,.15,0,.22.04.22.2,0,.21,0,.42,0,.66Z"/>
      </g>
    </g>
  </g>
</svg>