<?xml version="1.0" encoding="UTF-8"?>
<svg id="uuid-87ba0dbf-830e-4d77-9fac-1fa70a8e226b" data-name="Capa 2" xmlns="http://www.w3.org/2000/svg" viewBox="0 0 58.01 19.71">
  <defs>
    <style>
      .uuid-1ac8e056-d62d-446e-96d6-56f6e2db4d87 {
        fill: #fff;
      }

      .uuid-1210167d-0307-4207-a2ec-786e3759b0b8 {
        opacity: .8;
      }

      .uuid-043f7cb0-e876-4cf4-8986-0a36c825cdc2 {
        fill: none;
        stroke: #161616;
        stroke-miterlimit: 10;
      }
    </style>
  </defs>
  <g id="uuid-453e8cd2-ffbd-419f-a5fe-8b3f1d04b541" data-name="logos">
    <g>
      <g class="uuid-1210167d-0307-4207-a2ec-786e3759b0b8">
        <path class="uuid-1ac8e056-d62d-446e-96d6-56f6e2db4d87" d="m14.4,11.54s-.05-.02-.08-.03c-.54-.15-1.03-.39-1.47-.73-.22-.18-.41-.38-.5-.66-.09-.25-.06-.49.07-.72.13-.24.32-.41.53-.57.41-.29.86-.48,1.34-.62.02,0,.05-.01.07-.02,0,0,.01,0,.03-.02,0-.02,0-.05,0-.07-.04-.24-.1-.49-.13-.73-.05-.42-.03-.85.1-1.26.07-.21.17-.41.36-.54.13-.1.28-.15.45-.16.3-.02.57.05.84.17.35.16.67.36.96.61.11.09.21.18.31.28.02.02.04.03.06.05.05-.05.09-.09.14-.13.32-.3.68-.56,1.08-.76.24-.12.49-.2.75-.21.37-.01.65.13.84.46.13.22.19.46.22.71.05.5,0,1-.11,1.49,0,.02-.01.05-.01.07,0,0,0,.02,0,.03.03.01.07.03.1.04.33.1.65.22.95.39.26.14.5.31.7.53.07.08.14.17.19.26.2.34.16.68-.06,1-.12.17-.27.32-.44.45-.34.25-.71.44-1.11.58-.11.04-.22.07-.34.11,0,.03,0,.06.01.09.1.4.15.81.13,1.23-.01.33-.07.64-.23.94-.07.13-.17.25-.29.34-.21.17-.46.2-.72.16-.33-.05-.63-.19-.91-.36-.3-.18-.57-.4-.82-.64-.02-.02-.04-.03-.07-.06-.03.03-.06.05-.09.08-.32.31-.68.57-1.08.77-.3.15-.62.22-.96.22-.33,0-.57-.16-.74-.44-.13-.21-.19-.44-.21-.69-.06-.51,0-1,.12-1.5,0-.03.02-.07.02-.1,0,0,0-.02,0-.03Zm2.77-.07s0,0,0,0c.31,0,.62-.02.94-.03.07,0,.11-.03.15-.08.3-.47.58-.94.83-1.44.03-.06.04-.12,0-.18-.14-.25-.28-.51-.43-.76-.13-.22-.27-.44-.4-.66-.03-.05-.07-.08-.14-.08-.1,0-.21-.02-.31-.02-.43,0-.87.01-1.3.02-.1,0-.17.04-.22.13-.29.44-.55.9-.79,1.37-.03.06-.03.12,0,.18.25.49.53.97.83,1.43.05.08.11.11.19.11.03,0,.05,0,.08,0,.19,0,.38,0,.57,0Zm-4.46-1.63c0,.09.03.17.07.24.09.16.22.29.36.41.39.31.83.5,1.31.64.08.02.09.02.11-.07.12-.38.26-.76.43-1.12.02-.05.02-.09,0-.13-.17-.37-.32-.75-.44-1.13-.03-.08-.03-.08-.11-.06-.12.04-.24.08-.36.12-.29.11-.57.24-.82.41-.16.11-.32.23-.43.4-.07.09-.11.19-.11.31Zm4.31-3.01s-.05-.05-.07-.07c-.28-.28-.59-.51-.94-.69-.22-.12-.45-.21-.7-.23-.24-.02-.4.07-.5.26-.12.23-.15.48-.17.73-.02.39.03.77.13,1.15,0,.03.02.06.03.09.03,0,.05,0,.08,0,.4-.09.8-.16,1.2-.2.07,0,.12-.03.16-.09.22-.3.45-.59.71-.86.02-.02.04-.05.07-.08Zm-2.37,5.93c0,.05,0,.1,0,.15,0,.22.04.43.13.64.04.08.09.16.16.22.12.1.26.12.41.1.16-.02.32-.06.48-.13.43-.18.8-.46,1.14-.78.06-.06.06-.07,0-.13-.27-.29-.52-.59-.75-.91-.04-.05-.09-.07-.15-.08-.26-.03-.51-.07-.77-.11-.14-.02-.28-.05-.42-.08-.06-.01-.07,0-.09.05,0,.01,0,.03-.01.04-.09.33-.13.67-.13,1.01Zm2.95-5.96s.04.05.05.07c.06.07.12.13.18.21.19.24.38.48.57.72.03.04.07.07.12.08.4.03.79.09,1.18.18.08.02.09.01.11-.06,0,0,0-.01,0-.02.13-.47.16-.94.1-1.43-.02-.18-.06-.35-.16-.5-.09-.15-.22-.22-.4-.22-.17,0-.33.03-.48.1-.36.15-.69.36-.99.62-.1.08-.19.18-.29.27Zm.04,6.11s0,.03.01.03c.02.02.03.04.05.05.28.26.59.49.93.67.2.11.4.19.63.22.21.02.38-.04.49-.22.03-.04.05-.09.07-.14.08-.19.11-.38.13-.58.02-.41-.02-.81-.12-1.21,0-.03-.02-.06-.03-.09-.03,0-.05,0-.07,0-.38.08-.76.14-1.15.19-.06,0-.11.03-.14.09-.22.31-.45.6-.7.88-.03.04-.07.08-.1.12Zm2.47-1.8s.06-.01.08-.02c.09-.03.18-.06.27-.09.37-.14.72-.3,1.03-.55.15-.12.28-.25.35-.43.05-.11.05-.22,0-.33-.06-.14-.15-.25-.26-.35-.32-.27-.68-.46-1.07-.61-.11-.04-.22-.07-.34-.11-.06-.02-.07-.01-.09.05,0,.01,0,.02-.01.03-.11.37-.25.73-.41,1.08-.02.05-.03.1,0,.15.16.35.3.72.42,1.09,0,.03.02.06.04.09Zm-4.85-1.76c.19-.33.38-.65.57-.97,0-.01,0-.03.02-.06-.32.04-.62.08-.91.16.01.14.25.77.32.87Zm.56,2.05s0-.02.01-.02c-.1-.17-.19-.34-.29-.5-.1-.17-.18-.34-.29-.51-.07.1-.31.76-.31.88.29.07.59.12.88.16Zm1.49,1.19c.11-.07.54-.61.57-.7-.35,0-.7,0-1.05,0-.02,0-.05,0-.07,0,0,0,0,0,0,0,0,0,0,0,0,.02.17.23.36.46.56.67Zm.57-4.78c-.07-.14-.5-.63-.58-.67,0,0-.02.01-.03.02-.17.2-.34.4-.51.61,0,0,0,.03-.01.05h1.13Zm1.52,2.6s-.02,0-.03,0c-.18.32-.37.64-.55.96.12.02.78-.1.87-.16-.08-.27-.18-.54-.29-.81Zm-.03-1.09c.08-.12.3-.73.29-.83-.28-.06-.56-.12-.87-.16.2.34.39.65.58.98Z"/>
        <path class="uuid-1ac8e056-d62d-446e-96d6-56f6e2db4d87" d="m26.52,10.4c.57.86,1.13,1.71,1.71,2.58-.04,0-.06.01-.09.01-.25,0-.5,0-.75,0-.06,0-.1-.03-.13-.08-.2-.32-.4-.63-.6-.95-.24-.38-.48-.76-.73-1.14-.07-.1-.14-.21-.2-.31-.03-.05-.08-.07-.14-.07-.36,0-.72,0-1.08,0-.11,0-.11,0-.11.12,0,.76,0,1.51,0,2.27,0,.03,0,.06,0,.09,0,.06-.01.07-.07.07-.22,0-.44,0-.65,0-.05,0-.06-.01-.07-.07,0-.03,0-.05,0-.08,0-2.03,0-4.06,0-6.1,0-.16,0-.15.15-.15.81,0,1.63,0,2.44,0,.31,0,.62.06.91.19.45.2.77.53.94.99.08.22.12.44.12.67,0,.26-.02.51-.1.76-.2.57-.6.94-1.18,1.11-.1.03-.2.04-.29.06-.02,0-.04.01-.08.02Zm-2.12-1.87c0,.38,0,.75,0,1.13,0,.09,0,.1.1.1,0,0,.02,0,.03,0,.52,0,1.04,0,1.55,0,.11,0,.23-.01.34-.04.37-.08.65-.29.82-.64.1-.21.13-.43.12-.66-.02-.37-.18-.67-.49-.89-.23-.16-.48-.23-.76-.23-.53,0-1.07,0-1.6,0-.01,0-.03,0-.04,0-.06,0-.07.01-.07.07,0,.03,0,.05,0,.08,0,.36,0,.72,0,1.08Z"/>
        <path class="uuid-1ac8e056-d62d-446e-96d6-56f6e2db4d87" d="m32.81,11.96c.11.15.22.3.34.46-.03.03-.05.06-.08.08-.4.35-.86.56-1.38.61-.53.05-1.04-.01-1.52-.27-.43-.23-.75-.57-.96-1-.16-.34-.24-.7-.25-1.08,0-.41.05-.8.23-1.18.33-.7.86-1.14,1.62-1.29.48-.09.95-.04,1.39.16.33.15.59.38.8.68.24.35.38.74.43,1.16.02.17.03.34.03.51,0,.12,0,.12-.12.12-.42,0-.84,0-1.26,0-.75,0-1.49,0-2.24,0-.17,0-.14.02-.13.14.08.51.3.93.75,1.22.25.16.53.24.84.25.46.01.88-.11,1.26-.37.07-.04.12-.1.19-.15.02-.02.04-.03.07-.06Zm-1.59-1.56c.48,0,.96,0,1.44,0,.09,0,.1-.02.09-.1-.02-.17-.05-.34-.12-.51-.16-.39-.42-.68-.82-.83-.24-.1-.49-.12-.75-.1-.32.03-.6.15-.83.36-.3.28-.46.63-.52,1.04-.02.12-.04.14.13.14.46,0,.92,0,1.38,0Z"/>
        <path class="uuid-1ac8e056-d62d-446e-96d6-56f6e2db4d87" d="m37.25,10.65s0-.05,0-.08c0-.24,0-.49,0-.73,0-.23-.07-.43-.22-.6-.11-.13-.26-.22-.42-.28-.24-.09-.49-.1-.74-.08-.45.04-.83.24-1.14.56-.02.02-.03.03-.05.05,0,0-.01,0-.02,0,0,0-.02-.02-.03-.03-.09-.13-.18-.26-.26-.39-.04-.06-.04-.06,0-.11.21-.2.44-.38.7-.5.25-.11.52-.18.79-.21.34-.03.68-.02,1.02.08.2.06.39.14.56.27.26.2.4.46.48.77.04.17.05.35.05.53,0,.98,0,1.97,0,2.95,0,.01,0,.03,0,.04,0,.07-.01.08-.08.08-.19,0-.38,0-.57,0-.06,0-.07-.01-.08-.08,0-.11,0-.21,0-.32,0-.03,0-.06,0-.11-.04.03-.06.05-.08.07-.2.2-.43.35-.69.44-.19.07-.39.11-.59.12-.27.01-.54,0-.8-.11-.43-.16-.75-.44-.91-.88-.05-.14-.08-.29-.09-.45,0-.19,0-.38.05-.56.13-.42.39-.71.78-.9.33-.16.69-.2,1.05-.16.21.02.42.07.62.15.22.09.4.22.57.38.02.02.05.04.07.06,0,0,.01,0,.02,0Zm0,.94c0-.12,0-.24,0-.35,0-.07-.02-.12-.06-.17-.13-.14-.28-.25-.45-.33-.22-.1-.45-.15-.69-.16-.24-.01-.47.03-.69.14-.58.29-.69,1.01-.36,1.46.18.24.42.37.71.41.31.05.61.02.89-.09.23-.09.44-.22.6-.41.04-.04.05-.09.05-.14,0-.12,0-.24,0-.35Z"/>
        <path class="uuid-1ac8e056-d62d-446e-96d6-56f6e2db4d87" d="m42.66,9.07c-.15.14-.3.28-.46.43-.03-.03-.05-.05-.07-.08-.22-.27-.49-.45-.83-.5-.55-.09-1.04.03-1.44.45-.22.23-.35.52-.42.84-.09.44-.07.87.1,1.29.22.55.62.88,1.2.97.28.04.56.02.83-.09.22-.09.4-.25.55-.43.02-.02.03-.04.06-.06.05.04.09.07.13.11.09.09.19.17.28.26.07.06.07.07,0,.14-.31.38-.71.62-1.19.69-.71.11-1.37-.03-1.94-.5-.31-.26-.53-.59-.66-.97-.1-.29-.15-.58-.15-.88,0-.29.03-.58.11-.85.19-.61.56-1.08,1.13-1.38.25-.13.51-.2.78-.23.33-.03.65-.02.96.08.39.11.7.34.96.65.01.01.02.03.03.04,0,0,0,.01,0,.03Z"/>
        <path class="uuid-1ac8e056-d62d-446e-96d6-56f6e2db4d87" d="m45.51,12.32s.02.03.03.05c.05.13.11.26.16.39.02.07.02.07-.03.11-.17.13-.36.21-.58.24-.19.02-.38.01-.57-.04-.33-.08-.53-.29-.62-.62-.04-.16-.06-.32-.06-.48,0-.94,0-1.88,0-2.83,0-.16,0-.15-.16-.15-.17,0-.34,0-.51,0-.09,0-.1,0-.1-.1,0-.15,0-.29,0-.44,0-.08,0-.09.09-.09.17,0,.35,0,.52,0,.02,0,.05,0,.07,0,.07,0,.08-.01.08-.09,0-.02,0-.05,0-.07,0-.32,0-.64,0-.95,0-.02,0-.04,0-.06,0-.09,0-.1.09-.1.03,0,.05,0,.08,0,.14,0,.29,0,.43,0,.11,0,.11,0,.11.11,0,.34,0,.67,0,1.01,0,.16,0,.16.15.16.22,0,.44,0,.65,0,.02,0,.04,0,.06,0,.06,0,.07.01.07.08,0,.07,0,.14,0,.2,0,.09,0,.17,0,.26,0,.09,0,.09-.1.09-.23,0-.46,0-.69,0-.03,0-.05,0-.08,0-.06,0-.07.01-.07.07,0,.02,0,.04,0,.05,0,.91,0,1.82,0,2.73,0,.08,0,.15.02.23.06.3.27.44.57.39.11-.02.2-.06.29-.11.02-.01.04-.02.07-.04Z"/>
        <path class="uuid-1ac8e056-d62d-446e-96d6-56f6e2db4d87" d="m17.29,10.73c-.45.01-.89-.36-.89-.87,0-.52.39-.9.89-.9.54,0,.89.45.89.9,0,.47-.41.9-.89.88Z"/>
      </g>
      <rect class="uuid-043f7cb0-e876-4cf4-8986-0a36c825cdc2" x=".5" y=".5" width="57.01" height="18.71" rx="9.35" ry="9.35"/>
    </g>
  </g>
</svg>