<?xml version="1.0" encoding="UTF-8"?>
<svg id="uuid-a39b8a09-0447-405d-a630-4b667e5743fb" data-name="Capa 2" xmlns="http://www.w3.org/2000/svg" viewBox="0 0 58.01 19.71">
  <defs>
    <style>
      .uuid-44e68bab-e261-4f8f-ab7a-f3b719a028ab {
        fill: #fff;
      }

      .uuid-524f20d4-6467-4185-9384-e6e5610a2fe7 {
        opacity: .8;
      }

      .uuid-79b84075-5bfb-44c1-9698-ae4d9ca2c0e0 {
        fill: none;
        stroke: #161616;
        stroke-miterlimit: 10;
      }
    </style>
  </defs>
  <g id="uuid-7de71cd4-90ac-4b2d-b9ee-7e6585bf8ad2" data-name="logos">
    <g>
      <rect class="uuid-79b84075-5bfb-44c1-9698-ae4d9ca2c0e0" x=".5" y=".5" width="57.01" height="18.71" rx="9.35" ry="9.35"/>
      <g>
        <g class="uuid-524f20d4-6467-4185-9384-e6e5610a2fe7">
          <path class="uuid-44e68bab-e261-4f8f-ab7a-f3b719a028ab" d="m25.84,10.02c0-1.12-.32-1.69-.95-1.72-.25-.01-.51.03-.74.12-.19.07-.32.14-.39.21v2.66c.41.26.77.37,1.08.36.67-.04,1-.59,1-1.63h0Zm.78.05c0,.57-.13,1.04-.4,1.41-.3.42-.71.64-1.24.65-.4.01-.81-.11-1.23-.37v2.42l-.68-.24v-5.37c.11-.14.26-.26.43-.36.41-.24.9-.36,1.48-.36h0c.53,0,.94.22,1.23.66.27.41.4.93.4,1.56h0Zm4.17,1.59c0,.76-.08,1.29-.23,1.58-.15.29-.44.53-.87.7-.35.14-.73.21-1.13.22l-.11-.43c.41-.06.7-.11.87-.17.33-.11.56-.28.68-.51.1-.19.15-.55.15-1.07v-.18c-.47.21-.96.32-1.47.32-.34,0-.63-.11-.89-.32-.29-.23-.43-.52-.43-.88v-2.84l.68-.23v2.86c0,.31.1.54.3.71.2.17.45.24.77.24.31,0,.65-.13,1-.36v-3.34h.68v3.71Zm2.66.44c-.07,0-.15,0-.22,0-.39,0-.69-.09-.9-.28-.21-.18-.32-.44-.32-.76v-2.69h-.47v-.43h.47v-1.14l.68-.24v1.38h.77v.43h-.77v2.67c0,.26.07.44.21.54.12.09.31.14.56.15v.36Zm4.13-.06h-.68v-2.63c0-.27-.06-.5-.19-.69-.14-.22-.34-.33-.6-.33-.31,0-.7.17-1.17.5v3.16h-.68v-6.3l.68-.22v2.87c.44-.32.91-.48,1.43-.48.36,0,.65.12.88.36.22.24.34.55.34.91v2.85Zm3.63-2.12c0-.43-.08-.78-.24-1.06-.19-.34-.49-.52-.9-.54-.75.04-1.12.58-1.12,1.61,0,.47.08.86.23,1.18.2.4.5.6.9.59.75,0,1.13-.6,1.13-1.78h0Zm.75,0c0,.61-.16,1.12-.47,1.52-.34.45-.82.68-1.42.68s-1.07-.23-1.4-.68c-.31-.41-.46-.91-.46-1.52,0-.57.17-1.06.5-1.45.35-.42.81-.63,1.37-.63s1.03.21,1.38.63c.33.39.5.88.5,1.45h0Zm3.91,2.12h-.68v-2.78c0-.31-.09-.54-.28-.72-.18-.17-.43-.25-.73-.25-.32,0-.63.11-.93.32v3.43h-.68v-3.51c.39-.29.75-.47,1.08-.56.31-.08.59-.12.82-.12.16,0,.31.02.46.05.27.06.49.18.65.35.19.19.28.41.28.67v3.13Z"/>
        </g>
        <g class="uuid-524f20d4-6467-4185-9384-e6e5610a2fe7">
          <path class="uuid-44e68bab-e261-4f8f-ab7a-f3b719a028ab" d="m16.33,5.55c-.35,0-.69.03-.98.08-.87.15-1.03.47-1.03,1.07v.78h2.05v.26h-2.82c-.6,0-1.12.36-1.28,1.04-.19.78-.2,1.27,0,2.09.15.61.49,1.04,1.09,1.04h.71v-.94c0-.68.59-1.28,1.28-1.28h2.05c.57,0,1.03-.47,1.03-1.04v-1.96c0-.56-.47-.97-1.03-1.07-.35-.06-.72-.09-1.07-.08h0Zm-1.11.63c.21,0,.39.18.39.39s-.17.39-.39.39-.39-.17-.39-.39.17-.39.39-.39h0Z"/>
          <path class="uuid-44e68bab-e261-4f8f-ab7a-f3b719a028ab" d="m18.69,7.75v.91c0,.71-.6,1.3-1.28,1.3h-2.05c-.56,0-1.03.48-1.03,1.04v1.96c0,.56.48.88,1.03,1.04.65.19,1.27.23,2.05,0,.52-.15,1.03-.45,1.03-1.04v-.78h-2.05v-.26h3.08c.6,0,.82-.42,1.03-1.04.21-.64.21-1.26,0-2.09-.15-.59-.43-1.04-1.03-1.04h-.77Zm-1.15,4.95c.21,0,.39.17.39.39s-.17.39-.39.39-.39-.18-.39-.39.17-.39.39-.39Z"/>
        </g>
      </g>
    </g>
  </g>
</svg>