<?xml version="1.0" encoding="UTF-8"?>
<svg id="uuid-6351bd17-9617-4336-9c18-f20adb5b4856" data-name="Capa 2" xmlns="http://www.w3.org/2000/svg" viewBox="0 0 29.81 19.71">
  <defs>
    <style>
      .uuid-4ea11dde-247e-415b-b39f-37f9735253bf {
        fill: #fff;
      }

      .uuid-8b2b959d-1ae5-44da-bc2c-29c566a94370 {
        opacity: .8;
      }

      .uuid-d599178c-4842-4972-84c8-f054ae799435 {
        fill: none;
        stroke: #161616;
        stroke-miterlimit: 10;
      }
    </style>
  </defs>
  <g id="uuid-6de77826-46c4-46e3-9860-cd7feeabd08d" data-name="logos">
    <g>
      <rect class="uuid-d599178c-4842-4972-84c8-f054ae799435" x=".5" y=".5" width="28.81" height="18.71" rx="9.35" ry="9.35"/>
      <g class="uuid-8b2b959d-1ae5-44da-bc2c-29c566a94370">
        <path class="uuid-4ea11dde-247e-415b-b39f-37f9735253bf" d="m13.45,6.06c.29,0,.58,0,.86,0,.03,0,.06,0,.09,0,.1,0,.12.02.15.11.17.47.34.95.5,1.42.75,2.13,1.51,4.25,2.26,6.38.01.04.03.08.04.12.02.07-.01.1-.08.11-.02,0-.04,0-.06,0-.5,0-1,0-1.5,0-.01,0-.03,0-.04,0-.07,0-.12-.03-.14-.1-.04-.1-.07-.21-.11-.31-.16-.46-.32-.92-.47-1.37,0-.02-.02-.04-.02-.07-.01-.05-.04-.07-.1-.07-.02,0-.04,0-.06,0-.87,0-1.73,0-2.6,0q-.13,0-.17.13c-.17.53-.35,1.07-.52,1.6,0,.03-.02.06-.03.09-.02.06-.07.1-.14.1-.02,0-.05,0-.07,0-.43,0-.87,0-1.3,0-.01,0-.03,0-.04,0-.13,0-.16-.05-.12-.17.07-.22.15-.44.23-.67.74-2.13,1.48-4.27,2.22-6.4.09-.25.14-.51.15-.78,0-.11.02-.13.14-.13.31,0,.63,0,.94,0h0Zm.96,4.63s0-.01,0-.02c0,0,0-.01,0-.02,0-.01,0-.03-.01-.04-.33-1.02-.66-2.04-.95-3.07,0,0,0,0,0,0,0,0,0,0-.01,0,0,.03-.01.05-.02.08-.06.23-.11.46-.18.69-.24.77-.48,1.54-.72,2.31,0,.02,0,.05-.01.07.12.02,1.84.02,1.91,0Z"/>
        <path class="uuid-4ea11dde-247e-415b-b39f-37f9735253bf" d="m19.94,11.15c0,.95,0,1.9,0,2.85,0,.04,0,.08,0,.12,0,.07-.04.1-.11.11-.02,0-.04,0-.06,0-.46,0-.92,0-1.37,0-.16,0-.19-.03-.19-.18,0-1.94,0-3.88,0-5.82,0,0,0,0,0,0,0-.14.02-.16.16-.16.47,0,.94,0,1.41,0,.02,0,.04,0,.06,0,.06,0,.09.03.1.09,0,.04,0,.08,0,.11,0,.96,0,1.92,0,2.88Z"/>
        <path class="uuid-4ea11dde-247e-415b-b39f-37f9735253bf" d="m19.07,7.42c-.1,0-.21-.01-.32-.05-.36-.12-.61-.44-.63-.83,0-.09,0-.18,0-.27.06-.4.37-.71.77-.78.14-.02.28-.02.42,0,.41.08.7.42.72.83,0,.14,0,.29-.04.43-.13.41-.49.68-.93.66Z"/>
      </g>
    </g>
  </g>
</svg>