<?xml version="1.0" encoding="UTF-8"?>
<svg id="uuid-73221aec-158a-46ff-901c-1cdb8ba33d5b" data-name="Capa 2" xmlns="http://www.w3.org/2000/svg" viewBox="0 0 88.2 47.55">
  <defs>
    <style>
      .uuid-ea5d1b9e-13b6-4cd2-bd96-b1d3832fe1d4 {
        fill: #fff;
      }

      .uuid-70a5fd6e-7ce7-4144-b36f-b5f4da3a3bf8 {
        opacity: .8;
      }

      .uuid-c1bd4815-83f6-4830-8cb8-1d3814d993a4 {
        fill: none;
        stroke: #161616;
        stroke-miterlimit: 10;
      }
    </style>
  </defs>
  <g id="uuid-770ef73f-9d69-45a2-a83e-d86a7b702824" data-name="logos">
    <g>
      <rect class="uuid-c1bd4815-83f6-4830-8cb8-1d3814d993a4" x=".5" y=".5" width="28.81" height="18.71" rx="9.35" ry="9.35"/>
      <g class="uuid-70a5fd6e-7ce7-4144-b36f-b5f4da3a3bf8">
        <path class="uuid-ea5d1b9e-13b6-4cd2-bd96-b1d3832fe1d4" d="m10.82,11.34s0,.08,0,.12c0,.8,0,1.6,0,2.4,0,.16-.02.17-.17.17-.47,0-.93,0-1.4,0,0,0-.02,0-.03,0-.12,0-.14-.02-.14-.14,0-.02,0-.04,0-.06,0-2.7,0-5.4,0-8.09,0-.19,0-.19.19-.19.6-.01,1.2-.03,1.8-.04.27,0,.53,0,.8,0,.53,0,1.05.08,1.54.28.72.28,1.26.76,1.55,1.48.18.44.24.91.2,1.38-.02.31-.07.6-.18.89-.24.62-.67,1.07-1.25,1.38-.34.18-.72.29-1.1.35-.51.08-1.03.09-1.55.06-.07,0-.14,0-.2,0-.01,0-.02,0-.05.01Zm.01-1.53s.06,0,.09,0c.22,0,.44.01.65.01.27,0,.54-.04.81-.11.27-.07.51-.19.7-.38.14-.14.23-.3.28-.49.05-.22.07-.44.04-.67-.07-.44-.3-.76-.72-.94-.27-.11-.56-.17-.85-.17-.29,0-.57,0-.86,0-.03,0-.06,0-.09,0-.04,0-.06.02-.06.06,0,.02,0,.04,0,.06,0,.84,0,1.67,0,2.51,0,.03,0,.07,0,.1Z"/>
        <path class="uuid-ea5d1b9e-13b6-4cd2-bd96-b1d3832fe1d4" d="m20.39,8.57c0,.21,0,.41,0,.62,0,.12-.06.15-.17.12-.01,0-.03-.01-.04-.02-.33-.17-.68-.26-1.04-.31-.22-.03-.43-.04-.65-.05-.16,0-.32.02-.48.07-.18.06-.28.19-.28.37,0,.09.04.17.1.24.08.09.17.15.27.2.23.11.47.22.71.31.38.15.75.32,1.09.54.43.27.72.65.8,1.15.14.91-.27,1.69-1.08,2.08-.35.17-.72.25-1.1.28-.33.03-.66.03-.98,0-.44-.04-.88-.11-1.29-.29-.03-.01-.06-.03-.09-.04-.07-.03-.11-.09-.1-.17,0-.18,0-.37,0-.55,0-.25,0-.5,0-.75,0-.02,0-.04,0-.06,0-.1.03-.12.12-.07.21.12.43.22.66.29.42.13.85.21,1.29.21.16,0,.32-.01.47-.05.06-.01.11-.03.16-.06.25-.12.3-.4.11-.6-.08-.08-.17-.15-.27-.19-.23-.1-.45-.2-.69-.29-.37-.14-.72-.31-1.04-.54-.39-.27-.67-.63-.77-1.11-.16-.78.15-1.61.95-2.06.32-.18.67-.28,1.03-.32.57-.06,1.14-.03,1.71.08.16.03.31.08.46.13.12.04.14.08.14.21,0,.21,0,.42,0,.63Z"/>
      </g>
    </g>
    <rect class="uuid-c1bd4815-83f6-4830-8cb8-1d3814d993a4" x="31.38" y="28.34" width="56.32" height="18.71" rx="9.35" ry="9.35"/>
  </g>
</svg>